%TF.GenerationSoftware,KiCad,Pcbnew,9.0.5*%
%TF.CreationDate,2025-10-18T19:48:00+03:00*%
%TF.ProjectId,train,74726169-6e2e-46b6-9963-61645f706362,rev?*%
%TF.SameCoordinates,Original*%
%TF.FileFunction,Copper,L2,Bot*%
%TF.FilePolarity,Positive*%
%FSLAX46Y46*%
G04 Gerber Fmt 4.6, Leading zero omitted, Abs format (unit mm)*
G04 Created by KiCad (PCBNEW 9.0.5) date 2025-10-18 19:48:00*
%MOMM*%
%LPD*%
G01*
G04 APERTURE LIST*
G04 Aperture macros list*
%AMRoundRect*
0 Rectangle with rounded corners*
0 $1 Rounding radius*
0 $2 $3 $4 $5 $6 $7 $8 $9 X,Y pos of 4 corners*
0 Add a 4 corners polygon primitive as box body*
4,1,4,$2,$3,$4,$5,$6,$7,$8,$9,$2,$3,0*
0 Add four circle primitives for the rounded corners*
1,1,$1+$1,$2,$3*
1,1,$1+$1,$4,$5*
1,1,$1+$1,$6,$7*
1,1,$1+$1,$8,$9*
0 Add four rect primitives between the rounded corners*
20,1,$1+$1,$2,$3,$4,$5,0*
20,1,$1+$1,$4,$5,$6,$7,0*
20,1,$1+$1,$6,$7,$8,$9,0*
20,1,$1+$1,$8,$9,$2,$3,0*%
G04 Aperture macros list end*
%TA.AperFunction,ComponentPad*%
%ADD10C,2.000000*%
%TD*%
%TA.AperFunction,ComponentPad*%
%ADD11RoundRect,0.250000X-0.750000X0.750000X-0.750000X-0.750000X0.750000X-0.750000X0.750000X0.750000X0*%
%TD*%
%TA.AperFunction,ComponentPad*%
%ADD12C,1.200000*%
%TD*%
%TA.AperFunction,ComponentPad*%
%ADD13C,1.400000*%
%TD*%
%TA.AperFunction,ComponentPad*%
%ADD14O,1.905000X2.000000*%
%TD*%
%TA.AperFunction,ComponentPad*%
%ADD15R,1.905000X2.000000*%
%TD*%
%TA.AperFunction,ComponentPad*%
%ADD16C,1.600000*%
%TD*%
%TA.AperFunction,ComponentPad*%
%ADD17RoundRect,0.250000X0.550000X0.550000X-0.550000X0.550000X-0.550000X-0.550000X0.550000X-0.550000X0*%
%TD*%
%TA.AperFunction,ComponentPad*%
%ADD18RoundRect,0.250000X0.750000X0.750000X-0.750000X0.750000X-0.750000X-0.750000X0.750000X-0.750000X0*%
%TD*%
%TA.AperFunction,ComponentPad*%
%ADD19C,1.620000*%
%TD*%
%TA.AperFunction,ComponentPad*%
%ADD20C,1.800000*%
%TD*%
%TA.AperFunction,ComponentPad*%
%ADD21R,1.800000X1.800000*%
%TD*%
%TA.AperFunction,ComponentPad*%
%ADD22C,2.200000*%
%TD*%
%TA.AperFunction,ComponentPad*%
%ADD23RoundRect,0.249999X-0.850001X0.850001X-0.850001X-0.850001X0.850001X-0.850001X0.850001X0.850001X0*%
%TD*%
%TA.AperFunction,ViaPad*%
%ADD24C,0.400000*%
%TD*%
%TA.AperFunction,Conductor*%
%ADD25C,0.450000*%
%TD*%
G04 APERTURE END LIST*
D10*
%TO.P,BT1,2,-*%
%TO.N,GND*%
X142712000Y-86068000D03*
D11*
%TO.P,BT1,1,+*%
%TO.N,Net-(BT1-+)*%
X142712000Y-83528000D03*
%TD*%
D12*
%TO.P,C3,2*%
%TO.N,GND*%
X155672000Y-97528000D03*
%TO.P,C3,1*%
%TO.N,OUTPUT 2*%
X157672000Y-97528000D03*
%TD*%
D13*
%TO.P,R1,2*%
%TO.N,Net-(D2-A)*%
X154672000Y-107028000D03*
%TO.P,R1,1*%
%TO.N,OUTPUT 2*%
X154672000Y-101948000D03*
%TD*%
%TO.P,R3,2*%
%TO.N,Net-(Q1-G)*%
X169672000Y-97028000D03*
%TO.P,R3,1*%
%TO.N,Net-(R3-Pad1)*%
X174752000Y-97028000D03*
%TD*%
D14*
%TO.P,Q2,3,S*%
%TO.N,GND*%
X183172000Y-105028000D03*
%TO.P,Q2,2,D*%
%TO.N,OUTPUT 3*%
X185712000Y-105028000D03*
D15*
%TO.P,Q2,1,G*%
%TO.N,Net-(Q2-G)*%
X188252000Y-105028000D03*
%TD*%
D14*
%TO.P,Q1,3,S*%
%TO.N,GND*%
X163672000Y-105528000D03*
%TO.P,Q1,2,D*%
%TO.N,OUTPUT 1*%
X166212000Y-105528000D03*
D15*
%TO.P,Q1,1,G*%
%TO.N,Net-(Q1-G)*%
X168752000Y-105528000D03*
%TD*%
D16*
%TO.P,C1,2*%
%TO.N,GND*%
X141172000Y-94028000D03*
D17*
%TO.P,C1,1*%
%TO.N,Net-(BT1-+)*%
X143672000Y-94028000D03*
%TD*%
D10*
%TO.P,D2,2,A*%
%TO.N,Net-(D2-A)*%
X177172000Y-85528000D03*
D18*
%TO.P,D2,1,K*%
%TO.N,GND*%
X179712000Y-85528000D03*
%TD*%
D13*
%TO.P,R4,2*%
%TO.N,Net-(Q1-G)*%
X180172000Y-98068000D03*
%TO.P,R4,1*%
%TO.N,Net-(U1-HO)*%
X180172000Y-92988000D03*
%TD*%
D19*
%TO.P,RV1,3,3*%
%TO.N,Net-(R2-Pad1)*%
X150672000Y-83028000D03*
%TO.P,RV1,2,2*%
X153172000Y-85528000D03*
%TO.P,RV1,1,1*%
%TO.N,Net-(U1-CT)*%
X155672000Y-83028000D03*
%TD*%
D16*
%TO.P,U1,8,VB*%
%TO.N,OUTPUT 2*%
X160357000Y-91338000D03*
%TO.P,U1,7,HO*%
%TO.N,Net-(U1-HO)*%
X160357000Y-88798000D03*
%TO.P,U1,6,VS*%
%TO.N,GND*%
X160357000Y-86258000D03*
%TO.P,U1,5,LO*%
%TO.N,Net-(U1-LO)*%
X160357000Y-83718000D03*
%TO.P,U1,4,COM*%
%TO.N,GND*%
X167977000Y-83718000D03*
%TO.P,U1,3,CT*%
%TO.N,Net-(U1-CT)*%
X167977000Y-86258000D03*
%TO.P,U1,2,RT*%
%TO.N,Net-(U1-RT)*%
X167977000Y-88798000D03*
D17*
%TO.P,U1,1,VCC*%
%TO.N,OUTPUT 2*%
X167977000Y-91338000D03*
%TD*%
D16*
%TO.P,C2,2*%
%TO.N,GND*%
X150172000Y-92778000D03*
%TO.P,C2,1*%
%TO.N,Net-(BT1-+)*%
X150172000Y-90278000D03*
%TD*%
D13*
%TO.P,R6,2*%
%TO.N,Net-(Q2-G)*%
X171172000Y-92028000D03*
%TO.P,R6,1*%
%TO.N,Net-(R3-Pad1)*%
X176252000Y-92028000D03*
%TD*%
%TO.P,R2,2*%
%TO.N,Net-(U1-RT)*%
X166712000Y-97028000D03*
%TO.P,R2,1*%
%TO.N,Net-(R2-Pad1)*%
X161632000Y-97028000D03*
%TD*%
D20*
%TO.P,D3,2,A*%
%TO.N,Net-(D3-A)*%
X141172000Y-104528000D03*
D21*
%TO.P,D3,1,K*%
%TO.N,Net-(D3-K)*%
X143712000Y-104528000D03*
%TD*%
D13*
%TO.P,R5,2*%
%TO.N,Net-(Q2-G)*%
X171672000Y-88028000D03*
%TO.P,R5,1*%
%TO.N,Net-(U1-LO)*%
X171672000Y-82948000D03*
%TD*%
D10*
%TO.P,T1,5,SB*%
%TO.N,OUTPUT 3*%
X188172000Y-97608000D03*
%TO.P,T1,4,SC*%
%TO.N,OUTPUT 2*%
X188172000Y-95068000D03*
%TO.P,T1,3,SA*%
%TO.N,OUTPUT 1*%
X188172000Y-92528000D03*
%TO.P,T1,2,AB*%
%TO.N,Net-(D3-A)*%
X188172000Y-89988000D03*
D11*
%TO.P,T1,1,AA*%
%TO.N,Net-(D3-K)*%
X188172000Y-87448000D03*
%TD*%
D16*
%TO.P,C4,2*%
%TO.N,GND*%
X156922000Y-89528000D03*
%TO.P,C4,1*%
%TO.N,Net-(U1-CT)*%
X154422000Y-89528000D03*
%TD*%
D22*
%TO.P,D1,2,A*%
%TO.N,Net-(BT1-+)*%
X149672000Y-107608000D03*
D23*
%TO.P,D1,1,K*%
%TO.N,OUTPUT 2*%
X149672000Y-97448000D03*
%TD*%
D24*
%TO.N,Net-(U1-RT)*%
X169926000Y-90675000D03*
%TO.N,GND*%
X151041936Y-96155000D03*
X181789000Y-87122000D03*
X182118000Y-87630000D03*
%TO.N,Net-(Q2-G)*%
X170688000Y-90675000D03*
%TD*%
D25*
%TO.N,Net-(U1-RT)*%
X169926000Y-93814000D02*
X169926000Y-90675000D01*
X166712000Y-97028000D02*
X169926000Y-93814000D01*
%TO.N,Net-(Q1-G)*%
X169672000Y-97028000D02*
X170798000Y-98154000D01*
X170798000Y-98154000D02*
X180086000Y-98154000D01*
X180086000Y-98154000D02*
X180172000Y-98068000D01*
X169672000Y-97028000D02*
X169672000Y-104608000D01*
X169672000Y-104608000D02*
X168752000Y-105528000D01*
%TO.N,Net-(R3-Pad1)*%
X174752000Y-97028000D02*
X174244000Y-96520000D01*
X174244000Y-96520000D02*
X174244000Y-94036000D01*
X174244000Y-94036000D02*
X176252000Y-92028000D01*
%TO.N,GND*%
X152414936Y-97528000D02*
X151041936Y-96155000D01*
X155672000Y-97528000D02*
X152414936Y-97528000D01*
X141172000Y-94028000D02*
X141172000Y-82605064D01*
X151398000Y-89751064D02*
X151398000Y-91552000D01*
X141172000Y-82605064D02*
X141675064Y-82102000D01*
X141675064Y-82102000D02*
X143748936Y-82102000D01*
X151398000Y-91552000D02*
X150172000Y-92778000D01*
X143748936Y-82102000D02*
X151398000Y-89751064D01*
X182118000Y-87451000D02*
X181789000Y-87122000D01*
X182118000Y-87630000D02*
X182118000Y-87451000D01*
X186436000Y-83312000D02*
X182118000Y-87630000D01*
X193040000Y-83312000D02*
X186436000Y-83312000D01*
X183172000Y-105028000D02*
X184598000Y-106454000D01*
X184598000Y-106454000D02*
X189630500Y-106454000D01*
X189630500Y-106454000D02*
X193040000Y-103044500D01*
X193040000Y-103044500D02*
X193040000Y-83312000D01*
X163712000Y-105528000D02*
X164338000Y-104902000D01*
X163672000Y-105528000D02*
X163712000Y-105528000D01*
X163672000Y-105528000D02*
X165098000Y-106954000D01*
X165098000Y-106954000D02*
X181246000Y-106954000D01*
X181246000Y-106954000D02*
X183172000Y-105028000D01*
X155672000Y-97528000D02*
X157298000Y-95902000D01*
X157298000Y-95902000D02*
X162098405Y-95902000D01*
X162098405Y-95902000D02*
X163672000Y-97475595D01*
X163672000Y-97475595D02*
X163672000Y-105528000D01*
%TO.N,Net-(Q2-G)*%
X171172000Y-91159000D02*
X170688000Y-90675000D01*
X171172000Y-92028000D02*
X171172000Y-91159000D01*
X171672000Y-88170000D02*
X171450000Y-88392000D01*
X171672000Y-88170000D02*
X171672000Y-88028000D01*
X188252000Y-105028000D02*
X188252000Y-103578000D01*
X188252000Y-103578000D02*
X177378000Y-92704000D01*
X177378000Y-92704000D02*
X177378000Y-91561595D01*
X177378000Y-91561595D02*
X176718405Y-90902000D01*
X176718405Y-90902000D02*
X172298000Y-90902000D01*
X172298000Y-90902000D02*
X171172000Y-92028000D01*
%TO.N,Net-(BT1-+)*%
X149672000Y-107762000D02*
X150114000Y-108204000D01*
X149672000Y-107608000D02*
X149672000Y-107762000D01*
%TO.N,Net-(U1-LO)*%
X171672000Y-82948000D02*
X170972000Y-82248000D01*
X161827000Y-82248000D02*
X160357000Y-83718000D01*
X170972000Y-82248000D02*
X161827000Y-82248000D01*
%TO.N,Net-(U1-HO)*%
X180172000Y-92988000D02*
X181138000Y-92022000D01*
X171954826Y-84102000D02*
X168484826Y-87572000D01*
X161583000Y-87572000D02*
X160357000Y-88798000D01*
X181138000Y-92022000D02*
X181138000Y-84491064D01*
X180748936Y-84102000D02*
X171954826Y-84102000D01*
X181138000Y-84491064D02*
X180748936Y-84102000D01*
X168484826Y-87572000D02*
X161583000Y-87572000D01*
%TO.N,Net-(U1-CT)*%
X155672000Y-83028000D02*
X157676000Y-85032000D01*
X157676000Y-85032000D02*
X166751000Y-85032000D01*
X166751000Y-85032000D02*
X167977000Y-86258000D01*
X155672000Y-83028000D02*
X155672000Y-88278000D01*
X155672000Y-88278000D02*
X154422000Y-89528000D01*
%TO.N,Net-(R2-Pad1)*%
X153172000Y-85528000D02*
X150672000Y-83028000D01*
X161632000Y-97028000D02*
X161632000Y-101660405D01*
X161632000Y-101660405D02*
X155138405Y-108154000D01*
X150830826Y-94853000D02*
X153172000Y-92511826D01*
X153172000Y-92511826D02*
X153172000Y-85528000D01*
X155138405Y-108154000D02*
X154205595Y-108154000D01*
X154205595Y-108154000D02*
X146923000Y-100871405D01*
X146923000Y-100871405D02*
X146923000Y-96250347D01*
X146923000Y-96250347D02*
X148320347Y-94853000D01*
X148320347Y-94853000D02*
X150830826Y-94853000D01*
%TO.N,Net-(D2-A)*%
X154672000Y-107028000D02*
X147574000Y-99930000D01*
X147574000Y-99930000D02*
X147574000Y-96520000D01*
X148590000Y-95504000D02*
X153416000Y-95504000D01*
X147574000Y-96520000D02*
X148590000Y-95504000D01*
X153416000Y-95504000D02*
X159004000Y-89916000D01*
X159004000Y-89916000D02*
X159112000Y-90024000D01*
X159112000Y-90024000D02*
X172612000Y-90024000D01*
X172612000Y-90024000D02*
X172974000Y-89662000D01*
X172974000Y-89662000D02*
X173038000Y-89662000D01*
X173038000Y-89662000D02*
X177172000Y-85528000D01*
%TO.N,Net-(BT1-+)*%
X143672000Y-101762000D02*
X143764000Y-101854000D01*
X143672000Y-94028000D02*
X143672000Y-101762000D01*
X143764000Y-101854000D02*
X143918000Y-101854000D01*
X143918000Y-101854000D02*
X149672000Y-107608000D01*
X150172000Y-90278000D02*
X147422000Y-90278000D01*
X147422000Y-90278000D02*
X143672000Y-94028000D01*
X142712000Y-83528000D02*
X143422000Y-83528000D01*
X143422000Y-83528000D02*
X150172000Y-90278000D01*
%TD*%
%TA.AperFunction,Conductor*%
%TO.N,GND*%
G36*
X156522000Y-89580661D02*
G01*
X156549259Y-89682394D01*
X156601920Y-89773606D01*
X156676394Y-89848080D01*
X156767606Y-89900741D01*
X156869339Y-89928000D01*
X156875553Y-89928000D01*
X156196076Y-90607474D01*
X156240650Y-90639859D01*
X156422968Y-90732755D01*
X156617582Y-90795990D01*
X156791943Y-90823606D01*
X156855078Y-90853535D01*
X156892009Y-90912847D01*
X156891011Y-90982709D01*
X156860226Y-91033760D01*
X153151807Y-94742181D01*
X153090484Y-94775666D01*
X153064126Y-94778500D01*
X152230700Y-94778500D01*
X152163661Y-94758815D01*
X152117906Y-94706011D01*
X152107962Y-94636853D01*
X152136987Y-94573297D01*
X152143019Y-94566819D01*
X153735530Y-92974308D01*
X153735532Y-92974306D01*
X153814929Y-92855479D01*
X153869619Y-92723446D01*
X153881259Y-92664929D01*
X153897500Y-92583281D01*
X153897500Y-90895677D01*
X153917185Y-90828638D01*
X153969989Y-90782883D01*
X154039147Y-90772939D01*
X154059815Y-90777745D01*
X154073357Y-90782145D01*
X154117465Y-90796477D01*
X154218557Y-90812488D01*
X154319648Y-90828500D01*
X154319649Y-90828500D01*
X154524351Y-90828500D01*
X154524352Y-90828500D01*
X154726534Y-90796477D01*
X154921219Y-90733220D01*
X155103610Y-90640287D01*
X155196590Y-90572732D01*
X155269213Y-90519971D01*
X155269215Y-90519968D01*
X155269219Y-90519966D01*
X155413966Y-90375219D01*
X155413968Y-90375215D01*
X155413971Y-90375213D01*
X155534286Y-90209611D01*
X155534415Y-90209359D01*
X155561795Y-90155621D01*
X155609769Y-90104826D01*
X155677589Y-90088030D01*
X155743725Y-90110567D01*
X155782765Y-90155621D01*
X155810141Y-90209350D01*
X155810147Y-90209359D01*
X155842523Y-90253921D01*
X155842524Y-90253922D01*
X156522000Y-89574446D01*
X156522000Y-89580661D01*
G37*
%TD.AperFunction*%
%TA.AperFunction,Conductor*%
G36*
X179962000Y-87027999D02*
G01*
X180288500Y-87027999D01*
X180355539Y-87047684D01*
X180401294Y-87100488D01*
X180412500Y-87151999D01*
X180412500Y-91665441D01*
X180392815Y-91732480D01*
X180340011Y-91778235D01*
X180270853Y-91788179D01*
X180269106Y-91787915D01*
X180266485Y-91787500D01*
X180266481Y-91787500D01*
X180077519Y-91787500D01*
X180077514Y-91787500D01*
X179890881Y-91817059D01*
X179711163Y-91875454D01*
X179542800Y-91961240D01*
X179462462Y-92019610D01*
X179389927Y-92072310D01*
X179389925Y-92072312D01*
X179389924Y-92072312D01*
X179256312Y-92205924D01*
X179256312Y-92205925D01*
X179256310Y-92205927D01*
X179208610Y-92271579D01*
X179145240Y-92358800D01*
X179059454Y-92527163D01*
X179001059Y-92706881D01*
X178971500Y-92893513D01*
X178971500Y-92972126D01*
X178951815Y-93039165D01*
X178899011Y-93084920D01*
X178829853Y-93094864D01*
X178766297Y-93065839D01*
X178759819Y-93059807D01*
X178139819Y-92439807D01*
X178106334Y-92378484D01*
X178103500Y-92352126D01*
X178103500Y-91490137D01*
X178075620Y-91349980D01*
X178075619Y-91349979D01*
X178075619Y-91349975D01*
X178020929Y-91217942D01*
X178020928Y-91217941D01*
X178020925Y-91217935D01*
X177963850Y-91132517D01*
X177963850Y-91132516D01*
X177941533Y-91099116D01*
X177941527Y-91099109D01*
X177180887Y-90338469D01*
X177121471Y-90298769D01*
X177062058Y-90259071D01*
X177049627Y-90253922D01*
X176930025Y-90204381D01*
X176930019Y-90204379D01*
X176789862Y-90176500D01*
X176789860Y-90176500D01*
X173848874Y-90176500D01*
X173781835Y-90156815D01*
X173736080Y-90104011D01*
X173726136Y-90034853D01*
X173755161Y-89971297D01*
X173761193Y-89964819D01*
X174480066Y-89245946D01*
X176702039Y-87023971D01*
X176763360Y-86990488D01*
X176815778Y-86991050D01*
X176815820Y-86990791D01*
X176817583Y-86991070D01*
X176818674Y-86991082D01*
X176820612Y-86991546D01*
X176820632Y-86991553D01*
X176927430Y-87008468D01*
X177053903Y-87028500D01*
X177053908Y-87028500D01*
X177290097Y-87028500D01*
X177523368Y-86991553D01*
X177588408Y-86970420D01*
X177747992Y-86918568D01*
X177958433Y-86811343D01*
X178149510Y-86672517D01*
X178149516Y-86672511D01*
X178153221Y-86669348D01*
X178154662Y-86671035D01*
X178207848Y-86641933D01*
X178277544Y-86646856D01*
X178333514Y-86688678D01*
X178339852Y-86697980D01*
X178369682Y-86746343D01*
X178493654Y-86870315D01*
X178642875Y-86962356D01*
X178642880Y-86962358D01*
X178809302Y-87017505D01*
X178809309Y-87017506D01*
X178912019Y-87027999D01*
X179461999Y-87027999D01*
X179462000Y-87027998D01*
X179462000Y-86076482D01*
X179480409Y-86087111D01*
X179633009Y-86128000D01*
X179790991Y-86128000D01*
X179943591Y-86087111D01*
X179962000Y-86076482D01*
X179962000Y-87027999D01*
G37*
%TD.AperFunction*%
%TA.AperFunction,Conductor*%
G36*
X156602703Y-84985161D02*
G01*
X156609181Y-84991193D01*
X157213516Y-85595529D01*
X157213524Y-85595535D01*
X157289188Y-85646092D01*
X157289189Y-85646092D01*
X157332347Y-85674929D01*
X157464380Y-85729619D01*
X157464384Y-85729619D01*
X157464385Y-85729620D01*
X157604542Y-85757500D01*
X157604545Y-85757500D01*
X158982049Y-85757500D01*
X159049088Y-85777185D01*
X159094843Y-85829989D01*
X159104787Y-85899147D01*
X159099980Y-85919817D01*
X159089011Y-85953574D01*
X159089010Y-85953581D01*
X159057000Y-86155682D01*
X159057000Y-86360317D01*
X159089009Y-86562417D01*
X159152244Y-86757031D01*
X159245141Y-86939350D01*
X159245147Y-86939359D01*
X159277523Y-86983921D01*
X159277524Y-86983922D01*
X159957000Y-86304446D01*
X159957000Y-86310661D01*
X159984259Y-86412394D01*
X160036920Y-86503606D01*
X160111394Y-86578080D01*
X160202606Y-86630741D01*
X160304339Y-86658000D01*
X160310552Y-86658000D01*
X159631076Y-87337474D01*
X159675652Y-87369861D01*
X159768628Y-87417234D01*
X159819425Y-87465208D01*
X159836220Y-87533029D01*
X159813683Y-87599164D01*
X159768630Y-87638203D01*
X159675388Y-87685713D01*
X159509786Y-87806028D01*
X159365028Y-87950786D01*
X159244715Y-88116386D01*
X159151781Y-88298776D01*
X159088522Y-88493465D01*
X159056500Y-88695648D01*
X159056500Y-88900351D01*
X159079743Y-89047103D01*
X159070788Y-89116397D01*
X159025792Y-89169849D01*
X158959040Y-89190488D01*
X158957270Y-89190501D01*
X158932539Y-89190501D01*
X158792387Y-89218379D01*
X158792379Y-89218381D01*
X158660347Y-89273070D01*
X158541518Y-89352469D01*
X158427760Y-89466227D01*
X158366437Y-89499711D01*
X158296745Y-89494727D01*
X158240812Y-89452855D01*
X158217606Y-89397943D01*
X158189990Y-89223582D01*
X158126755Y-89028968D01*
X158033859Y-88846650D01*
X158001474Y-88802077D01*
X158001474Y-88802076D01*
X157322000Y-89481553D01*
X157322000Y-89475339D01*
X157294741Y-89373606D01*
X157242080Y-89282394D01*
X157167606Y-89207920D01*
X157076394Y-89155259D01*
X156974661Y-89128000D01*
X156968446Y-89128000D01*
X157647922Y-88448524D01*
X157647921Y-88448523D01*
X157603359Y-88416147D01*
X157603350Y-88416141D01*
X157421031Y-88323244D01*
X157226417Y-88260009D01*
X157024317Y-88228000D01*
X156819683Y-88228000D01*
X156617581Y-88260010D01*
X156617578Y-88260010D01*
X156559818Y-88278778D01*
X156489976Y-88280773D01*
X156430144Y-88244692D01*
X156399316Y-88181991D01*
X156397500Y-88160847D01*
X156397500Y-85078874D01*
X156417185Y-85011835D01*
X156469989Y-84966080D01*
X156539147Y-84956136D01*
X156602703Y-84985161D01*
G37*
%TD.AperFunction*%
%TA.AperFunction,Conductor*%
G36*
X170387372Y-82983103D02*
G01*
X170420211Y-82992238D01*
X170420824Y-82992925D01*
X170421707Y-82993185D01*
X170444005Y-83018919D01*
X170466715Y-83044383D01*
X170467072Y-83045539D01*
X170467462Y-83045989D01*
X170477141Y-83078102D01*
X170501059Y-83229118D01*
X170559454Y-83408836D01*
X170625506Y-83538469D01*
X170645240Y-83577199D01*
X170756310Y-83730073D01*
X170889927Y-83863690D01*
X170914762Y-83881734D01*
X170933019Y-83894998D01*
X170975685Y-83950328D01*
X170981664Y-84019941D01*
X170949059Y-84081736D01*
X170947815Y-84082997D01*
X169333218Y-85697594D01*
X169271895Y-85731079D01*
X169202203Y-85726095D01*
X169146270Y-85684223D01*
X169135052Y-85666208D01*
X169117183Y-85631139D01*
X169089287Y-85576390D01*
X169068432Y-85547685D01*
X168968971Y-85410786D01*
X168824213Y-85266028D01*
X168658611Y-85145713D01*
X168565369Y-85098203D01*
X168514574Y-85050229D01*
X168497779Y-84982407D01*
X168520317Y-84916273D01*
X168565371Y-84877234D01*
X168658346Y-84829861D01*
X168658347Y-84829861D01*
X168702921Y-84797474D01*
X168023447Y-84118000D01*
X168029661Y-84118000D01*
X168131394Y-84090741D01*
X168222606Y-84038080D01*
X168297080Y-83963606D01*
X168349741Y-83872394D01*
X168377000Y-83770661D01*
X168377000Y-83764447D01*
X169056474Y-84443921D01*
X169088859Y-84399349D01*
X169181755Y-84217031D01*
X169244990Y-84022417D01*
X169277000Y-83820317D01*
X169277000Y-83615682D01*
X169244990Y-83413582D01*
X169181755Y-83218968D01*
X169148547Y-83153795D01*
X169135651Y-83085126D01*
X169161927Y-83020386D01*
X169219033Y-82980128D01*
X169259032Y-82973500D01*
X170354668Y-82973500D01*
X170387372Y-82983103D01*
G37*
%TD.AperFunction*%
%TA.AperFunction,Conductor*%
G36*
X194760591Y-78759931D02*
G01*
X194806572Y-78812538D01*
X194818000Y-78864533D01*
X194818000Y-112651464D01*
X194798315Y-112718503D01*
X194745511Y-112764258D01*
X194693466Y-112775463D01*
X136012533Y-112522528D01*
X135945579Y-112502555D01*
X135900052Y-112449554D01*
X135889071Y-112399471D01*
X135828604Y-104417778D01*
X139771500Y-104417778D01*
X139771500Y-104638222D01*
X139778031Y-104679455D01*
X139805985Y-104855952D01*
X139874103Y-105065603D01*
X139874104Y-105065606D01*
X139974187Y-105262025D01*
X140103752Y-105440358D01*
X140103756Y-105440363D01*
X140259636Y-105596243D01*
X140259641Y-105596247D01*
X140415192Y-105709260D01*
X140437978Y-105725815D01*
X140566375Y-105791237D01*
X140634393Y-105825895D01*
X140634396Y-105825896D01*
X140730308Y-105857059D01*
X140844049Y-105894015D01*
X141061778Y-105928500D01*
X141061779Y-105928500D01*
X141282221Y-105928500D01*
X141282222Y-105928500D01*
X141499951Y-105894015D01*
X141709606Y-105825895D01*
X141906022Y-105725815D01*
X142084365Y-105596242D01*
X142134536Y-105546070D01*
X142195857Y-105512586D01*
X142265548Y-105517570D01*
X142321482Y-105559441D01*
X142338398Y-105590419D01*
X142368202Y-105670328D01*
X142368206Y-105670335D01*
X142454452Y-105785544D01*
X142454455Y-105785547D01*
X142569664Y-105871793D01*
X142569671Y-105871797D01*
X142704517Y-105922091D01*
X142704516Y-105922091D01*
X142711444Y-105922835D01*
X142764127Y-105928500D01*
X144659872Y-105928499D01*
X144719483Y-105922091D01*
X144854331Y-105871796D01*
X144969546Y-105785546D01*
X145055796Y-105670331D01*
X145106091Y-105535483D01*
X145112500Y-105475873D01*
X145112499Y-104373872D01*
X145132184Y-104306834D01*
X145184987Y-104261079D01*
X145254146Y-104251135D01*
X145317702Y-104280160D01*
X145324180Y-104286192D01*
X148096488Y-107058500D01*
X148129973Y-107119823D01*
X148126738Y-107184498D01*
X148110910Y-107233211D01*
X148071500Y-107482038D01*
X148071500Y-107733961D01*
X148110910Y-107982785D01*
X148188760Y-108222383D01*
X148303132Y-108446848D01*
X148451201Y-108650649D01*
X148451205Y-108650654D01*
X148629345Y-108828794D01*
X148629350Y-108828798D01*
X148699136Y-108879500D01*
X148833155Y-108976870D01*
X148976184Y-109049747D01*
X149057616Y-109091239D01*
X149057618Y-109091239D01*
X149057621Y-109091241D01*
X149297215Y-109169090D01*
X149546038Y-109208500D01*
X149546039Y-109208500D01*
X149797961Y-109208500D01*
X149797962Y-109208500D01*
X150046785Y-109169090D01*
X150286379Y-109091241D01*
X150510845Y-108976870D01*
X150714656Y-108828793D01*
X150892793Y-108650656D01*
X151040870Y-108446845D01*
X151155241Y-108222379D01*
X151233090Y-107982785D01*
X151272500Y-107733962D01*
X151272500Y-107482038D01*
X151233090Y-107233215D01*
X151155241Y-106993621D01*
X151155239Y-106993618D01*
X151155239Y-106993616D01*
X151113747Y-106912184D01*
X151040870Y-106769155D01*
X151010914Y-106727924D01*
X150892798Y-106565350D01*
X150892794Y-106565345D01*
X150714654Y-106387205D01*
X150714649Y-106387201D01*
X150510848Y-106239132D01*
X150510847Y-106239131D01*
X150510845Y-106239130D01*
X150440747Y-106203413D01*
X150286383Y-106124760D01*
X150046785Y-106046910D01*
X149797962Y-106007500D01*
X149546038Y-106007500D01*
X149496273Y-106015382D01*
X149297211Y-106046910D01*
X149248498Y-106062738D01*
X149178657Y-106064733D01*
X149122500Y-106032488D01*
X144433819Y-101343807D01*
X144400334Y-101282484D01*
X144397500Y-101256126D01*
X144397500Y-95400016D01*
X144417185Y-95332977D01*
X144469989Y-95287222D01*
X144482488Y-95282313D01*
X144541334Y-95262814D01*
X144690656Y-95170712D01*
X144814712Y-95046656D01*
X144906814Y-94897334D01*
X144961999Y-94730797D01*
X144972500Y-94628009D01*
X144972499Y-93804872D01*
X144992183Y-93737834D01*
X145008813Y-93717197D01*
X147686193Y-91039819D01*
X147747516Y-91006334D01*
X147773874Y-91003500D01*
X149028419Y-91003500D01*
X149095458Y-91023185D01*
X149128737Y-91054615D01*
X149180030Y-91125215D01*
X149324786Y-91269971D01*
X149490385Y-91390284D01*
X149490387Y-91390285D01*
X149490390Y-91390287D01*
X149544378Y-91417795D01*
X149595174Y-91465769D01*
X149611969Y-91533590D01*
X149589432Y-91599725D01*
X149544378Y-91638765D01*
X149490644Y-91666143D01*
X149446077Y-91698523D01*
X149446077Y-91698524D01*
X150125554Y-92378000D01*
X150119339Y-92378000D01*
X150017606Y-92405259D01*
X149926394Y-92457920D01*
X149851920Y-92532394D01*
X149799259Y-92623606D01*
X149772000Y-92725339D01*
X149772000Y-92731553D01*
X149092524Y-92052077D01*
X149092523Y-92052077D01*
X149060143Y-92096644D01*
X148967244Y-92278968D01*
X148904009Y-92473582D01*
X148872000Y-92675682D01*
X148872000Y-92880317D01*
X148904009Y-93082417D01*
X148967244Y-93277031D01*
X149060141Y-93459350D01*
X149060147Y-93459359D01*
X149092523Y-93503921D01*
X149092524Y-93503922D01*
X149772000Y-92824446D01*
X149772000Y-92830661D01*
X149799259Y-92932394D01*
X149851920Y-93023606D01*
X149926394Y-93098080D01*
X150017606Y-93150741D01*
X150119339Y-93178000D01*
X150125553Y-93178000D01*
X149446076Y-93857474D01*
X149490653Y-93889861D01*
X149496844Y-93893016D01*
X149547640Y-93940991D01*
X149564434Y-94008812D01*
X149541896Y-94074947D01*
X149487180Y-94118398D01*
X149440548Y-94127500D01*
X148248890Y-94127500D01*
X148108732Y-94155379D01*
X148108726Y-94155381D01*
X147976695Y-94210070D01*
X147857864Y-94289469D01*
X146359467Y-95787866D01*
X146299863Y-95877072D01*
X146280071Y-95906692D01*
X146225381Y-96038726D01*
X146225379Y-96038732D01*
X146197500Y-96178889D01*
X146197500Y-96178892D01*
X146197500Y-100942860D01*
X146197500Y-100942862D01*
X146197499Y-100942862D01*
X146225379Y-101083019D01*
X146225381Y-101083025D01*
X146280070Y-101215056D01*
X146359469Y-101333887D01*
X153743110Y-108717528D01*
X153743117Y-108717534D01*
X153861939Y-108796928D01*
X153900611Y-108812946D01*
X153993975Y-108851619D01*
X153993979Y-108851619D01*
X153993980Y-108851620D01*
X154134137Y-108879500D01*
X154134140Y-108879500D01*
X155209862Y-108879500D01*
X155304156Y-108860742D01*
X155350025Y-108851619D01*
X155482058Y-108796929D01*
X155526054Y-108767532D01*
X155600885Y-108717532D01*
X157085206Y-107233211D01*
X158665162Y-105653256D01*
X159091036Y-105227382D01*
X162195529Y-102122888D01*
X162195530Y-102122887D01*
X162195532Y-102122885D01*
X162274929Y-102004058D01*
X162329619Y-101872025D01*
X162337291Y-101833455D01*
X162352357Y-101757715D01*
X162357500Y-101731862D01*
X162357500Y-98047973D01*
X162377185Y-97980934D01*
X162408617Y-97947653D01*
X162414073Y-97943690D01*
X162547690Y-97810073D01*
X162658760Y-97657199D01*
X162744547Y-97488832D01*
X162802940Y-97309118D01*
X162815788Y-97228000D01*
X162832500Y-97122486D01*
X162832500Y-96933513D01*
X162802940Y-96746881D01*
X162752521Y-96591709D01*
X162744547Y-96567168D01*
X162744545Y-96567165D01*
X162744545Y-96567163D01*
X162691718Y-96463485D01*
X162658760Y-96398801D01*
X162547690Y-96245927D01*
X162414073Y-96112310D01*
X162261199Y-96001240D01*
X162092836Y-95915454D01*
X161913118Y-95857059D01*
X161726486Y-95827500D01*
X161726481Y-95827500D01*
X161537519Y-95827500D01*
X161537514Y-95827500D01*
X161350881Y-95857059D01*
X161171163Y-95915454D01*
X161002800Y-96001240D01*
X160951198Y-96038732D01*
X160849927Y-96112310D01*
X160849925Y-96112312D01*
X160849924Y-96112312D01*
X160716312Y-96245924D01*
X160716312Y-96245925D01*
X160716310Y-96245927D01*
X160682100Y-96293013D01*
X160605240Y-96398800D01*
X160519454Y-96567163D01*
X160461059Y-96746881D01*
X160431500Y-96933513D01*
X160431500Y-97122486D01*
X160461059Y-97309118D01*
X160519454Y-97488836D01*
X160559534Y-97567496D01*
X160605240Y-97657199D01*
X160716310Y-97810073D01*
X160849927Y-97943690D01*
X160855381Y-97947652D01*
X160898049Y-98002979D01*
X160906500Y-98047973D01*
X160906500Y-101308530D01*
X160886815Y-101375569D01*
X160870181Y-101396211D01*
X155872466Y-106393925D01*
X155811143Y-106427410D01*
X155741451Y-106422426D01*
X155685518Y-106380554D01*
X155684467Y-106379129D01*
X155605423Y-106270335D01*
X155587690Y-106245927D01*
X155454073Y-106112310D01*
X155301199Y-106001240D01*
X155236178Y-105968110D01*
X155132836Y-105915454D01*
X154953118Y-105857059D01*
X154766486Y-105827500D01*
X154766481Y-105827500D01*
X154577519Y-105827500D01*
X154577516Y-105827500D01*
X154570855Y-105828555D01*
X154501561Y-105819601D01*
X154463775Y-105793763D01*
X150523525Y-101853513D01*
X153471500Y-101853513D01*
X153471500Y-102042486D01*
X153501059Y-102229118D01*
X153559454Y-102408836D01*
X153632206Y-102551619D01*
X153645240Y-102577199D01*
X153756310Y-102730073D01*
X153889927Y-102863690D01*
X154042801Y-102974760D01*
X154122347Y-103015290D01*
X154211163Y-103060545D01*
X154211165Y-103060545D01*
X154211168Y-103060547D01*
X154307497Y-103091846D01*
X154390881Y-103118940D01*
X154577514Y-103148500D01*
X154577519Y-103148500D01*
X154766486Y-103148500D01*
X154953118Y-103118940D01*
X155132832Y-103060547D01*
X155301199Y-102974760D01*
X155454073Y-102863690D01*
X155587690Y-102730073D01*
X155698760Y-102577199D01*
X155784547Y-102408832D01*
X155842940Y-102229118D01*
X155859765Y-102122888D01*
X155872500Y-102042486D01*
X155872500Y-101853513D01*
X155842940Y-101666881D01*
X155784545Y-101487163D01*
X155711501Y-101343807D01*
X155698760Y-101318801D01*
X155587690Y-101165927D01*
X155454073Y-101032310D01*
X155301199Y-100921240D01*
X155132836Y-100835454D01*
X154953118Y-100777059D01*
X154766486Y-100747500D01*
X154766481Y-100747500D01*
X154577519Y-100747500D01*
X154577514Y-100747500D01*
X154390881Y-100777059D01*
X154211163Y-100835454D01*
X154042800Y-100921240D01*
X153955579Y-100984610D01*
X153889927Y-101032310D01*
X153889925Y-101032312D01*
X153889924Y-101032312D01*
X153756312Y-101165924D01*
X153756312Y-101165925D01*
X153756310Y-101165927D01*
X153720616Y-101215056D01*
X153645240Y-101318800D01*
X153559454Y-101487163D01*
X153501059Y-101666881D01*
X153471500Y-101853513D01*
X150523525Y-101853513D01*
X148335819Y-99665807D01*
X148302334Y-99604484D01*
X148299500Y-99578126D01*
X148299500Y-99079675D01*
X148319185Y-99012636D01*
X148371989Y-98966881D01*
X148441147Y-98956937D01*
X148488596Y-98974136D01*
X148502665Y-98982814D01*
X148669202Y-99037999D01*
X148771990Y-99048500D01*
X148771995Y-99048500D01*
X150572005Y-99048500D01*
X150572010Y-99048500D01*
X150674798Y-99037999D01*
X150841335Y-98982814D01*
X150990656Y-98890712D01*
X151114712Y-98766656D01*
X151206814Y-98617335D01*
X151257529Y-98464289D01*
X155089261Y-98464289D01*
X155089262Y-98464290D01*
X155095471Y-98468801D01*
X155249742Y-98547408D01*
X155414415Y-98600914D01*
X155585429Y-98628000D01*
X155758571Y-98628000D01*
X155929584Y-98600914D01*
X156094257Y-98547408D01*
X156248525Y-98468803D01*
X156254736Y-98464289D01*
X156254737Y-98464289D01*
X155672001Y-97881553D01*
X155672000Y-97881553D01*
X155089261Y-98464289D01*
X151257529Y-98464289D01*
X151261999Y-98450798D01*
X151272500Y-98348010D01*
X151272500Y-97441428D01*
X154572000Y-97441428D01*
X154572000Y-97614571D01*
X154599085Y-97785584D01*
X154652592Y-97950259D01*
X154731196Y-98104525D01*
X154735709Y-98110736D01*
X154735709Y-98110737D01*
X155318446Y-97528001D01*
X155318446Y-97527999D01*
X155278951Y-97488504D01*
X155372000Y-97488504D01*
X155372000Y-97567496D01*
X155392444Y-97643796D01*
X155431940Y-97712205D01*
X155487795Y-97768060D01*
X155556204Y-97807556D01*
X155632504Y-97828000D01*
X155711496Y-97828000D01*
X155787796Y-97807556D01*
X155856205Y-97768060D01*
X155912060Y-97712205D01*
X155951556Y-97643796D01*
X155972000Y-97567496D01*
X155972000Y-97527999D01*
X156025553Y-97527999D01*
X156025553Y-97528000D01*
X156608289Y-98110736D01*
X156659007Y-98106747D01*
X156727384Y-98121113D01*
X156769049Y-98157479D01*
X156820650Y-98228500D01*
X156832586Y-98244928D01*
X156955072Y-98367414D01*
X157095212Y-98469232D01*
X157249555Y-98547873D01*
X157414299Y-98601402D01*
X157585389Y-98628500D01*
X157585390Y-98628500D01*
X157758610Y-98628500D01*
X157758611Y-98628500D01*
X157929701Y-98601402D01*
X158094445Y-98547873D01*
X158248788Y-98469232D01*
X158388928Y-98367414D01*
X158511414Y-98244928D01*
X158613232Y-98104788D01*
X158691873Y-97950445D01*
X158745402Y-97785701D01*
X158772500Y-97614611D01*
X158772500Y-97441389D01*
X158745402Y-97270299D01*
X158691873Y-97105555D01*
X158613232Y-96951212D01*
X158511414Y-96811072D01*
X158388928Y-96688586D01*
X158248788Y-96586768D01*
X158094447Y-96508128D01*
X158094446Y-96508127D01*
X158094445Y-96508127D01*
X157929701Y-96454598D01*
X157929699Y-96454597D01*
X157929698Y-96454597D01*
X157798271Y-96433781D01*
X157758611Y-96427500D01*
X157585389Y-96427500D01*
X157545728Y-96433781D01*
X157414302Y-96454597D01*
X157249552Y-96508128D01*
X157095211Y-96586768D01*
X157035038Y-96630487D01*
X156955072Y-96688586D01*
X156955070Y-96688588D01*
X156955069Y-96688588D01*
X156832588Y-96811069D01*
X156832581Y-96811078D01*
X156769049Y-96898521D01*
X156713719Y-96941187D01*
X156659003Y-96949253D01*
X156608289Y-96945261D01*
X156025553Y-97527999D01*
X155972000Y-97527999D01*
X155972000Y-97488504D01*
X155951556Y-97412204D01*
X155912060Y-97343795D01*
X155856205Y-97287940D01*
X155787796Y-97248444D01*
X155711496Y-97228000D01*
X155632504Y-97228000D01*
X155556204Y-97248444D01*
X155487795Y-97287940D01*
X155431940Y-97343795D01*
X155392444Y-97412204D01*
X155372000Y-97488504D01*
X155278951Y-97488504D01*
X154735709Y-96945261D01*
X154735708Y-96945261D01*
X154731203Y-96951463D01*
X154731193Y-96951480D01*
X154652592Y-97105740D01*
X154599085Y-97270415D01*
X154572000Y-97441428D01*
X151272500Y-97441428D01*
X151272500Y-96591708D01*
X155089261Y-96591708D01*
X155089261Y-96591709D01*
X155672000Y-97174446D01*
X155672001Y-97174446D01*
X156254737Y-96591709D01*
X156248525Y-96587196D01*
X156094259Y-96508592D01*
X155929584Y-96455085D01*
X155758571Y-96428000D01*
X155585429Y-96428000D01*
X155414415Y-96455085D01*
X155249740Y-96508592D01*
X155095480Y-96587193D01*
X155095463Y-96587203D01*
X155089261Y-96591708D01*
X151272500Y-96591708D01*
X151272500Y-96547990D01*
X151261999Y-96445202D01*
X151244535Y-96392502D01*
X151242134Y-96322676D01*
X151277866Y-96262634D01*
X151340386Y-96231441D01*
X151362242Y-96229500D01*
X153487457Y-96229500D01*
X153581751Y-96210742D01*
X153627620Y-96201619D01*
X153759653Y-96146929D01*
X153848037Y-96087873D01*
X153878480Y-96067532D01*
X158851787Y-91094224D01*
X158913108Y-91060741D01*
X158982800Y-91065725D01*
X159038733Y-91107597D01*
X159063150Y-91173061D01*
X159061940Y-91201301D01*
X159056500Y-91235648D01*
X159056500Y-91235652D01*
X159056500Y-91440351D01*
X159088522Y-91642534D01*
X159151781Y-91837223D01*
X159244715Y-92019613D01*
X159365028Y-92185213D01*
X159509786Y-92329971D01*
X159660965Y-92439807D01*
X159675390Y-92450287D01*
X159751039Y-92488832D01*
X159857776Y-92543218D01*
X159857778Y-92543218D01*
X159857781Y-92543220D01*
X159962137Y-92577127D01*
X160052465Y-92606477D01*
X160153557Y-92622488D01*
X160254648Y-92638500D01*
X160254649Y-92638500D01*
X160459351Y-92638500D01*
X160459352Y-92638500D01*
X160661534Y-92606477D01*
X160856219Y-92543220D01*
X161038610Y-92450287D01*
X161155100Y-92365653D01*
X161204213Y-92329971D01*
X161204215Y-92329968D01*
X161204219Y-92329966D01*
X161348966Y-92185219D01*
X161348968Y-92185215D01*
X161348971Y-92185213D01*
X161401732Y-92112590D01*
X161469287Y-92019610D01*
X161562220Y-91837219D01*
X161625477Y-91642534D01*
X161657500Y-91440352D01*
X161657500Y-91235648D01*
X161654696Y-91217942D01*
X161625477Y-91033465D01*
X161601480Y-90959610D01*
X161585950Y-90911817D01*
X161583956Y-90841978D01*
X161620036Y-90782145D01*
X161682737Y-90751316D01*
X161703882Y-90749500D01*
X166552500Y-90749500D01*
X166619539Y-90769185D01*
X166665294Y-90821989D01*
X166676500Y-90873500D01*
X166676500Y-91938001D01*
X166676501Y-91938018D01*
X166687000Y-92040796D01*
X166687001Y-92040799D01*
X166714068Y-92122481D01*
X166742186Y-92207334D01*
X166834288Y-92356656D01*
X166958344Y-92480712D01*
X167107666Y-92572814D01*
X167274203Y-92627999D01*
X167376991Y-92638500D01*
X168577008Y-92638499D01*
X168679797Y-92627999D01*
X168846334Y-92572814D01*
X168995656Y-92480712D01*
X168995660Y-92480707D01*
X168999583Y-92477606D01*
X169064376Y-92451461D01*
X169133019Y-92464497D01*
X169183718Y-92512574D01*
X169200500Y-92574867D01*
X169200500Y-93462125D01*
X169180815Y-93529164D01*
X169164181Y-93549806D01*
X166920224Y-95793762D01*
X166858901Y-95827247D01*
X166813152Y-95828555D01*
X166806489Y-95827500D01*
X166806481Y-95827500D01*
X166617519Y-95827500D01*
X166617514Y-95827500D01*
X166430881Y-95857059D01*
X166251163Y-95915454D01*
X166082800Y-96001240D01*
X166031198Y-96038732D01*
X165929927Y-96112310D01*
X165929925Y-96112312D01*
X165929924Y-96112312D01*
X165796312Y-96245924D01*
X165796312Y-96245925D01*
X165796310Y-96245927D01*
X165762100Y-96293013D01*
X165685240Y-96398800D01*
X165599454Y-96567163D01*
X165541059Y-96746881D01*
X165511500Y-96933513D01*
X165511500Y-97122486D01*
X165541059Y-97309118D01*
X165599454Y-97488836D01*
X165639534Y-97567496D01*
X165685240Y-97657199D01*
X165796310Y-97810073D01*
X165929927Y-97943690D01*
X166082801Y-98054760D01*
X166162347Y-98095290D01*
X166251163Y-98140545D01*
X166251165Y-98140545D01*
X166251168Y-98140547D01*
X166318689Y-98162486D01*
X166430881Y-98198940D01*
X166617514Y-98228500D01*
X166617519Y-98228500D01*
X166806486Y-98228500D01*
X166993118Y-98198940D01*
X167172832Y-98140547D01*
X167341199Y-98054760D01*
X167494073Y-97943690D01*
X167627690Y-97810073D01*
X167738760Y-97657199D01*
X167824547Y-97488832D01*
X167882940Y-97309118D01*
X167895788Y-97228000D01*
X167912500Y-97122486D01*
X167912500Y-96933521D01*
X167911444Y-96926855D01*
X167920398Y-96857562D01*
X167946233Y-96819777D01*
X168380473Y-96385537D01*
X168441794Y-96352054D01*
X168511486Y-96357038D01*
X168567419Y-96398910D01*
X168591836Y-96464374D01*
X168578638Y-96529513D01*
X168559455Y-96567163D01*
X168559454Y-96567165D01*
X168559453Y-96567168D01*
X168551479Y-96591709D01*
X168501059Y-96746881D01*
X168471500Y-96933513D01*
X168471500Y-97122486D01*
X168501059Y-97309118D01*
X168559454Y-97488836D01*
X168599534Y-97567496D01*
X168645240Y-97657199D01*
X168756310Y-97810073D01*
X168889927Y-97943690D01*
X168895381Y-97947652D01*
X168938049Y-98002979D01*
X168946500Y-98047973D01*
X168946500Y-103903500D01*
X168926815Y-103970539D01*
X168874011Y-104016294D01*
X168822500Y-104027500D01*
X167751629Y-104027500D01*
X167751623Y-104027501D01*
X167692016Y-104033908D01*
X167557171Y-104084202D01*
X167557164Y-104084206D01*
X167441955Y-104170452D01*
X167441952Y-104170455D01*
X167355706Y-104285664D01*
X167355703Y-104285670D01*
X167345308Y-104313541D01*
X167303436Y-104369474D01*
X167237972Y-104393891D01*
X167169699Y-104379039D01*
X167156250Y-104370531D01*
X166973538Y-104237783D01*
X166841488Y-104170500D01*
X166769755Y-104133950D01*
X166552248Y-104063278D01*
X166369053Y-104034263D01*
X166326354Y-104027500D01*
X166097646Y-104027500D01*
X166054947Y-104034263D01*
X165871753Y-104063278D01*
X165871750Y-104063278D01*
X165654244Y-104133950D01*
X165450461Y-104237783D01*
X165384551Y-104285670D01*
X165265434Y-104372214D01*
X165265432Y-104372216D01*
X165265431Y-104372216D01*
X165103716Y-104533931D01*
X165103709Y-104533940D01*
X165042007Y-104618864D01*
X164986677Y-104661530D01*
X164917063Y-104667508D01*
X164855269Y-104634901D01*
X164841372Y-104618863D01*
X164779907Y-104534263D01*
X164779902Y-104534257D01*
X164618242Y-104372597D01*
X164433276Y-104238211D01*
X164229568Y-104134417D01*
X164012124Y-104063765D01*
X163922000Y-104049490D01*
X163922000Y-105037252D01*
X163884292Y-105015482D01*
X163744409Y-104978000D01*
X163599591Y-104978000D01*
X163459708Y-105015482D01*
X163422000Y-105037252D01*
X163422000Y-104049490D01*
X163421999Y-104049490D01*
X163331875Y-104063765D01*
X163114431Y-104134417D01*
X162910723Y-104238211D01*
X162725757Y-104372597D01*
X162564097Y-104534257D01*
X162429711Y-104719223D01*
X162325917Y-104922929D01*
X162255265Y-105140371D01*
X162233468Y-105278000D01*
X163181252Y-105278000D01*
X163159482Y-105315708D01*
X163122000Y-105455591D01*
X163122000Y-105600409D01*
X163159482Y-105740292D01*
X163181252Y-105778000D01*
X162233468Y-105778000D01*
X162255265Y-105915628D01*
X162325917Y-106133070D01*
X162429711Y-106336776D01*
X162564097Y-106521742D01*
X162725757Y-106683402D01*
X162910723Y-106817788D01*
X163114429Y-106921582D01*
X163331871Y-106992234D01*
X163422000Y-107006509D01*
X163422000Y-106018747D01*
X163459708Y-106040518D01*
X163599591Y-106078000D01*
X163744409Y-106078000D01*
X163884292Y-106040518D01*
X163922000Y-106018747D01*
X163922000Y-107006508D01*
X164012128Y-106992234D01*
X164229570Y-106921582D01*
X164433276Y-106817788D01*
X164618242Y-106683402D01*
X164779905Y-106521739D01*
X164841371Y-106437137D01*
X164896701Y-106394470D01*
X164966314Y-106388491D01*
X165028109Y-106421096D01*
X165042007Y-106437134D01*
X165103714Y-106522066D01*
X165265434Y-106683786D01*
X165450462Y-106818217D01*
X165582599Y-106885544D01*
X165654244Y-106922049D01*
X165871751Y-106992721D01*
X165871752Y-106992721D01*
X165871755Y-106992722D01*
X166097646Y-107028500D01*
X166097647Y-107028500D01*
X166326353Y-107028500D01*
X166326354Y-107028500D01*
X166552245Y-106992722D01*
X166552248Y-106992721D01*
X166552249Y-106992721D01*
X166769755Y-106922049D01*
X166769755Y-106922048D01*
X166769758Y-106922048D01*
X166973538Y-106818217D01*
X167156245Y-106685472D01*
X167222046Y-106661994D01*
X167290100Y-106677819D01*
X167338795Y-106727924D01*
X167345308Y-106742459D01*
X167355702Y-106770328D01*
X167355706Y-106770335D01*
X167441952Y-106885544D01*
X167441955Y-106885547D01*
X167557164Y-106971793D01*
X167557171Y-106971797D01*
X167692017Y-107022091D01*
X167692016Y-107022091D01*
X167698944Y-107022835D01*
X167751627Y-107028500D01*
X169752372Y-107028499D01*
X169811983Y-107022091D01*
X169946831Y-106971796D01*
X170062046Y-106885546D01*
X170148296Y-106770331D01*
X170198591Y-106635483D01*
X170205000Y-106575873D01*
X170204999Y-105152051D01*
X170224684Y-105085013D01*
X170233150Y-105073382D01*
X170235534Y-105070477D01*
X170312298Y-104955591D01*
X170314929Y-104951654D01*
X170350347Y-104866146D01*
X170369619Y-104819620D01*
X170389590Y-104719223D01*
X170397500Y-104679457D01*
X170397500Y-102767648D01*
X174975500Y-102767648D01*
X174975500Y-102972352D01*
X174976259Y-102977142D01*
X175007522Y-103174534D01*
X175070781Y-103369223D01*
X175114493Y-103455011D01*
X175160819Y-103545931D01*
X175163715Y-103551613D01*
X175284028Y-103717213D01*
X175428786Y-103861971D01*
X175578220Y-103970539D01*
X175594390Y-103982287D01*
X175710607Y-104041503D01*
X175776776Y-104075218D01*
X175776778Y-104075218D01*
X175776781Y-104075220D01*
X175881137Y-104109127D01*
X175971465Y-104138477D01*
X176072557Y-104154488D01*
X176173648Y-104170500D01*
X176173649Y-104170500D01*
X176378351Y-104170500D01*
X176378352Y-104170500D01*
X176580534Y-104138477D01*
X176775219Y-104075220D01*
X176776611Y-104074511D01*
X176779827Y-104072872D01*
X176957610Y-103982287D01*
X177108587Y-103872597D01*
X177123213Y-103861971D01*
X177123215Y-103861968D01*
X177123219Y-103861966D01*
X177267966Y-103717219D01*
X177267968Y-103717215D01*
X177267971Y-103717213D01*
X177328125Y-103634417D01*
X177388287Y-103551610D01*
X177481220Y-103369219D01*
X177544477Y-103174534D01*
X177576500Y-102972352D01*
X177576500Y-102767648D01*
X177547961Y-102587460D01*
X177544477Y-102565465D01*
X177515127Y-102475137D01*
X177481220Y-102370781D01*
X177481218Y-102370778D01*
X177481218Y-102370776D01*
X177447503Y-102304607D01*
X177388287Y-102188390D01*
X177380556Y-102177749D01*
X177267971Y-102022786D01*
X177123213Y-101878028D01*
X176957613Y-101757715D01*
X176957612Y-101757714D01*
X176957610Y-101757713D01*
X176900653Y-101728691D01*
X176775223Y-101664781D01*
X176580534Y-101601522D01*
X176405995Y-101573878D01*
X176378352Y-101569500D01*
X176173648Y-101569500D01*
X176149329Y-101573351D01*
X175971465Y-101601522D01*
X175776776Y-101664781D01*
X175594386Y-101757715D01*
X175428786Y-101878028D01*
X175284028Y-102022786D01*
X175163715Y-102188386D01*
X175070781Y-102370776D01*
X175007522Y-102565465D01*
X174981451Y-102730073D01*
X174975500Y-102767648D01*
X170397500Y-102767648D01*
X170397500Y-98958961D01*
X170417185Y-98891922D01*
X170469989Y-98846167D01*
X170539147Y-98836223D01*
X170568947Y-98844398D01*
X170586380Y-98851619D01*
X170586384Y-98851619D01*
X170586385Y-98851620D01*
X170726542Y-98879500D01*
X170726545Y-98879500D01*
X179234375Y-98879500D01*
X179301414Y-98899185D01*
X179322056Y-98915819D01*
X179389927Y-98983690D01*
X179542801Y-99094760D01*
X179622347Y-99135290D01*
X179711163Y-99180545D01*
X179711165Y-99180545D01*
X179711168Y-99180547D01*
X179807497Y-99211846D01*
X179890881Y-99238940D01*
X180077514Y-99268500D01*
X180077519Y-99268500D01*
X180266486Y-99268500D01*
X180453118Y-99238940D01*
X180632832Y-99180547D01*
X180801199Y-99094760D01*
X180954073Y-98983690D01*
X181087690Y-98850073D01*
X181198760Y-98697199D01*
X181284547Y-98528832D01*
X181342940Y-98349118D01*
X181366726Y-98198940D01*
X181372500Y-98162486D01*
X181372500Y-98023874D01*
X181392185Y-97956835D01*
X181444989Y-97911080D01*
X181514147Y-97901136D01*
X181577703Y-97930161D01*
X181584181Y-97936193D01*
X187056073Y-103408085D01*
X187089558Y-103469408D01*
X187084574Y-103539100D01*
X187042704Y-103595032D01*
X186941952Y-103670455D01*
X186855706Y-103785664D01*
X186855703Y-103785670D01*
X186845308Y-103813541D01*
X186803436Y-103869474D01*
X186737972Y-103893891D01*
X186669699Y-103879039D01*
X186656250Y-103870531D01*
X186473538Y-103737783D01*
X186426298Y-103713713D01*
X186269755Y-103633950D01*
X186052248Y-103563278D01*
X185866812Y-103533908D01*
X185826354Y-103527500D01*
X185597646Y-103527500D01*
X185524407Y-103539100D01*
X185371753Y-103563278D01*
X185371750Y-103563278D01*
X185154244Y-103633950D01*
X184950461Y-103737783D01*
X184884551Y-103785670D01*
X184765434Y-103872214D01*
X184765432Y-103872216D01*
X184765431Y-103872216D01*
X184603716Y-104033931D01*
X184603709Y-104033940D01*
X184542007Y-104118864D01*
X184486677Y-104161530D01*
X184417063Y-104167508D01*
X184355269Y-104134901D01*
X184341372Y-104118863D01*
X184279907Y-104034263D01*
X184279902Y-104034257D01*
X184118242Y-103872597D01*
X183933276Y-103738211D01*
X183729568Y-103634417D01*
X183512124Y-103563765D01*
X183422000Y-103549490D01*
X183422000Y-104537252D01*
X183384292Y-104515482D01*
X183244409Y-104478000D01*
X183099591Y-104478000D01*
X182959708Y-104515482D01*
X182922000Y-104537252D01*
X182922000Y-103549490D01*
X182921999Y-103549490D01*
X182831875Y-103563765D01*
X182614431Y-103634417D01*
X182410723Y-103738211D01*
X182225757Y-103872597D01*
X182064097Y-104034257D01*
X181929711Y-104219223D01*
X181825917Y-104422929D01*
X181755265Y-104640371D01*
X181733468Y-104778000D01*
X182681252Y-104778000D01*
X182659482Y-104815708D01*
X182622000Y-104955591D01*
X182622000Y-105100409D01*
X182659482Y-105240292D01*
X182681252Y-105278000D01*
X181733468Y-105278000D01*
X181755265Y-105415628D01*
X181825917Y-105633070D01*
X181929711Y-105836776D01*
X182064097Y-106021742D01*
X182225757Y-106183402D01*
X182410723Y-106317788D01*
X182614429Y-106421582D01*
X182831871Y-106492234D01*
X182922000Y-106506509D01*
X182922000Y-105518747D01*
X182959708Y-105540518D01*
X183099591Y-105578000D01*
X183244409Y-105578000D01*
X183384292Y-105540518D01*
X183422000Y-105518747D01*
X183422000Y-106506508D01*
X183512128Y-106492234D01*
X183729570Y-106421582D01*
X183933276Y-106317788D01*
X184118242Y-106183402D01*
X184279905Y-106021739D01*
X184341371Y-105937137D01*
X184396701Y-105894470D01*
X184466314Y-105888491D01*
X184528109Y-105921096D01*
X184542007Y-105937134D01*
X184603714Y-106022066D01*
X184765434Y-106183786D01*
X184950462Y-106318217D01*
X185100117Y-106394470D01*
X185154244Y-106422049D01*
X185371751Y-106492721D01*
X185371752Y-106492721D01*
X185371755Y-106492722D01*
X185597646Y-106528500D01*
X185597647Y-106528500D01*
X185826353Y-106528500D01*
X185826354Y-106528500D01*
X186052245Y-106492722D01*
X186052248Y-106492721D01*
X186052249Y-106492721D01*
X186269755Y-106422049D01*
X186269755Y-106422048D01*
X186269758Y-106422048D01*
X186473538Y-106318217D01*
X186656245Y-106185472D01*
X186722046Y-106161994D01*
X186790100Y-106177819D01*
X186838795Y-106227924D01*
X186845308Y-106242459D01*
X186855702Y-106270328D01*
X186855706Y-106270335D01*
X186941952Y-106385544D01*
X186941955Y-106385547D01*
X187057164Y-106471793D01*
X187057171Y-106471797D01*
X187192017Y-106522091D01*
X187192016Y-106522091D01*
X187198944Y-106522835D01*
X187251627Y-106528500D01*
X189252372Y-106528499D01*
X189311983Y-106522091D01*
X189446831Y-106471796D01*
X189562046Y-106385546D01*
X189648296Y-106270331D01*
X189698591Y-106135483D01*
X189705000Y-106075873D01*
X189704999Y-103980128D01*
X189698591Y-103920517D01*
X189688660Y-103893891D01*
X189648297Y-103785671D01*
X189648293Y-103785664D01*
X189562047Y-103670455D01*
X189562044Y-103670452D01*
X189446835Y-103584206D01*
X189446828Y-103584202D01*
X189311982Y-103533908D01*
X189311983Y-103533908D01*
X189252383Y-103527501D01*
X189252381Y-103527500D01*
X189252373Y-103527500D01*
X189252365Y-103527500D01*
X189083432Y-103527500D01*
X189016393Y-103507815D01*
X188970638Y-103455011D01*
X188961815Y-103427691D01*
X188953455Y-103385664D01*
X188949619Y-103366380D01*
X188894929Y-103234347D01*
X188861425Y-103184204D01*
X188861425Y-103184203D01*
X188815532Y-103115519D01*
X188815529Y-103115516D01*
X180100193Y-94400181D01*
X180066708Y-94338858D01*
X180071692Y-94269166D01*
X180113564Y-94213233D01*
X180179028Y-94188816D01*
X180187874Y-94188500D01*
X180266486Y-94188500D01*
X180453118Y-94158940D01*
X180464071Y-94155381D01*
X180632832Y-94100547D01*
X180801199Y-94014760D01*
X180954073Y-93903690D01*
X181087690Y-93770073D01*
X181198760Y-93617199D01*
X181284547Y-93448832D01*
X181342940Y-93269118D01*
X181344030Y-93262236D01*
X181372500Y-93082486D01*
X181372500Y-92893521D01*
X181371444Y-92886855D01*
X181380398Y-92817562D01*
X181406231Y-92779779D01*
X181701532Y-92484480D01*
X181780929Y-92365653D01*
X181835619Y-92233620D01*
X181835619Y-92233616D01*
X181835621Y-92233613D01*
X181840848Y-92207335D01*
X181840848Y-92207334D01*
X181863500Y-92093457D01*
X181863500Y-86647983D01*
X186671500Y-86647983D01*
X186671500Y-88248001D01*
X186671501Y-88248018D01*
X186682000Y-88350796D01*
X186682001Y-88350799D01*
X186729277Y-88493466D01*
X186737186Y-88517334D01*
X186829288Y-88666656D01*
X186953344Y-88790712D01*
X186984735Y-88810074D01*
X187001656Y-88820511D01*
X187048381Y-88872459D01*
X187059604Y-88941421D01*
X187031760Y-89005504D01*
X187030615Y-89006759D01*
X187030647Y-89006786D01*
X187027485Y-89010487D01*
X187027483Y-89010490D01*
X187021249Y-89019071D01*
X186888657Y-89201566D01*
X186781433Y-89412003D01*
X186708446Y-89636631D01*
X186671500Y-89869902D01*
X186671500Y-90106097D01*
X186708446Y-90339368D01*
X186781433Y-90563996D01*
X186820306Y-90640287D01*
X186888657Y-90774433D01*
X187027483Y-90965510D01*
X187194490Y-91132517D01*
X187229127Y-91157683D01*
X187271792Y-91213013D01*
X187277771Y-91282626D01*
X187245165Y-91344421D01*
X187229130Y-91358315D01*
X187211365Y-91371222D01*
X187194488Y-91383484D01*
X187027485Y-91550487D01*
X187027485Y-91550488D01*
X187027483Y-91550490D01*
X186998203Y-91590791D01*
X186888657Y-91741566D01*
X186781433Y-91952003D01*
X186708446Y-92176631D01*
X186671500Y-92409902D01*
X186671500Y-92646097D01*
X186708446Y-92879368D01*
X186781433Y-93103996D01*
X186862061Y-93262236D01*
X186888657Y-93314433D01*
X187027483Y-93505510D01*
X187194490Y-93672517D01*
X187229127Y-93697683D01*
X187271792Y-93753013D01*
X187277771Y-93822626D01*
X187245165Y-93884421D01*
X187229130Y-93898315D01*
X187211365Y-93911222D01*
X187194488Y-93923484D01*
X187027485Y-94090487D01*
X187027485Y-94090488D01*
X187027483Y-94090490D01*
X187007207Y-94118398D01*
X186888657Y-94281566D01*
X186781433Y-94492003D01*
X186708446Y-94716631D01*
X186671500Y-94949902D01*
X186671500Y-95186097D01*
X186708446Y-95419368D01*
X186781433Y-95643996D01*
X186880508Y-95838439D01*
X186888657Y-95854433D01*
X187027483Y-96045510D01*
X187194490Y-96212517D01*
X187229127Y-96237683D01*
X187271792Y-96293013D01*
X187277771Y-96362626D01*
X187245165Y-96424421D01*
X187229130Y-96438315D01*
X187219650Y-96445203D01*
X187194488Y-96463484D01*
X187027485Y-96630487D01*
X187027485Y-96630488D01*
X187027483Y-96630490D01*
X186985274Y-96688586D01*
X186888657Y-96821566D01*
X186781433Y-97032003D01*
X186708446Y-97256631D01*
X186671500Y-97489902D01*
X186671500Y-97726097D01*
X186708446Y-97959368D01*
X186781433Y-98183996D01*
X186874890Y-98367414D01*
X186888657Y-98394433D01*
X187027483Y-98585510D01*
X187194490Y-98752517D01*
X187385567Y-98891343D01*
X187433604Y-98915819D01*
X187596003Y-98998566D01*
X187596005Y-98998566D01*
X187596008Y-98998568D01*
X187639305Y-99012636D01*
X187820631Y-99071553D01*
X188053903Y-99108500D01*
X188053908Y-99108500D01*
X188290097Y-99108500D01*
X188523368Y-99071553D01*
X188747992Y-98998568D01*
X188958433Y-98891343D01*
X189149510Y-98752517D01*
X189316517Y-98585510D01*
X189455343Y-98394433D01*
X189562568Y-98183992D01*
X189635553Y-97959368D01*
X189638036Y-97943690D01*
X189672500Y-97726097D01*
X189672500Y-97489902D01*
X189635553Y-97256631D01*
X189591966Y-97122486D01*
X189562568Y-97032008D01*
X189562566Y-97032005D01*
X189562566Y-97032003D01*
X189494553Y-96898521D01*
X189455343Y-96821567D01*
X189316517Y-96630490D01*
X189149510Y-96463483D01*
X189114872Y-96438317D01*
X189072207Y-96382989D01*
X189066228Y-96313375D01*
X189098833Y-96251580D01*
X189114873Y-96237682D01*
X189123463Y-96231441D01*
X189149510Y-96212517D01*
X189316517Y-96045510D01*
X189455343Y-95854433D01*
X189562568Y-95643992D01*
X189635553Y-95419368D01*
X189657261Y-95282309D01*
X189672500Y-95186097D01*
X189672500Y-94949902D01*
X189635553Y-94716631D01*
X189586876Y-94566819D01*
X189562568Y-94492008D01*
X189562566Y-94492005D01*
X189562566Y-94492003D01*
X189481252Y-94332417D01*
X189455343Y-94281567D01*
X189316517Y-94090490D01*
X189149510Y-93923483D01*
X189114872Y-93898317D01*
X189072207Y-93842989D01*
X189066228Y-93773375D01*
X189098833Y-93711580D01*
X189114873Y-93697682D01*
X189149510Y-93672517D01*
X189316517Y-93505510D01*
X189455343Y-93314433D01*
X189562568Y-93103992D01*
X189635553Y-92879368D01*
X189639337Y-92855477D01*
X189672500Y-92646097D01*
X189672500Y-92409902D01*
X189635553Y-92176631D01*
X189584533Y-92019610D01*
X189562568Y-91952008D01*
X189562566Y-91952005D01*
X189562566Y-91952003D01*
X189495191Y-91819773D01*
X189455343Y-91741567D01*
X189316517Y-91550490D01*
X189149510Y-91383483D01*
X189114872Y-91358317D01*
X189072207Y-91302989D01*
X189066228Y-91233375D01*
X189098833Y-91171580D01*
X189114873Y-91157682D01*
X189149510Y-91132517D01*
X189316517Y-90965510D01*
X189455343Y-90774433D01*
X189562568Y-90563992D01*
X189635553Y-90339368D01*
X189648271Y-90259070D01*
X189672500Y-90106097D01*
X189672500Y-89869902D01*
X189635553Y-89636631D01*
X189601689Y-89532412D01*
X189562568Y-89412008D01*
X189562566Y-89412005D01*
X189562566Y-89412003D01*
X189504080Y-89297219D01*
X189455343Y-89201567D01*
X189316517Y-89010490D01*
X189316508Y-89010481D01*
X189313353Y-89006786D01*
X189315134Y-89005264D01*
X189286273Y-88952408D01*
X189291257Y-88882716D01*
X189333129Y-88826783D01*
X189342334Y-88820516D01*
X189390656Y-88790712D01*
X189514712Y-88666656D01*
X189606814Y-88517334D01*
X189661999Y-88350797D01*
X189672500Y-88248009D01*
X189672499Y-86647992D01*
X189661999Y-86545203D01*
X189606814Y-86378666D01*
X189514712Y-86229344D01*
X189390656Y-86105288D01*
X189241334Y-86013186D01*
X189074797Y-85958001D01*
X189074795Y-85958000D01*
X188972010Y-85947500D01*
X187371998Y-85947500D01*
X187371981Y-85947501D01*
X187269203Y-85958000D01*
X187269200Y-85958001D01*
X187102668Y-86013185D01*
X187102663Y-86013187D01*
X186953342Y-86105289D01*
X186829289Y-86229342D01*
X186737187Y-86378663D01*
X186737185Y-86378668D01*
X186723739Y-86419247D01*
X186682001Y-86545203D01*
X186682001Y-86545204D01*
X186682000Y-86545204D01*
X186671500Y-86647983D01*
X181863500Y-86647983D01*
X181863500Y-84419606D01*
X181835620Y-84279449D01*
X181835619Y-84279448D01*
X181835619Y-84279444D01*
X181780929Y-84147411D01*
X181774264Y-84137436D01*
X181774262Y-84137431D01*
X181774262Y-84137432D01*
X181701534Y-84028586D01*
X181701528Y-84028579D01*
X181211418Y-83538469D01*
X181112528Y-83472394D01*
X181092589Y-83459071D01*
X180960556Y-83404381D01*
X180960550Y-83404379D01*
X180820393Y-83376500D01*
X180820391Y-83376500D01*
X172964782Y-83376500D01*
X172897743Y-83356815D01*
X172851988Y-83304011D01*
X172842044Y-83234853D01*
X172842309Y-83233102D01*
X172872500Y-83042486D01*
X172872500Y-82853513D01*
X172842940Y-82666881D01*
X172815846Y-82583497D01*
X172784547Y-82487168D01*
X172784545Y-82487165D01*
X172784545Y-82487163D01*
X172710146Y-82341148D01*
X172698760Y-82318801D01*
X172587690Y-82165927D01*
X172454073Y-82032310D01*
X172301199Y-81921240D01*
X172132836Y-81835454D01*
X171953118Y-81777059D01*
X171766486Y-81747500D01*
X171766481Y-81747500D01*
X171577519Y-81747500D01*
X171577515Y-81747500D01*
X171570844Y-81748556D01*
X171501551Y-81739595D01*
X171463775Y-81713762D01*
X171434482Y-81684469D01*
X171375066Y-81644769D01*
X171315653Y-81605071D01*
X171183620Y-81550381D01*
X171183614Y-81550379D01*
X171043457Y-81522500D01*
X171043455Y-81522500D01*
X161755545Y-81522500D01*
X161755543Y-81522500D01*
X161615385Y-81550379D01*
X161615379Y-81550381D01*
X161483347Y-81605070D01*
X161364517Y-81684469D01*
X160652626Y-82396360D01*
X160591303Y-82429845D01*
X160545547Y-82431152D01*
X160516484Y-82426549D01*
X160459352Y-82417500D01*
X160254648Y-82417500D01*
X160230329Y-82421351D01*
X160052465Y-82449522D01*
X159857776Y-82512781D01*
X159675386Y-82605715D01*
X159509786Y-82726028D01*
X159365028Y-82870786D01*
X159244715Y-83036386D01*
X159151781Y-83218776D01*
X159088522Y-83413465D01*
X159056500Y-83615648D01*
X159056500Y-83820351D01*
X159088522Y-84022534D01*
X159108372Y-84083623D01*
X159125855Y-84137431D01*
X159128049Y-84144181D01*
X159130044Y-84214022D01*
X159093964Y-84273855D01*
X159031263Y-84304684D01*
X159010118Y-84306500D01*
X158027874Y-84306500D01*
X157960835Y-84286815D01*
X157940193Y-84270181D01*
X157002379Y-83332367D01*
X156968894Y-83271044D01*
X156967587Y-83225293D01*
X156982500Y-83131139D01*
X156982500Y-82924861D01*
X156950231Y-82721124D01*
X156950230Y-82721120D01*
X156950230Y-82721119D01*
X156886489Y-82524945D01*
X156852717Y-82458663D01*
X156792840Y-82341148D01*
X156671593Y-82174267D01*
X156525733Y-82028407D01*
X156358852Y-81907160D01*
X156218119Y-81835453D01*
X156175054Y-81813510D01*
X155978879Y-81749769D01*
X155826073Y-81725567D01*
X155775139Y-81717500D01*
X155568861Y-81717500D01*
X155500948Y-81728256D01*
X155365122Y-81749769D01*
X155365119Y-81749769D01*
X155168945Y-81813510D01*
X154985147Y-81907160D01*
X154818265Y-82028408D01*
X154672408Y-82174265D01*
X154551160Y-82341147D01*
X154457510Y-82524945D01*
X154393769Y-82721119D01*
X154393769Y-82721122D01*
X154370065Y-82870781D01*
X154361500Y-82924861D01*
X154361500Y-83131139D01*
X154375380Y-83218776D01*
X154393769Y-83334877D01*
X154393769Y-83334880D01*
X154457510Y-83531054D01*
X154500630Y-83615682D01*
X154551160Y-83714852D01*
X154672407Y-83881733D01*
X154818267Y-84027593D01*
X154895386Y-84083623D01*
X154938051Y-84138953D01*
X154946500Y-84183941D01*
X154946500Y-87926125D01*
X154926815Y-87993164D01*
X154910181Y-88013806D01*
X154717626Y-88206360D01*
X154656303Y-88239845D01*
X154610547Y-88241152D01*
X154581484Y-88236549D01*
X154524352Y-88227500D01*
X154319648Y-88227500D01*
X154252254Y-88238174D01*
X154117464Y-88259523D01*
X154117461Y-88259523D01*
X154059818Y-88278253D01*
X153989976Y-88280248D01*
X153930144Y-88244167D01*
X153899316Y-88181466D01*
X153897500Y-88160322D01*
X153897500Y-86683941D01*
X153917185Y-86616902D01*
X153948612Y-86583624D01*
X154025733Y-86527593D01*
X154171593Y-86381733D01*
X154292840Y-86214852D01*
X154386488Y-86031057D01*
X154410226Y-85958000D01*
X154450230Y-85834880D01*
X154450230Y-85834879D01*
X154450231Y-85834876D01*
X154482500Y-85631139D01*
X154482500Y-85424861D01*
X154450231Y-85221124D01*
X154450230Y-85221120D01*
X154450230Y-85221119D01*
X154386489Y-85024945D01*
X154379809Y-85011835D01*
X154292840Y-84841148D01*
X154171593Y-84674267D01*
X154025733Y-84528407D01*
X153858852Y-84407160D01*
X153763114Y-84358379D01*
X153675054Y-84313510D01*
X153478879Y-84249769D01*
X153312743Y-84223456D01*
X153275139Y-84217500D01*
X153068861Y-84217500D01*
X153068855Y-84217500D01*
X152974709Y-84232411D01*
X152905416Y-84223456D01*
X152867631Y-84197619D01*
X152002379Y-83332367D01*
X151968894Y-83271044D01*
X151967587Y-83225293D01*
X151982500Y-83131139D01*
X151982500Y-82924861D01*
X151950231Y-82721124D01*
X151950230Y-82721120D01*
X151950230Y-82721119D01*
X151886489Y-82524945D01*
X151852717Y-82458663D01*
X151792840Y-82341148D01*
X151671593Y-82174267D01*
X151525733Y-82028407D01*
X151358852Y-81907160D01*
X151218119Y-81835453D01*
X151175054Y-81813510D01*
X150978879Y-81749769D01*
X150826073Y-81725567D01*
X150775139Y-81717500D01*
X150568861Y-81717500D01*
X150500948Y-81728256D01*
X150365122Y-81749769D01*
X150365119Y-81749769D01*
X150168945Y-81813510D01*
X149985147Y-81907160D01*
X149818265Y-82028408D01*
X149672408Y-82174265D01*
X149551160Y-82341147D01*
X149457510Y-82524945D01*
X149393769Y-82721119D01*
X149393769Y-82721122D01*
X149370065Y-82870781D01*
X149361500Y-82924861D01*
X149361500Y-83131139D01*
X149375380Y-83218776D01*
X149393769Y-83334877D01*
X149393769Y-83334880D01*
X149457510Y-83531054D01*
X149500630Y-83615682D01*
X149551160Y-83714852D01*
X149672407Y-83881733D01*
X149818267Y-84027593D01*
X149985148Y-84148840D01*
X150118981Y-84217031D01*
X150168945Y-84242489D01*
X150365120Y-84306230D01*
X150365121Y-84306230D01*
X150365124Y-84306231D01*
X150568861Y-84338500D01*
X150568862Y-84338500D01*
X150775137Y-84338500D01*
X150775139Y-84338500D01*
X150869291Y-84323587D01*
X150938580Y-84332541D01*
X150976367Y-84358379D01*
X151841619Y-85223631D01*
X151875104Y-85284954D01*
X151876411Y-85330709D01*
X151861500Y-85424855D01*
X151861500Y-85424861D01*
X151861500Y-85631139D01*
X151868436Y-85674929D01*
X151893769Y-85834877D01*
X151893769Y-85834880D01*
X151957510Y-86031054D01*
X152020994Y-86155648D01*
X152051160Y-86214852D01*
X152172407Y-86381733D01*
X152318267Y-86527593D01*
X152395386Y-86583623D01*
X152438051Y-86638953D01*
X152446500Y-86683941D01*
X152446500Y-92159951D01*
X152426815Y-92226990D01*
X152410181Y-92247632D01*
X151683572Y-92974240D01*
X151622249Y-93007725D01*
X151552557Y-93002741D01*
X151496624Y-92960869D01*
X151472207Y-92895405D01*
X151472246Y-92885184D01*
X151472000Y-92885184D01*
X151472000Y-92675682D01*
X151439990Y-92473582D01*
X151376755Y-92278968D01*
X151283859Y-92096650D01*
X151251474Y-92052077D01*
X151251474Y-92052076D01*
X150572000Y-92731553D01*
X150572000Y-92725339D01*
X150544741Y-92623606D01*
X150492080Y-92532394D01*
X150417606Y-92457920D01*
X150326394Y-92405259D01*
X150224661Y-92378000D01*
X150218446Y-92378000D01*
X150897922Y-91698524D01*
X150897921Y-91698523D01*
X150853359Y-91666147D01*
X150853350Y-91666141D01*
X150799621Y-91638765D01*
X150748825Y-91590791D01*
X150732030Y-91522970D01*
X150754567Y-91456835D01*
X150799621Y-91417795D01*
X150853610Y-91390287D01*
X150916740Y-91344421D01*
X151019213Y-91269971D01*
X151019215Y-91269968D01*
X151019219Y-91269966D01*
X151163966Y-91125219D01*
X151163968Y-91125215D01*
X151163971Y-91125213D01*
X151230628Y-91033466D01*
X151284287Y-90959610D01*
X151374872Y-90781827D01*
X151377218Y-90777223D01*
X151377218Y-90777222D01*
X151377220Y-90777219D01*
X151440477Y-90582534D01*
X151472500Y-90380352D01*
X151472500Y-90175648D01*
X151461154Y-90104011D01*
X151440477Y-89973465D01*
X151406827Y-89869902D01*
X151377220Y-89778781D01*
X151377218Y-89778778D01*
X151377218Y-89778776D01*
X151304791Y-89636632D01*
X151284287Y-89596390D01*
X151272654Y-89580379D01*
X151163971Y-89430786D01*
X151019213Y-89286028D01*
X150853613Y-89165715D01*
X150853612Y-89165714D01*
X150853610Y-89165713D01*
X150779594Y-89128000D01*
X150671223Y-89072781D01*
X150476534Y-89009522D01*
X150301995Y-88981878D01*
X150274352Y-88977500D01*
X150069648Y-88977500D01*
X149983450Y-88991152D01*
X149914157Y-88982197D01*
X149876372Y-88956360D01*
X144248818Y-83328806D01*
X144215333Y-83267483D01*
X144212499Y-83241125D01*
X144212499Y-82727998D01*
X144212498Y-82727981D01*
X144201999Y-82625203D01*
X144201998Y-82625200D01*
X144195541Y-82605713D01*
X144146814Y-82458666D01*
X144054712Y-82309344D01*
X143930656Y-82185288D01*
X143781334Y-82093186D01*
X143614797Y-82038001D01*
X143614795Y-82038000D01*
X143512010Y-82027500D01*
X141911998Y-82027500D01*
X141911981Y-82027501D01*
X141809203Y-82038000D01*
X141809200Y-82038001D01*
X141642668Y-82093185D01*
X141642663Y-82093187D01*
X141493342Y-82185289D01*
X141369289Y-82309342D01*
X141277187Y-82458663D01*
X141277186Y-82458666D01*
X141222001Y-82625203D01*
X141222001Y-82625204D01*
X141222000Y-82625204D01*
X141211500Y-82727983D01*
X141211500Y-84328001D01*
X141211501Y-84328018D01*
X141222000Y-84430796D01*
X141222001Y-84430799D01*
X141254346Y-84528407D01*
X141277186Y-84597334D01*
X141369288Y-84746656D01*
X141493344Y-84870712D01*
X141642666Y-84962814D01*
X141809203Y-85017999D01*
X141911991Y-85028500D01*
X141974692Y-85028499D01*
X142041729Y-85048183D01*
X142062372Y-85064818D01*
X142500941Y-85503387D01*
X142480409Y-85508889D01*
X142343592Y-85587881D01*
X142231881Y-85699592D01*
X142152889Y-85836409D01*
X142147387Y-85856941D01*
X141489340Y-85198894D01*
X141429084Y-85281830D01*
X141321897Y-85492197D01*
X141248934Y-85716752D01*
X141212000Y-85949947D01*
X141212000Y-86186052D01*
X141248934Y-86419247D01*
X141321897Y-86643802D01*
X141429087Y-86854174D01*
X141489338Y-86937104D01*
X141489340Y-86937105D01*
X142147387Y-86279058D01*
X142152889Y-86299591D01*
X142231881Y-86436408D01*
X142343592Y-86548119D01*
X142480409Y-86627111D01*
X142500940Y-86632612D01*
X141842893Y-87290658D01*
X141925828Y-87350914D01*
X142136197Y-87458102D01*
X142360752Y-87531065D01*
X142360751Y-87531065D01*
X142593948Y-87568000D01*
X142830052Y-87568000D01*
X143063247Y-87531065D01*
X143287802Y-87458102D01*
X143498163Y-87350918D01*
X143498169Y-87350914D01*
X143581104Y-87290658D01*
X143581105Y-87290658D01*
X142923058Y-86632612D01*
X142943591Y-86627111D01*
X143080408Y-86548119D01*
X143192119Y-86436408D01*
X143271111Y-86299591D01*
X143276612Y-86279058D01*
X143934658Y-86937105D01*
X143934658Y-86937104D01*
X143994914Y-86854169D01*
X143994918Y-86854163D01*
X144102102Y-86643802D01*
X144175065Y-86419247D01*
X144212000Y-86186052D01*
X144212000Y-85949947D01*
X144175065Y-85716754D01*
X144137492Y-85601116D01*
X144135497Y-85531275D01*
X144171577Y-85471442D01*
X144234277Y-85440613D01*
X144303692Y-85448577D01*
X144343104Y-85475116D01*
X148208807Y-89340819D01*
X148242292Y-89402142D01*
X148237308Y-89471834D01*
X148195436Y-89527767D01*
X148129972Y-89552184D01*
X148121126Y-89552500D01*
X147350543Y-89552500D01*
X147210385Y-89580379D01*
X147210379Y-89580381D01*
X147078348Y-89635070D01*
X146959517Y-89714469D01*
X143982805Y-92691181D01*
X143921482Y-92724666D01*
X143895124Y-92727500D01*
X143071998Y-92727500D01*
X143071980Y-92727501D01*
X142969203Y-92738000D01*
X142969200Y-92738001D01*
X142802668Y-92793185D01*
X142802663Y-92793187D01*
X142653342Y-92885289D01*
X142529289Y-93009342D01*
X142437187Y-93158663D01*
X142437185Y-93158668D01*
X142433731Y-93169093D01*
X142417671Y-93217560D01*
X142416717Y-93220438D01*
X142376944Y-93277883D01*
X142312428Y-93304706D01*
X142289283Y-93305052D01*
X142251474Y-93302076D01*
X141572000Y-93981551D01*
X141572000Y-93975339D01*
X141544741Y-93873606D01*
X141492080Y-93782394D01*
X141417606Y-93707920D01*
X141326394Y-93655259D01*
X141224661Y-93628000D01*
X141218446Y-93628000D01*
X141897922Y-92948524D01*
X141897921Y-92948523D01*
X141853359Y-92916147D01*
X141853350Y-92916141D01*
X141671031Y-92823244D01*
X141476417Y-92760009D01*
X141274317Y-92728000D01*
X141069683Y-92728000D01*
X140867582Y-92760009D01*
X140672968Y-92823244D01*
X140490644Y-92916143D01*
X140446077Y-92948523D01*
X140446077Y-92948524D01*
X141125554Y-93628000D01*
X141119339Y-93628000D01*
X141017606Y-93655259D01*
X140926394Y-93707920D01*
X140851920Y-93782394D01*
X140799259Y-93873606D01*
X140772000Y-93975339D01*
X140772000Y-93981553D01*
X140092524Y-93302077D01*
X140092523Y-93302077D01*
X140060143Y-93346644D01*
X139967244Y-93528968D01*
X139904009Y-93723582D01*
X139872000Y-93925682D01*
X139872000Y-94130317D01*
X139904009Y-94332417D01*
X139967244Y-94527031D01*
X140060141Y-94709350D01*
X140060147Y-94709359D01*
X140092523Y-94753921D01*
X140092524Y-94753922D01*
X140772000Y-94074446D01*
X140772000Y-94080661D01*
X140799259Y-94182394D01*
X140851920Y-94273606D01*
X140926394Y-94348080D01*
X141017606Y-94400741D01*
X141119339Y-94428000D01*
X141125553Y-94428000D01*
X140446076Y-95107474D01*
X140490650Y-95139859D01*
X140672968Y-95232755D01*
X140867582Y-95295990D01*
X141069683Y-95328000D01*
X141274317Y-95328000D01*
X141476417Y-95295990D01*
X141671031Y-95232755D01*
X141853349Y-95139859D01*
X141897921Y-95107474D01*
X141218447Y-94428000D01*
X141224661Y-94428000D01*
X141326394Y-94400741D01*
X141417606Y-94348080D01*
X141492080Y-94273606D01*
X141544741Y-94182394D01*
X141572000Y-94080661D01*
X141572000Y-94074447D01*
X142251473Y-94753921D01*
X142289280Y-94750946D01*
X142357658Y-94765310D01*
X142407415Y-94814361D01*
X142416714Y-94835556D01*
X142437186Y-94897334D01*
X142529288Y-95046656D01*
X142653344Y-95170712D01*
X142802666Y-95262814D01*
X142802668Y-95262815D01*
X142823110Y-95269588D01*
X142861502Y-95282310D01*
X142918947Y-95322081D01*
X142945772Y-95386596D01*
X142946500Y-95400016D01*
X142946500Y-101833455D01*
X142974379Y-101973614D01*
X142974381Y-101973620D01*
X143029071Y-102105653D01*
X143040587Y-102122888D01*
X143108469Y-102224482D01*
X143301516Y-102417529D01*
X143301519Y-102417531D01*
X143301521Y-102417533D01*
X143410219Y-102490162D01*
X143420347Y-102496929D01*
X143552380Y-102551619D01*
X143574074Y-102555934D01*
X143585473Y-102560685D01*
X143603413Y-102575207D01*
X143623867Y-102585906D01*
X143625448Y-102587460D01*
X143953807Y-102915819D01*
X143987292Y-102977142D01*
X143982308Y-103046834D01*
X143940436Y-103102767D01*
X143874972Y-103127184D01*
X143866126Y-103127500D01*
X142764129Y-103127500D01*
X142764123Y-103127501D01*
X142704516Y-103133908D01*
X142569671Y-103184202D01*
X142569664Y-103184206D01*
X142454455Y-103270452D01*
X142454452Y-103270455D01*
X142368206Y-103385664D01*
X142368203Y-103385669D01*
X142338398Y-103465581D01*
X142296526Y-103521514D01*
X142231062Y-103545931D01*
X142162789Y-103531079D01*
X142134535Y-103509928D01*
X142084363Y-103459756D01*
X142084358Y-103459752D01*
X141906025Y-103330187D01*
X141906024Y-103330186D01*
X141906022Y-103330185D01*
X141788791Y-103270452D01*
X141709606Y-103230104D01*
X141709603Y-103230103D01*
X141499952Y-103161985D01*
X141391086Y-103144742D01*
X141282222Y-103127500D01*
X141061778Y-103127500D01*
X140989201Y-103138995D01*
X140844047Y-103161985D01*
X140634396Y-103230103D01*
X140634393Y-103230104D01*
X140437974Y-103330187D01*
X140259641Y-103459752D01*
X140259636Y-103459756D01*
X140103756Y-103615636D01*
X140103752Y-103615641D01*
X139974187Y-103793974D01*
X139874104Y-103990393D01*
X139874103Y-103990396D01*
X139805985Y-104200047D01*
X139779151Y-104369474D01*
X139771500Y-104417778D01*
X135828604Y-104417778D01*
X135767735Y-96382989D01*
X135757721Y-95061154D01*
X135750579Y-94118398D01*
X135636942Y-79118402D01*
X135656118Y-79051218D01*
X135708574Y-79005064D01*
X135760405Y-78993466D01*
X194693469Y-78740534D01*
X194760591Y-78759931D01*
G37*
%TD.AperFunction*%
%TD*%
M02*
