%TF.GenerationSoftware,KiCad,Pcbnew,9.0.5*%
%TF.CreationDate,2025-10-18T19:48:01+03:00*%
%TF.ProjectId,train,74726169-6e2e-46b6-9963-61645f706362,rev?*%
%TF.SameCoordinates,Original*%
%TF.FileFunction,Soldermask,Bot*%
%TF.FilePolarity,Negative*%
%FSLAX46Y46*%
G04 Gerber Fmt 4.6, Leading zero omitted, Abs format (unit mm)*
G04 Created by KiCad (PCBNEW 9.0.5) date 2025-10-18 19:48:01*
%MOMM*%
%LPD*%
G01*
G04 APERTURE LIST*
G04 Aperture macros list*
%AMRoundRect*
0 Rectangle with rounded corners*
0 $1 Rounding radius*
0 $2 $3 $4 $5 $6 $7 $8 $9 X,Y pos of 4 corners*
0 Add a 4 corners polygon primitive as box body*
4,1,4,$2,$3,$4,$5,$6,$7,$8,$9,$2,$3,0*
0 Add four circle primitives for the rounded corners*
1,1,$1+$1,$2,$3*
1,1,$1+$1,$4,$5*
1,1,$1+$1,$6,$7*
1,1,$1+$1,$8,$9*
0 Add four rect primitives between the rounded corners*
20,1,$1+$1,$2,$3,$4,$5,0*
20,1,$1+$1,$4,$5,$6,$7,0*
20,1,$1+$1,$6,$7,$8,$9,0*
20,1,$1+$1,$8,$9,$2,$3,0*%
G04 Aperture macros list end*
%ADD10C,2.100000*%
%ADD11C,2.000000*%
%ADD12RoundRect,0.250000X-0.750000X0.750000X-0.750000X-0.750000X0.750000X-0.750000X0.750000X0.750000X0*%
%ADD13C,1.200000*%
%ADD14C,1.400000*%
%ADD15O,1.905000X2.000000*%
%ADD16R,1.905000X2.000000*%
%ADD17C,1.600000*%
%ADD18RoundRect,0.250000X0.550000X0.550000X-0.550000X0.550000X-0.550000X-0.550000X0.550000X-0.550000X0*%
%ADD19RoundRect,0.250000X0.750000X0.750000X-0.750000X0.750000X-0.750000X-0.750000X0.750000X-0.750000X0*%
%ADD20C,1.620000*%
%ADD21C,1.800000*%
%ADD22R,1.800000X1.800000*%
%ADD23C,2.200000*%
%ADD24RoundRect,0.249999X-0.850001X0.850001X-0.850001X-0.850001X0.850001X-0.850001X0.850001X0.850001X0*%
G04 APERTURE END LIST*
D10*
%TO.C,REF\u002A\u002A*%
X176276000Y-102870000D03*
%TD*%
D11*
%TO.C,BT1*%
X142712000Y-86068000D03*
D12*
X142712000Y-83528000D03*
%TD*%
D13*
%TO.C,C3*%
X155672000Y-97528000D03*
X157672000Y-97528000D03*
%TD*%
D14*
%TO.C,R1*%
X154672000Y-107028000D03*
X154672000Y-101948000D03*
%TD*%
%TO.C,R3*%
X169672000Y-97028000D03*
X174752000Y-97028000D03*
%TD*%
D15*
%TO.C,Q2*%
X183172000Y-105028000D03*
X185712000Y-105028000D03*
D16*
X188252000Y-105028000D03*
%TD*%
D15*
%TO.C,Q1*%
X163672000Y-105528000D03*
X166212000Y-105528000D03*
D16*
X168752000Y-105528000D03*
%TD*%
D17*
%TO.C,C1*%
X141172000Y-94028000D03*
D18*
X143672000Y-94028000D03*
%TD*%
D11*
%TO.C,D2*%
X177172000Y-85528000D03*
D19*
X179712000Y-85528000D03*
%TD*%
D14*
%TO.C,R4*%
X180172000Y-98068000D03*
X180172000Y-92988000D03*
%TD*%
D20*
%TO.C,RV1*%
X150672000Y-83028000D03*
X153172000Y-85528000D03*
X155672000Y-83028000D03*
%TD*%
D17*
%TO.C,U1*%
X160357000Y-91338000D03*
X160357000Y-88798000D03*
X160357000Y-86258000D03*
X160357000Y-83718000D03*
X167977000Y-83718000D03*
X167977000Y-86258000D03*
X167977000Y-88798000D03*
D18*
X167977000Y-91338000D03*
%TD*%
D17*
%TO.C,C2*%
X150172000Y-92778000D03*
X150172000Y-90278000D03*
%TD*%
D14*
%TO.C,R6*%
X171172000Y-92028000D03*
X176252000Y-92028000D03*
%TD*%
%TO.C,R2*%
X166712000Y-97028000D03*
X161632000Y-97028000D03*
%TD*%
D21*
%TO.C,D3*%
X141172000Y-104528000D03*
D22*
X143712000Y-104528000D03*
%TD*%
D14*
%TO.C,R5*%
X171672000Y-88028000D03*
X171672000Y-82948000D03*
%TD*%
D11*
%TO.C,T1*%
X188172000Y-97608000D03*
X188172000Y-95068000D03*
X188172000Y-92528000D03*
X188172000Y-89988000D03*
D12*
X188172000Y-87448000D03*
%TD*%
D17*
%TO.C,C4*%
X156922000Y-89528000D03*
X154422000Y-89528000D03*
%TD*%
D23*
%TO.C,D1*%
X149672000Y-107608000D03*
D24*
X149672000Y-97448000D03*
%TD*%
M02*
