M48
; DRILL file {KiCad 9.0.5} date 2025-10-18T19:48:12+0300
; FORMAT={-:-/ absolute / metric / decimal}
; #@! TF.CreationDate,2025-10-18T19:48:12+03:00
; #@! TF.GenerationSoftware,Kicad,Pcbnew,9.0.5
; #@! TF.FileFunction,Plated,1,2,PTH
FMAT,2
METRIC
; #@! TA.AperFunction,Plated,PTH,ViaDrill
T1C0.200
; #@! TA.AperFunction,Plated,PTH,ComponentDrill
T2C0.600
; #@! TA.AperFunction,Plated,PTH,ComponentDrill
T3C0.700
; #@! TA.AperFunction,Plated,PTH,ComponentDrill
T4C0.800
; #@! TA.AperFunction,Plated,PTH,ComponentDrill
T5C0.900
; #@! TA.AperFunction,Plated,PTH,ComponentDrill
T6C1.100
; #@! TA.AperFunction,Plated,PTH,ComponentDrill
T7C1.200
%
G90
G05
T1
X151.042Y-96.155
X169.926Y-90.675
X170.688Y-90.675
X181.789Y-87.122
X182.118Y-87.63
T2
X155.672Y-97.528
X157.672Y-97.528
T3
X154.672Y-101.948
X154.672Y-107.028
X161.632Y-97.028
X166.712Y-97.028
X169.672Y-97.028
X171.172Y-92.028
X171.672Y-82.948
X171.672Y-88.028
X174.752Y-97.028
X176.252Y-92.028
X180.172Y-92.988
X180.172Y-98.068
T4
X141.172Y-94.028
X143.672Y-94.028
X150.172Y-90.278
X150.172Y-92.778
X154.422Y-89.528
X156.922Y-89.528
X160.357Y-83.718
X160.357Y-86.258
X160.357Y-88.798
X160.357Y-91.338
X167.977Y-83.718
X167.977Y-86.258
X167.977Y-88.798
X167.977Y-91.338
T5
X141.172Y-104.528
X143.712Y-104.528
X150.672Y-83.028
X153.172Y-85.528
X155.672Y-83.028
T6
X149.672Y-97.448
X149.672Y-107.608
X163.672Y-105.528
X166.212Y-105.528
X168.752Y-105.528
X183.172Y-105.028
X185.712Y-105.028
X188.252Y-105.028
T7
X142.712Y-83.528
X142.712Y-86.068
X177.172Y-85.528
X179.712Y-85.528
X188.172Y-87.448
X188.172Y-89.988
X188.172Y-92.528
X188.172Y-95.068
X188.172Y-97.608
M30
