%TF.GenerationSoftware,KiCad,Pcbnew,9.0.5*%
%TF.CreationDate,2025-10-18T19:48:00+03:00*%
%TF.ProjectId,train,74726169-6e2e-46b6-9963-61645f706362,rev?*%
%TF.SameCoordinates,Original*%
%TF.FileFunction,Copper,L1,Top*%
%TF.FilePolarity,Positive*%
%FSLAX46Y46*%
G04 Gerber Fmt 4.6, Leading zero omitted, Abs format (unit mm)*
G04 Created by KiCad (PCBNEW 9.0.5) date 2025-10-18 19:48:00*
%MOMM*%
%LPD*%
G01*
G04 APERTURE LIST*
G04 Aperture macros list*
%AMRoundRect*
0 Rectangle with rounded corners*
0 $1 Rounding radius*
0 $2 $3 $4 $5 $6 $7 $8 $9 X,Y pos of 4 corners*
0 Add a 4 corners polygon primitive as box body*
4,1,4,$2,$3,$4,$5,$6,$7,$8,$9,$2,$3,0*
0 Add four circle primitives for the rounded corners*
1,1,$1+$1,$2,$3*
1,1,$1+$1,$4,$5*
1,1,$1+$1,$6,$7*
1,1,$1+$1,$8,$9*
0 Add four rect primitives between the rounded corners*
20,1,$1+$1,$2,$3,$4,$5,0*
20,1,$1+$1,$4,$5,$6,$7,0*
20,1,$1+$1,$6,$7,$8,$9,0*
20,1,$1+$1,$8,$9,$2,$3,0*%
G04 Aperture macros list end*
%TA.AperFunction,NonConductor*%
%ADD10C,0.200000*%
%TD*%
%TA.AperFunction,ComponentPad*%
%ADD11C,2.000000*%
%TD*%
%TA.AperFunction,ComponentPad*%
%ADD12RoundRect,0.250000X-0.750000X0.750000X-0.750000X-0.750000X0.750000X-0.750000X0.750000X0.750000X0*%
%TD*%
%TA.AperFunction,ComponentPad*%
%ADD13C,1.200000*%
%TD*%
%TA.AperFunction,ComponentPad*%
%ADD14C,1.400000*%
%TD*%
%TA.AperFunction,ComponentPad*%
%ADD15O,1.905000X2.000000*%
%TD*%
%TA.AperFunction,ComponentPad*%
%ADD16R,1.905000X2.000000*%
%TD*%
%TA.AperFunction,ComponentPad*%
%ADD17C,1.600000*%
%TD*%
%TA.AperFunction,ComponentPad*%
%ADD18RoundRect,0.250000X0.550000X0.550000X-0.550000X0.550000X-0.550000X-0.550000X0.550000X-0.550000X0*%
%TD*%
%TA.AperFunction,ComponentPad*%
%ADD19RoundRect,0.250000X0.750000X0.750000X-0.750000X0.750000X-0.750000X-0.750000X0.750000X-0.750000X0*%
%TD*%
%TA.AperFunction,ComponentPad*%
%ADD20C,1.620000*%
%TD*%
%TA.AperFunction,ComponentPad*%
%ADD21C,1.800000*%
%TD*%
%TA.AperFunction,ComponentPad*%
%ADD22R,1.800000X1.800000*%
%TD*%
%TA.AperFunction,ComponentPad*%
%ADD23C,2.200000*%
%TD*%
%TA.AperFunction,ComponentPad*%
%ADD24RoundRect,0.249999X-0.850001X0.850001X-0.850001X-0.850001X0.850001X-0.850001X0.850001X0.850001X0*%
%TD*%
%TA.AperFunction,ViaPad*%
%ADD25C,0.400000*%
%TD*%
%TA.AperFunction,Conductor*%
%ADD26C,0.450000*%
%TD*%
G04 APERTURE END LIST*
D10*
X135364000Y-78126000D02*
X195562000Y-78126000D01*
X195562000Y-113178000D01*
X135364000Y-113178000D01*
X135364000Y-78126000D01*
D11*
%TO.P,BT1,2,-*%
%TO.N,GND*%
X142712000Y-86068000D03*
D12*
%TO.P,BT1,1,+*%
%TO.N,Net-(BT1-+)*%
X142712000Y-83528000D03*
%TD*%
D13*
%TO.P,C3,2*%
%TO.N,GND*%
X155672000Y-97528000D03*
%TO.P,C3,1*%
%TO.N,OUTPUT 2*%
X157672000Y-97528000D03*
%TD*%
D14*
%TO.P,R1,2*%
%TO.N,Net-(D2-A)*%
X154672000Y-107028000D03*
%TO.P,R1,1*%
%TO.N,OUTPUT 2*%
X154672000Y-101948000D03*
%TD*%
%TO.P,R3,2*%
%TO.N,Net-(Q1-G)*%
X169672000Y-97028000D03*
%TO.P,R3,1*%
%TO.N,Net-(R3-Pad1)*%
X174752000Y-97028000D03*
%TD*%
D15*
%TO.P,Q2,3,S*%
%TO.N,GND*%
X183172000Y-105028000D03*
%TO.P,Q2,2,D*%
%TO.N,OUTPUT 3*%
X185712000Y-105028000D03*
D16*
%TO.P,Q2,1,G*%
%TO.N,Net-(Q2-G)*%
X188252000Y-105028000D03*
%TD*%
D15*
%TO.P,Q1,3,S*%
%TO.N,GND*%
X163672000Y-105528000D03*
%TO.P,Q1,2,D*%
%TO.N,OUTPUT 1*%
X166212000Y-105528000D03*
D16*
%TO.P,Q1,1,G*%
%TO.N,Net-(Q1-G)*%
X168752000Y-105528000D03*
%TD*%
D17*
%TO.P,C1,2*%
%TO.N,GND*%
X141172000Y-94028000D03*
D18*
%TO.P,C1,1*%
%TO.N,Net-(BT1-+)*%
X143672000Y-94028000D03*
%TD*%
D11*
%TO.P,D2,2,A*%
%TO.N,Net-(D2-A)*%
X177172000Y-85528000D03*
D19*
%TO.P,D2,1,K*%
%TO.N,GND*%
X179712000Y-85528000D03*
%TD*%
D14*
%TO.P,R4,2*%
%TO.N,Net-(Q1-G)*%
X180172000Y-98068000D03*
%TO.P,R4,1*%
%TO.N,Net-(U1-HO)*%
X180172000Y-92988000D03*
%TD*%
D20*
%TO.P,RV1,3,3*%
%TO.N,Net-(R2-Pad1)*%
X150672000Y-83028000D03*
%TO.P,RV1,2,2*%
X153172000Y-85528000D03*
%TO.P,RV1,1,1*%
%TO.N,Net-(U1-CT)*%
X155672000Y-83028000D03*
%TD*%
D17*
%TO.P,U1,8,VB*%
%TO.N,OUTPUT 2*%
X160357000Y-91338000D03*
%TO.P,U1,7,HO*%
%TO.N,Net-(U1-HO)*%
X160357000Y-88798000D03*
%TO.P,U1,6,VS*%
%TO.N,GND*%
X160357000Y-86258000D03*
%TO.P,U1,5,LO*%
%TO.N,Net-(U1-LO)*%
X160357000Y-83718000D03*
%TO.P,U1,4,COM*%
%TO.N,GND*%
X167977000Y-83718000D03*
%TO.P,U1,3,CT*%
%TO.N,Net-(U1-CT)*%
X167977000Y-86258000D03*
%TO.P,U1,2,RT*%
%TO.N,Net-(U1-RT)*%
X167977000Y-88798000D03*
D18*
%TO.P,U1,1,VCC*%
%TO.N,OUTPUT 2*%
X167977000Y-91338000D03*
%TD*%
D17*
%TO.P,C2,2*%
%TO.N,GND*%
X150172000Y-92778000D03*
%TO.P,C2,1*%
%TO.N,Net-(BT1-+)*%
X150172000Y-90278000D03*
%TD*%
D14*
%TO.P,R6,2*%
%TO.N,Net-(Q2-G)*%
X171172000Y-92028000D03*
%TO.P,R6,1*%
%TO.N,Net-(R3-Pad1)*%
X176252000Y-92028000D03*
%TD*%
%TO.P,R2,2*%
%TO.N,Net-(U1-RT)*%
X166712000Y-97028000D03*
%TO.P,R2,1*%
%TO.N,Net-(R2-Pad1)*%
X161632000Y-97028000D03*
%TD*%
D21*
%TO.P,D3,2,A*%
%TO.N,Net-(D3-A)*%
X141172000Y-104528000D03*
D22*
%TO.P,D3,1,K*%
%TO.N,Net-(D3-K)*%
X143712000Y-104528000D03*
%TD*%
D14*
%TO.P,R5,2*%
%TO.N,Net-(Q2-G)*%
X171672000Y-88028000D03*
%TO.P,R5,1*%
%TO.N,Net-(U1-LO)*%
X171672000Y-82948000D03*
%TD*%
D11*
%TO.P,T1,5,SB*%
%TO.N,OUTPUT 3*%
X188172000Y-97608000D03*
%TO.P,T1,4,SC*%
%TO.N,OUTPUT 2*%
X188172000Y-95068000D03*
%TO.P,T1,3,SA*%
%TO.N,OUTPUT 1*%
X188172000Y-92528000D03*
%TO.P,T1,2,AB*%
%TO.N,Net-(D3-A)*%
X188172000Y-89988000D03*
D12*
%TO.P,T1,1,AA*%
%TO.N,Net-(D3-K)*%
X188172000Y-87448000D03*
%TD*%
D17*
%TO.P,C4,2*%
%TO.N,GND*%
X156922000Y-89528000D03*
%TO.P,C4,1*%
%TO.N,Net-(U1-CT)*%
X154422000Y-89528000D03*
%TD*%
D23*
%TO.P,D1,2,A*%
%TO.N,Net-(BT1-+)*%
X149672000Y-107608000D03*
D24*
%TO.P,D1,1,K*%
%TO.N,OUTPUT 2*%
X149672000Y-97448000D03*
%TD*%
D25*
%TO.N,Net-(U1-RT)*%
X169926000Y-90675000D03*
%TO.N,GND*%
X151041936Y-96155000D03*
X181789000Y-87122000D03*
X182118000Y-87630000D03*
%TO.N,Net-(Q2-G)*%
X170688000Y-90675000D03*
%TD*%
D26*
%TO.N,Net-(U1-RT)*%
X169926000Y-90675000D02*
X169854000Y-90675000D01*
X169854000Y-90675000D02*
X167977000Y-88798000D01*
%TO.N,GND*%
X151041936Y-96155000D02*
X150876000Y-95989064D01*
X150876000Y-95989064D02*
X150876000Y-94232000D01*
X150876000Y-94232000D02*
X142712000Y-86068000D01*
X181789000Y-87122000D02*
X181306000Y-87122000D01*
X181306000Y-87122000D02*
X179712000Y-85528000D01*
%TO.N,Net-(Q2-G)*%
X170688000Y-90675000D02*
X170688000Y-89012000D01*
X170688000Y-89012000D02*
X171672000Y-88028000D01*
%TO.N,GND*%
X141172000Y-94028000D02*
X141172000Y-87608000D01*
X141172000Y-87608000D02*
X142712000Y-86068000D01*
X167977000Y-83718000D02*
X168333000Y-84074000D01*
X168333000Y-84074000D02*
X178258000Y-84074000D01*
X178258000Y-84074000D02*
X179712000Y-85528000D01*
X160357000Y-86258000D02*
X165437000Y-86258000D01*
X165437000Y-86258000D02*
X167977000Y-83718000D01*
X150172000Y-92778000D02*
X153672000Y-92778000D01*
X153672000Y-92778000D02*
X156922000Y-89528000D01*
X163672000Y-105528000D02*
X161046000Y-108154000D01*
X161046000Y-108154000D02*
X154205595Y-108154000D01*
X154205595Y-108154000D02*
X147495000Y-101443405D01*
X147495000Y-101443405D02*
X147495000Y-95455000D01*
X147495000Y-95455000D02*
X150172000Y-92778000D01*
%TO.N,OUTPUT 1*%
X166212000Y-105528000D02*
X166212000Y-99340595D01*
X166212000Y-99340595D02*
X168546000Y-97006595D01*
X168546000Y-97006595D02*
X168546000Y-96561595D01*
X168546000Y-96561595D02*
X169388595Y-95719000D01*
X169388595Y-95719000D02*
X186547000Y-95719000D01*
X181793500Y-100472500D02*
X181793500Y-105646493D01*
X182601007Y-106454000D02*
X189630500Y-106454000D01*
X189630500Y-106454000D02*
X189630500Y-93986500D01*
X186547000Y-95719000D02*
X181793500Y-100472500D01*
X181793500Y-105646493D02*
X182601007Y-106454000D01*
X189630500Y-93986500D02*
X188172000Y-92528000D01*
%TO.N,GND*%
X183134000Y-105066000D02*
X183134000Y-105156000D01*
X183172000Y-105028000D02*
X183134000Y-105066000D01*
%TO.N,OUTPUT 3*%
X188172000Y-97608000D02*
X185712000Y-100068000D01*
X185712000Y-100068000D02*
X185712000Y-105028000D01*
%TO.N,GND*%
X163830000Y-105370000D02*
X163830000Y-104648000D01*
X163672000Y-105528000D02*
X163830000Y-105370000D01*
%TO.N,OUTPUT 2*%
X187736000Y-95504000D02*
X187198000Y-95504000D01*
X187736000Y-95504000D02*
X188172000Y-95068000D01*
X167977000Y-91338000D02*
X171707000Y-95068000D01*
X171707000Y-95068000D02*
X188172000Y-95068000D01*
X160357000Y-91338000D02*
X167977000Y-91338000D01*
X157672000Y-97528000D02*
X157672000Y-97090000D01*
X157672000Y-97090000D02*
X160357000Y-94405000D01*
X160357000Y-94405000D02*
X160357000Y-91338000D01*
X157672000Y-97528000D02*
X157672000Y-98948000D01*
X157672000Y-98948000D02*
X154672000Y-101948000D01*
X149672000Y-97448000D02*
X150172000Y-97448000D01*
X150172000Y-97448000D02*
X154672000Y-101948000D01*
%TO.N,Net-(D3-A)*%
X141172000Y-104528000D02*
X141172000Y-107548653D01*
X141172000Y-107548653D02*
X144875347Y-111252000D01*
X144875347Y-111252000D02*
X190754000Y-111252000D01*
X190754000Y-111252000D02*
X193040000Y-108966000D01*
X193040000Y-108966000D02*
X193040000Y-89853064D01*
X193040000Y-89853064D02*
X189208936Y-86022000D01*
X189208936Y-86022000D02*
X187135064Y-86022000D01*
X186746000Y-88562000D02*
X188172000Y-89988000D01*
X187135064Y-86022000D02*
X186746000Y-86411064D01*
X186746000Y-86411064D02*
X186746000Y-88562000D01*
%TO.N,Net-(D3-K)*%
X190246000Y-110236000D02*
X191516000Y-108966000D01*
X144780000Y-110236000D02*
X190246000Y-110236000D01*
X143712000Y-104528000D02*
X143712000Y-109168000D01*
X191516000Y-108966000D02*
X191516000Y-90792000D01*
X143712000Y-109168000D02*
X144780000Y-110236000D01*
X191516000Y-90792000D02*
X188172000Y-87448000D01*
%TO.N,GND*%
X156922000Y-89528000D02*
X160192000Y-86258000D01*
X160192000Y-86258000D02*
X160357000Y-86258000D01*
%TD*%
%TA.AperFunction,Conductor*%
%TO.N,GND*%
G36*
X187201946Y-96249185D02*
G01*
X187247701Y-96301989D01*
X187257645Y-96371147D01*
X187228620Y-96434703D01*
X187207794Y-96453817D01*
X187194490Y-96463482D01*
X187027485Y-96630487D01*
X187027485Y-96630488D01*
X187027483Y-96630490D01*
X186985274Y-96688586D01*
X186888657Y-96821566D01*
X186781433Y-97032003D01*
X186708446Y-97256631D01*
X186671500Y-97489902D01*
X186671500Y-97726097D01*
X186708447Y-97959373D01*
X186708923Y-97961354D01*
X186708884Y-97962127D01*
X186709209Y-97964179D01*
X186708777Y-97964247D01*
X186705420Y-98031136D01*
X186676025Y-98077961D01*
X185148469Y-99605517D01*
X185121674Y-99645618D01*
X185121675Y-99645619D01*
X185069070Y-99724348D01*
X185014381Y-99856379D01*
X185014379Y-99856385D01*
X184986500Y-99996542D01*
X184986500Y-103648419D01*
X184966815Y-103715458D01*
X184935385Y-103748737D01*
X184765437Y-103872211D01*
X184765431Y-103872216D01*
X184603716Y-104033931D01*
X184603709Y-104033940D01*
X184542007Y-104118864D01*
X184486677Y-104161530D01*
X184417063Y-104167508D01*
X184355269Y-104134901D01*
X184341372Y-104118863D01*
X184279907Y-104034263D01*
X184279902Y-104034257D01*
X184118242Y-103872597D01*
X183933276Y-103738211D01*
X183729568Y-103634417D01*
X183512124Y-103563765D01*
X183422000Y-103549490D01*
X183422000Y-104537252D01*
X183384292Y-104515482D01*
X183244409Y-104478000D01*
X183099591Y-104478000D01*
X182959708Y-104515482D01*
X182922000Y-104537252D01*
X182922000Y-103549490D01*
X182921999Y-103549490D01*
X182831873Y-103563765D01*
X182681317Y-103612683D01*
X182611476Y-103614678D01*
X182551643Y-103578597D01*
X182520816Y-103515896D01*
X182519000Y-103494752D01*
X182519000Y-100824373D01*
X182538685Y-100757334D01*
X182555314Y-100736697D01*
X187026783Y-96265227D01*
X187028293Y-96264403D01*
X187029159Y-96262914D01*
X187058838Y-96247724D01*
X187088104Y-96231744D01*
X187090313Y-96231615D01*
X187091356Y-96231082D01*
X187120453Y-96229782D01*
X187120453Y-96229500D01*
X187126545Y-96229500D01*
X187134907Y-96229500D01*
X187201946Y-96249185D01*
G37*
%TD.AperFunction*%
%TA.AperFunction,Conductor*%
G36*
X194904539Y-78746185D02*
G01*
X194950294Y-78798989D01*
X194961500Y-78850500D01*
X194961500Y-112453500D01*
X194941815Y-112520539D01*
X194889011Y-112566294D01*
X194837500Y-112577500D01*
X136088500Y-112577500D01*
X136021461Y-112557815D01*
X135975706Y-112505011D01*
X135964500Y-112453500D01*
X135964500Y-104417778D01*
X139771500Y-104417778D01*
X139771500Y-104638222D01*
X139779747Y-104690292D01*
X139805985Y-104855952D01*
X139874103Y-105065603D01*
X139874104Y-105065606D01*
X139974187Y-105262025D01*
X140103752Y-105440358D01*
X140103756Y-105440363D01*
X140259638Y-105596245D01*
X140310583Y-105633258D01*
X140395385Y-105694869D01*
X140438051Y-105750198D01*
X140446500Y-105795187D01*
X140446500Y-107620108D01*
X140446500Y-107620110D01*
X140446499Y-107620110D01*
X140474379Y-107760267D01*
X140474381Y-107760273D01*
X140529070Y-107892304D01*
X140608469Y-108011135D01*
X144412862Y-111815528D01*
X144412869Y-111815534D01*
X144531691Y-111894928D01*
X144570363Y-111910946D01*
X144663727Y-111949619D01*
X144663731Y-111949619D01*
X144663732Y-111949620D01*
X144803889Y-111977500D01*
X144803892Y-111977500D01*
X190825457Y-111977500D01*
X190919751Y-111958742D01*
X190965620Y-111949619D01*
X191097653Y-111894929D01*
X191216480Y-111815532D01*
X193603532Y-109428480D01*
X193682929Y-109309653D01*
X193737619Y-109177620D01*
X193754801Y-109091241D01*
X193765500Y-109037455D01*
X193765500Y-89781609D01*
X193765500Y-89781606D01*
X193737620Y-89641449D01*
X193737619Y-89641448D01*
X193737619Y-89641444D01*
X193682929Y-89509411D01*
X193659589Y-89474480D01*
X193603533Y-89390585D01*
X193603531Y-89390582D01*
X189671418Y-85458469D01*
X189598731Y-85409902D01*
X189552589Y-85379071D01*
X189420556Y-85324381D01*
X189420550Y-85324379D01*
X189280393Y-85296500D01*
X189280391Y-85296500D01*
X187206520Y-85296500D01*
X187063609Y-85296500D01*
X187063607Y-85296500D01*
X186923449Y-85324379D01*
X186923443Y-85324381D01*
X186791408Y-85379071D01*
X186672586Y-85458465D01*
X186672579Y-85458471D01*
X186182467Y-85948584D01*
X186182465Y-85948586D01*
X186177202Y-85956464D01*
X186176176Y-85958001D01*
X186155457Y-85989009D01*
X186103070Y-86067411D01*
X186048381Y-86199443D01*
X186048379Y-86199449D01*
X186020500Y-86339606D01*
X186020500Y-86339609D01*
X186020500Y-88633455D01*
X186035589Y-88709309D01*
X186048381Y-88773620D01*
X186103070Y-88905651D01*
X186182469Y-89024482D01*
X186182470Y-89024483D01*
X186676026Y-89518038D01*
X186709511Y-89579361D01*
X186708951Y-89631780D01*
X186709209Y-89631821D01*
X186708932Y-89633565D01*
X186708921Y-89634658D01*
X186708446Y-89636634D01*
X186671500Y-89869902D01*
X186671500Y-90106097D01*
X186708446Y-90339368D01*
X186781433Y-90563996D01*
X186885472Y-90768182D01*
X186888657Y-90774433D01*
X187027483Y-90965510D01*
X187194490Y-91132517D01*
X187229127Y-91157683D01*
X187271792Y-91213013D01*
X187277771Y-91282626D01*
X187245165Y-91344421D01*
X187229130Y-91358315D01*
X187211365Y-91371222D01*
X187194488Y-91383484D01*
X187027485Y-91550487D01*
X187027485Y-91550488D01*
X187027483Y-91550490D01*
X186967862Y-91632550D01*
X186888657Y-91741566D01*
X186781433Y-91952003D01*
X186708446Y-92176631D01*
X186671500Y-92409902D01*
X186671500Y-92646097D01*
X186708446Y-92879368D01*
X186781433Y-93103996D01*
X186829810Y-93198940D01*
X186888657Y-93314433D01*
X187027483Y-93505510D01*
X187194490Y-93672517D01*
X187229127Y-93697683D01*
X187271792Y-93753013D01*
X187277771Y-93822626D01*
X187245165Y-93884421D01*
X187229130Y-93898315D01*
X187211365Y-93911222D01*
X187194488Y-93923484D01*
X187027485Y-94090487D01*
X187027485Y-94090488D01*
X187027483Y-94090490D01*
X187018201Y-94103266D01*
X186888657Y-94281566D01*
X186887605Y-94283284D01*
X186887034Y-94283800D01*
X186885793Y-94285509D01*
X186885434Y-94285248D01*
X186835795Y-94330162D01*
X186781874Y-94342500D01*
X180671081Y-94342500D01*
X180604042Y-94322815D01*
X180558287Y-94270011D01*
X180548343Y-94200853D01*
X180577368Y-94137297D01*
X180628694Y-94103266D01*
X180628339Y-94102408D01*
X180632736Y-94100586D01*
X180632762Y-94100569D01*
X180632832Y-94100547D01*
X180801199Y-94014760D01*
X180954073Y-93903690D01*
X181087690Y-93770073D01*
X181198760Y-93617199D01*
X181284547Y-93448832D01*
X181342940Y-93269118D01*
X181356108Y-93185978D01*
X181372500Y-93082486D01*
X181372500Y-92893513D01*
X181342940Y-92706881D01*
X181284545Y-92527163D01*
X181232208Y-92424446D01*
X181198760Y-92358801D01*
X181087690Y-92205927D01*
X180954073Y-92072310D01*
X180801199Y-91961240D01*
X180783080Y-91952008D01*
X180632836Y-91875454D01*
X180453118Y-91817059D01*
X180266486Y-91787500D01*
X180266481Y-91787500D01*
X180077519Y-91787500D01*
X180077514Y-91787500D01*
X179890881Y-91817059D01*
X179711163Y-91875454D01*
X179542800Y-91961240D01*
X179462462Y-92019610D01*
X179389927Y-92072310D01*
X179389925Y-92072312D01*
X179389924Y-92072312D01*
X179256312Y-92205924D01*
X179256312Y-92205925D01*
X179256310Y-92205927D01*
X179208610Y-92271579D01*
X179145240Y-92358800D01*
X179059454Y-92527163D01*
X179001059Y-92706881D01*
X178971500Y-92893513D01*
X178971500Y-93082486D01*
X179001059Y-93269118D01*
X179059454Y-93448836D01*
X179097763Y-93524020D01*
X179145240Y-93617199D01*
X179256310Y-93770073D01*
X179389927Y-93903690D01*
X179542801Y-94014760D01*
X179711168Y-94100547D01*
X179711237Y-94100569D01*
X179711261Y-94100585D01*
X179715661Y-94102408D01*
X179715278Y-94103332D01*
X179768911Y-94140005D01*
X179796110Y-94204363D01*
X179784197Y-94273209D01*
X179736954Y-94324686D01*
X179672919Y-94342500D01*
X172058874Y-94342500D01*
X171991835Y-94322815D01*
X171971193Y-94306181D01*
X171105193Y-93440181D01*
X171071708Y-93378858D01*
X171076692Y-93309166D01*
X171118564Y-93253233D01*
X171184028Y-93228816D01*
X171192874Y-93228500D01*
X171266486Y-93228500D01*
X171453118Y-93198940D01*
X171632832Y-93140547D01*
X171801199Y-93054760D01*
X171954073Y-92943690D01*
X172087690Y-92810073D01*
X172198760Y-92657199D01*
X172284547Y-92488832D01*
X172342940Y-92309118D01*
X172347715Y-92278968D01*
X172372500Y-92122486D01*
X172372500Y-91933513D01*
X175051500Y-91933513D01*
X175051500Y-92122486D01*
X175081059Y-92309118D01*
X175139454Y-92488836D01*
X175210361Y-92627998D01*
X175225240Y-92657199D01*
X175336310Y-92810073D01*
X175469927Y-92943690D01*
X175622801Y-93054760D01*
X175677081Y-93082417D01*
X175791163Y-93140545D01*
X175791165Y-93140545D01*
X175791168Y-93140547D01*
X175887497Y-93171846D01*
X175970881Y-93198940D01*
X176157514Y-93228500D01*
X176157519Y-93228500D01*
X176346486Y-93228500D01*
X176533118Y-93198940D01*
X176712832Y-93140547D01*
X176881199Y-93054760D01*
X177034073Y-92943690D01*
X177167690Y-92810073D01*
X177278760Y-92657199D01*
X177364547Y-92488832D01*
X177422940Y-92309118D01*
X177427715Y-92278968D01*
X177452500Y-92122486D01*
X177452500Y-91933513D01*
X177422940Y-91746881D01*
X177375125Y-91599725D01*
X177364547Y-91567168D01*
X177364545Y-91567165D01*
X177364545Y-91567163D01*
X177299931Y-91440352D01*
X177278760Y-91398801D01*
X177167690Y-91245927D01*
X177034073Y-91112310D01*
X176881199Y-91001240D01*
X176811079Y-90965512D01*
X176712836Y-90915454D01*
X176533118Y-90857059D01*
X176346486Y-90827500D01*
X176346481Y-90827500D01*
X176157519Y-90827500D01*
X176157514Y-90827500D01*
X175970881Y-90857059D01*
X175791163Y-90915454D01*
X175622800Y-91001240D01*
X175547165Y-91056193D01*
X175469927Y-91112310D01*
X175469925Y-91112312D01*
X175469924Y-91112312D01*
X175336312Y-91245924D01*
X175336312Y-91245925D01*
X175336310Y-91245927D01*
X175303395Y-91291231D01*
X175225240Y-91398800D01*
X175139454Y-91567163D01*
X175081059Y-91746881D01*
X175051500Y-91933513D01*
X172372500Y-91933513D01*
X172342940Y-91746881D01*
X172295125Y-91599725D01*
X172284547Y-91567168D01*
X172284545Y-91567165D01*
X172284545Y-91567163D01*
X172219931Y-91440352D01*
X172198760Y-91398801D01*
X172087690Y-91245927D01*
X171954073Y-91112310D01*
X171801199Y-91001240D01*
X171731079Y-90965512D01*
X171632836Y-90915454D01*
X171554869Y-90890121D01*
X171499032Y-90871978D01*
X171441358Y-90832541D01*
X171414160Y-90768182D01*
X171414035Y-90752547D01*
X171413500Y-90752547D01*
X171413500Y-89363874D01*
X171422144Y-89334433D01*
X171428668Y-89304447D01*
X171432422Y-89299431D01*
X171433185Y-89296835D01*
X171449819Y-89276193D01*
X171463776Y-89262236D01*
X171525099Y-89228751D01*
X171570858Y-89227445D01*
X171577519Y-89228500D01*
X171766486Y-89228500D01*
X171953118Y-89198940D01*
X172132832Y-89140547D01*
X172301199Y-89054760D01*
X172454073Y-88943690D01*
X172587690Y-88810073D01*
X172698760Y-88657199D01*
X172784547Y-88488832D01*
X172842940Y-88309118D01*
X172860469Y-88198445D01*
X172872500Y-88122486D01*
X172872500Y-87933513D01*
X172842940Y-87746881D01*
X172792869Y-87592780D01*
X172784547Y-87567168D01*
X172784545Y-87567165D01*
X172784545Y-87567163D01*
X172698759Y-87398800D01*
X172678041Y-87370284D01*
X172587690Y-87245927D01*
X172454073Y-87112310D01*
X172301199Y-87001240D01*
X172282187Y-86991553D01*
X172132836Y-86915454D01*
X171953118Y-86857059D01*
X171766486Y-86827500D01*
X171766481Y-86827500D01*
X171577519Y-86827500D01*
X171577514Y-86827500D01*
X171390881Y-86857059D01*
X171211163Y-86915454D01*
X171042800Y-87001240D01*
X170955579Y-87064610D01*
X170889927Y-87112310D01*
X170889925Y-87112312D01*
X170889924Y-87112312D01*
X170756312Y-87245924D01*
X170756312Y-87245925D01*
X170756310Y-87245927D01*
X170753372Y-87249971D01*
X170645240Y-87398800D01*
X170559454Y-87567163D01*
X170501059Y-87746881D01*
X170471500Y-87933513D01*
X170471500Y-88122489D01*
X170472555Y-88129152D01*
X170463597Y-88198445D01*
X170437762Y-88236224D01*
X170124469Y-88549517D01*
X170072364Y-88627500D01*
X170058717Y-88647923D01*
X170045071Y-88668346D01*
X170045069Y-88668349D01*
X169990381Y-88800379D01*
X169990379Y-88800385D01*
X169962500Y-88940542D01*
X169962500Y-89458126D01*
X169942815Y-89525165D01*
X169890011Y-89570920D01*
X169820853Y-89580864D01*
X169757297Y-89551839D01*
X169750819Y-89545807D01*
X169298639Y-89093627D01*
X169265154Y-89032304D01*
X169263847Y-88986547D01*
X169270360Y-88945431D01*
X169277500Y-88900352D01*
X169277500Y-88695648D01*
X169245477Y-88493466D01*
X169243971Y-88488832D01*
X169216127Y-88403137D01*
X169182220Y-88298781D01*
X169182218Y-88298778D01*
X169182218Y-88298776D01*
X169127582Y-88191548D01*
X169089287Y-88116390D01*
X169081556Y-88105749D01*
X168968971Y-87950786D01*
X168824213Y-87806028D01*
X168658614Y-87685715D01*
X168652006Y-87682348D01*
X168565917Y-87638483D01*
X168515123Y-87590511D01*
X168498328Y-87522690D01*
X168520865Y-87456555D01*
X168565917Y-87417516D01*
X168658610Y-87370287D01*
X168768211Y-87290658D01*
X168824213Y-87249971D01*
X168824215Y-87249968D01*
X168824219Y-87249966D01*
X168968966Y-87105219D01*
X168968968Y-87105215D01*
X168968971Y-87105213D01*
X169032693Y-87017505D01*
X169089287Y-86939610D01*
X169182220Y-86757219D01*
X169245477Y-86562534D01*
X169277500Y-86360352D01*
X169277500Y-86155648D01*
X169263524Y-86067411D01*
X169245477Y-85953465D01*
X169206945Y-85834876D01*
X169182220Y-85758781D01*
X169182218Y-85758778D01*
X169182218Y-85758776D01*
X169089287Y-85576390D01*
X169017746Y-85477921D01*
X169017745Y-85477918D01*
X168968971Y-85410787D01*
X168968967Y-85410782D01*
X168968087Y-85409902D01*
X175671500Y-85409902D01*
X175671500Y-85646097D01*
X175708446Y-85879368D01*
X175781433Y-86103996D01*
X175859902Y-86257999D01*
X175888657Y-86314433D01*
X176027483Y-86505510D01*
X176194490Y-86672517D01*
X176385567Y-86811343D01*
X176438866Y-86838500D01*
X176596003Y-86918566D01*
X176596005Y-86918566D01*
X176596008Y-86918568D01*
X176660778Y-86939613D01*
X176820631Y-86991553D01*
X177053903Y-87028500D01*
X177053908Y-87028500D01*
X177290097Y-87028500D01*
X177523368Y-86991553D01*
X177546857Y-86983921D01*
X177747992Y-86918568D01*
X177958433Y-86811343D01*
X178149510Y-86672517D01*
X178149516Y-86672511D01*
X178153221Y-86669348D01*
X178154662Y-86671035D01*
X178207848Y-86641933D01*
X178277544Y-86646856D01*
X178333514Y-86688678D01*
X178339852Y-86697980D01*
X178369682Y-86746343D01*
X178493654Y-86870315D01*
X178642875Y-86962356D01*
X178642880Y-86962358D01*
X178809302Y-87017505D01*
X178809309Y-87017506D01*
X178912019Y-87027999D01*
X179461999Y-87027999D01*
X179462000Y-87027998D01*
X179462000Y-86076482D01*
X179480409Y-86087111D01*
X179633009Y-86128000D01*
X179790991Y-86128000D01*
X179943591Y-86087111D01*
X179962000Y-86076482D01*
X179962000Y-87027999D01*
X180511972Y-87027999D01*
X180511986Y-87027998D01*
X180614697Y-87017505D01*
X180781119Y-86962358D01*
X180781124Y-86962356D01*
X180930345Y-86870315D01*
X181054315Y-86746345D01*
X181146356Y-86597124D01*
X181146358Y-86597119D01*
X181201505Y-86430697D01*
X181201506Y-86430690D01*
X181211999Y-86327986D01*
X181212000Y-86327973D01*
X181212000Y-85778000D01*
X180260482Y-85778000D01*
X180271111Y-85759591D01*
X180312000Y-85606991D01*
X180312000Y-85449009D01*
X180271111Y-85296409D01*
X180260482Y-85278000D01*
X181211999Y-85278000D01*
X181211999Y-84728028D01*
X181211998Y-84728013D01*
X181201505Y-84625302D01*
X181146358Y-84458880D01*
X181146356Y-84458875D01*
X181054315Y-84309654D01*
X180930345Y-84185684D01*
X180781124Y-84093643D01*
X180781119Y-84093641D01*
X180614697Y-84038494D01*
X180614690Y-84038493D01*
X180511986Y-84028000D01*
X179962000Y-84028000D01*
X179962000Y-84979517D01*
X179943591Y-84968889D01*
X179790991Y-84928000D01*
X179633009Y-84928000D01*
X179480409Y-84968889D01*
X179462000Y-84979517D01*
X179462000Y-84028000D01*
X178912028Y-84028000D01*
X178912012Y-84028001D01*
X178809302Y-84038494D01*
X178642880Y-84093641D01*
X178642875Y-84093643D01*
X178493654Y-84185684D01*
X178369684Y-84309654D01*
X178339850Y-84358022D01*
X178287901Y-84404745D01*
X178218938Y-84415966D01*
X178154856Y-84388122D01*
X178153226Y-84386632D01*
X178153214Y-84386647D01*
X178149517Y-84383490D01*
X178149510Y-84383483D01*
X177958433Y-84244657D01*
X177954176Y-84242488D01*
X177747996Y-84137433D01*
X177523368Y-84064446D01*
X177290097Y-84027500D01*
X177290092Y-84027500D01*
X177053908Y-84027500D01*
X177053903Y-84027500D01*
X176820631Y-84064446D01*
X176596003Y-84137433D01*
X176385566Y-84244657D01*
X176276550Y-84323862D01*
X176194490Y-84383483D01*
X176194488Y-84383485D01*
X176194487Y-84383485D01*
X176027485Y-84550487D01*
X176027485Y-84550488D01*
X176027483Y-84550490D01*
X175973129Y-84625302D01*
X175888657Y-84741566D01*
X175781433Y-84952003D01*
X175708446Y-85176631D01*
X175671500Y-85409902D01*
X168968087Y-85409902D01*
X168824213Y-85266028D01*
X168658611Y-85145713D01*
X168565369Y-85098203D01*
X168514574Y-85050229D01*
X168497779Y-84982407D01*
X168520317Y-84916273D01*
X168565371Y-84877234D01*
X168658346Y-84829861D01*
X168658347Y-84829861D01*
X168702921Y-84797474D01*
X168023447Y-84118000D01*
X168029661Y-84118000D01*
X168131394Y-84090741D01*
X168222606Y-84038080D01*
X168297080Y-83963606D01*
X168349741Y-83872394D01*
X168377000Y-83770661D01*
X168377000Y-83764447D01*
X169056474Y-84443921D01*
X169088859Y-84399349D01*
X169181755Y-84217031D01*
X169244990Y-84022417D01*
X169277000Y-83820317D01*
X169277000Y-83615682D01*
X169244990Y-83413582D01*
X169181755Y-83218968D01*
X169088859Y-83036650D01*
X169056474Y-82992077D01*
X169056474Y-82992076D01*
X168377000Y-83671551D01*
X168377000Y-83665339D01*
X168349741Y-83563606D01*
X168297080Y-83472394D01*
X168222606Y-83397920D01*
X168131394Y-83345259D01*
X168029661Y-83318000D01*
X168023446Y-83318000D01*
X168487934Y-82853513D01*
X170471500Y-82853513D01*
X170471500Y-83042486D01*
X170501059Y-83229118D01*
X170559454Y-83408836D01*
X170638314Y-83563606D01*
X170645240Y-83577199D01*
X170756310Y-83730073D01*
X170889927Y-83863690D01*
X171042801Y-83974760D01*
X171122347Y-84015290D01*
X171211163Y-84060545D01*
X171211165Y-84060545D01*
X171211168Y-84060547D01*
X171304095Y-84090741D01*
X171390881Y-84118940D01*
X171577514Y-84148500D01*
X171577519Y-84148500D01*
X171766486Y-84148500D01*
X171953118Y-84118940D01*
X171956011Y-84118000D01*
X172132832Y-84060547D01*
X172301199Y-83974760D01*
X172454073Y-83863690D01*
X172587690Y-83730073D01*
X172698760Y-83577199D01*
X172784547Y-83408832D01*
X172842940Y-83229118D01*
X172844578Y-83218776D01*
X172872500Y-83042486D01*
X172872500Y-82853513D01*
X172842940Y-82666881D01*
X172815846Y-82583497D01*
X172784547Y-82487168D01*
X172784545Y-82487165D01*
X172784545Y-82487163D01*
X172710146Y-82341148D01*
X172698760Y-82318801D01*
X172587690Y-82165927D01*
X172454073Y-82032310D01*
X172301199Y-81921240D01*
X172132836Y-81835454D01*
X171953118Y-81777059D01*
X171766486Y-81747500D01*
X171766481Y-81747500D01*
X171577519Y-81747500D01*
X171577514Y-81747500D01*
X171390881Y-81777059D01*
X171211163Y-81835454D01*
X171042800Y-81921240D01*
X170955579Y-81984610D01*
X170889927Y-82032310D01*
X170889925Y-82032312D01*
X170889924Y-82032312D01*
X170756312Y-82165924D01*
X170756312Y-82165925D01*
X170756310Y-82165927D01*
X170742243Y-82185289D01*
X170645240Y-82318800D01*
X170559454Y-82487163D01*
X170501059Y-82666881D01*
X170471500Y-82853513D01*
X168487934Y-82853513D01*
X168580481Y-82760966D01*
X168702922Y-82638524D01*
X168702921Y-82638523D01*
X168658359Y-82606147D01*
X168658350Y-82606141D01*
X168476031Y-82513244D01*
X168281417Y-82450009D01*
X168079317Y-82418000D01*
X167874683Y-82418000D01*
X167672582Y-82450009D01*
X167477968Y-82513244D01*
X167295644Y-82606143D01*
X167251077Y-82638523D01*
X167251077Y-82638524D01*
X167930554Y-83318000D01*
X167924339Y-83318000D01*
X167822606Y-83345259D01*
X167731394Y-83397920D01*
X167656920Y-83472394D01*
X167604259Y-83563606D01*
X167577000Y-83665339D01*
X167577000Y-83671553D01*
X166897524Y-82992077D01*
X166897523Y-82992077D01*
X166865143Y-83036644D01*
X166772244Y-83218968D01*
X166709009Y-83413582D01*
X166677000Y-83615682D01*
X166677000Y-83820317D01*
X166709009Y-84022417D01*
X166772244Y-84217031D01*
X166865141Y-84399350D01*
X166865147Y-84399359D01*
X166897523Y-84443921D01*
X166897524Y-84443922D01*
X167577000Y-83764446D01*
X167577000Y-83770661D01*
X167604259Y-83872394D01*
X167656920Y-83963606D01*
X167731394Y-84038080D01*
X167822606Y-84090741D01*
X167924339Y-84118000D01*
X167930553Y-84118000D01*
X167251076Y-84797474D01*
X167295652Y-84829861D01*
X167388628Y-84877234D01*
X167439425Y-84925208D01*
X167456220Y-84993029D01*
X167433683Y-85059164D01*
X167388630Y-85098203D01*
X167295388Y-85145713D01*
X167129786Y-85266028D01*
X166985028Y-85410786D01*
X166864715Y-85576386D01*
X166771781Y-85758776D01*
X166708522Y-85953465D01*
X166684681Y-86103996D01*
X166676500Y-86155648D01*
X166676500Y-86360352D01*
X166679887Y-86381734D01*
X166708522Y-86562534D01*
X166771781Y-86757223D01*
X166829405Y-86870315D01*
X166864585Y-86939359D01*
X166864715Y-86939613D01*
X166985028Y-87105213D01*
X167129786Y-87249971D01*
X167284749Y-87362556D01*
X167295390Y-87370287D01*
X167386840Y-87416883D01*
X167388080Y-87417515D01*
X167438876Y-87465490D01*
X167455671Y-87533311D01*
X167433134Y-87599446D01*
X167388080Y-87638485D01*
X167295386Y-87685715D01*
X167129786Y-87806028D01*
X166985028Y-87950786D01*
X166864715Y-88116386D01*
X166771781Y-88298776D01*
X166708522Y-88493465D01*
X166676500Y-88695648D01*
X166676500Y-88900351D01*
X166708522Y-89102534D01*
X166771781Y-89297223D01*
X166805742Y-89363874D01*
X166862100Y-89474482D01*
X166864715Y-89479613D01*
X166985028Y-89645213D01*
X166985034Y-89645219D01*
X167129781Y-89789966D01*
X167223452Y-89858021D01*
X167266117Y-89913350D01*
X167272096Y-89982963D01*
X167239491Y-90044759D01*
X167189571Y-90076045D01*
X167107666Y-90103186D01*
X167107663Y-90103187D01*
X166958342Y-90195289D01*
X166834289Y-90319342D01*
X166742187Y-90468663D01*
X166742186Y-90468666D01*
X166725187Y-90519967D01*
X166722689Y-90527505D01*
X166682916Y-90584949D01*
X166618400Y-90611772D01*
X166604983Y-90612500D01*
X161500581Y-90612500D01*
X161433542Y-90592815D01*
X161400263Y-90561385D01*
X161348969Y-90490784D01*
X161204213Y-90346028D01*
X161038614Y-90225715D01*
X161007006Y-90209610D01*
X160945917Y-90178483D01*
X160895123Y-90130511D01*
X160878328Y-90062690D01*
X160900865Y-89996555D01*
X160945917Y-89957516D01*
X161038610Y-89910287D01*
X161078159Y-89881553D01*
X161204213Y-89789971D01*
X161204215Y-89789968D01*
X161204219Y-89789966D01*
X161348966Y-89645219D01*
X161348968Y-89645215D01*
X161348971Y-89645213D01*
X161434129Y-89528001D01*
X161469287Y-89479610D01*
X161562220Y-89297219D01*
X161625477Y-89102534D01*
X161657500Y-88900352D01*
X161657500Y-88695648D01*
X161625477Y-88493466D01*
X161623971Y-88488832D01*
X161596127Y-88403137D01*
X161562220Y-88298781D01*
X161562218Y-88298778D01*
X161562218Y-88298776D01*
X161507582Y-88191548D01*
X161469287Y-88116390D01*
X161461556Y-88105749D01*
X161348971Y-87950786D01*
X161204213Y-87806028D01*
X161038611Y-87685713D01*
X160945369Y-87638203D01*
X160894574Y-87590229D01*
X160877779Y-87522407D01*
X160900317Y-87456273D01*
X160945371Y-87417234D01*
X161038346Y-87369861D01*
X161038347Y-87369861D01*
X161082921Y-87337474D01*
X160403447Y-86658000D01*
X160409661Y-86658000D01*
X160511394Y-86630741D01*
X160602606Y-86578080D01*
X160677080Y-86503606D01*
X160729741Y-86412394D01*
X160757000Y-86310661D01*
X160757000Y-86304447D01*
X161436474Y-86983921D01*
X161468859Y-86939349D01*
X161561755Y-86757031D01*
X161624990Y-86562417D01*
X161657000Y-86360317D01*
X161657000Y-86155682D01*
X161624990Y-85953582D01*
X161561755Y-85758968D01*
X161468859Y-85576650D01*
X161436474Y-85532077D01*
X161436474Y-85532076D01*
X160757000Y-86211551D01*
X160757000Y-86205339D01*
X160729741Y-86103606D01*
X160677080Y-86012394D01*
X160602606Y-85937920D01*
X160511394Y-85885259D01*
X160409661Y-85858000D01*
X160403446Y-85858000D01*
X161082922Y-85178524D01*
X161082921Y-85178523D01*
X161038359Y-85146147D01*
X161038350Y-85146141D01*
X160945369Y-85098765D01*
X160894573Y-85050790D01*
X160877778Y-84982969D01*
X160900315Y-84916835D01*
X160945370Y-84877795D01*
X160946471Y-84877234D01*
X161038610Y-84830287D01*
X161153718Y-84746657D01*
X161204213Y-84709971D01*
X161204215Y-84709968D01*
X161204219Y-84709966D01*
X161348966Y-84565219D01*
X161348968Y-84565215D01*
X161348971Y-84565213D01*
X161426229Y-84458875D01*
X161469287Y-84399610D01*
X161562220Y-84217219D01*
X161625477Y-84022534D01*
X161657500Y-83820352D01*
X161657500Y-83615648D01*
X161644101Y-83531054D01*
X161625477Y-83413465D01*
X161594458Y-83318000D01*
X161562220Y-83218781D01*
X161562218Y-83218778D01*
X161562218Y-83218776D01*
X161517564Y-83131139D01*
X161469287Y-83036390D01*
X161437092Y-82992077D01*
X161348971Y-82870786D01*
X161204213Y-82726028D01*
X161038613Y-82605715D01*
X161038612Y-82605714D01*
X161038610Y-82605713D01*
X160981653Y-82576691D01*
X160856223Y-82512781D01*
X160661534Y-82449522D01*
X160486995Y-82421878D01*
X160459352Y-82417500D01*
X160254648Y-82417500D01*
X160230329Y-82421351D01*
X160052465Y-82449522D01*
X159857776Y-82512781D01*
X159675386Y-82605715D01*
X159509786Y-82726028D01*
X159365028Y-82870786D01*
X159244715Y-83036386D01*
X159151781Y-83218776D01*
X159088522Y-83413465D01*
X159056500Y-83615648D01*
X159056500Y-83820351D01*
X159088522Y-84022534D01*
X159151781Y-84217223D01*
X159197133Y-84306230D01*
X159244585Y-84399359D01*
X159244715Y-84399613D01*
X159365028Y-84565213D01*
X159509786Y-84709971D01*
X159675385Y-84830284D01*
X159675387Y-84830285D01*
X159675390Y-84830287D01*
X159767529Y-84877234D01*
X159768630Y-84877795D01*
X159819426Y-84925770D01*
X159836221Y-84993591D01*
X159813684Y-85059725D01*
X159768630Y-85098765D01*
X159675644Y-85146143D01*
X159631077Y-85178523D01*
X159631077Y-85178524D01*
X160310554Y-85858000D01*
X160304339Y-85858000D01*
X160202606Y-85885259D01*
X160111394Y-85937920D01*
X160036920Y-86012394D01*
X159984259Y-86103606D01*
X159957000Y-86205339D01*
X159957000Y-86211553D01*
X159277524Y-85532077D01*
X159277523Y-85532077D01*
X159245143Y-85576644D01*
X159152244Y-85758968D01*
X159089009Y-85953582D01*
X159057000Y-86155682D01*
X159057000Y-86360317D01*
X159089009Y-86562417D01*
X159152244Y-86757031D01*
X159245141Y-86939350D01*
X159245147Y-86939359D01*
X159277523Y-86983921D01*
X159277524Y-86983922D01*
X159957000Y-86304446D01*
X159957000Y-86310661D01*
X159984259Y-86412394D01*
X160036920Y-86503606D01*
X160111394Y-86578080D01*
X160202606Y-86630741D01*
X160304339Y-86658000D01*
X160310553Y-86658000D01*
X159631076Y-87337474D01*
X159675652Y-87369861D01*
X159768628Y-87417234D01*
X159819425Y-87465208D01*
X159836220Y-87533029D01*
X159813683Y-87599164D01*
X159768630Y-87638203D01*
X159675388Y-87685713D01*
X159509786Y-87806028D01*
X159365028Y-87950786D01*
X159244715Y-88116386D01*
X159151781Y-88298776D01*
X159088522Y-88493465D01*
X159056500Y-88695648D01*
X159056500Y-88900351D01*
X159088522Y-89102534D01*
X159151781Y-89297223D01*
X159185742Y-89363874D01*
X159242100Y-89474482D01*
X159244715Y-89479613D01*
X159365028Y-89645213D01*
X159509786Y-89789971D01*
X159662251Y-89900741D01*
X159675390Y-89910287D01*
X159766840Y-89956883D01*
X159768080Y-89957515D01*
X159818876Y-90005490D01*
X159835671Y-90073311D01*
X159813134Y-90139446D01*
X159768080Y-90178485D01*
X159675386Y-90225715D01*
X159509786Y-90346028D01*
X159365028Y-90490786D01*
X159244715Y-90656386D01*
X159151781Y-90838776D01*
X159088522Y-91033465D01*
X159056500Y-91235648D01*
X159056500Y-91440351D01*
X159088522Y-91642534D01*
X159151781Y-91837223D01*
X159244715Y-92019613D01*
X159365028Y-92185213D01*
X159365034Y-92185219D01*
X159509781Y-92329966D01*
X159580384Y-92381262D01*
X159623051Y-92436591D01*
X159631500Y-92481580D01*
X159631500Y-94053125D01*
X159611815Y-94120164D01*
X159595181Y-94140806D01*
X157219212Y-96516774D01*
X157187827Y-96539577D01*
X157095214Y-96586766D01*
X157088411Y-96591709D01*
X156955072Y-96688586D01*
X156955070Y-96688588D01*
X156955069Y-96688588D01*
X156832588Y-96811069D01*
X156832581Y-96811078D01*
X156769049Y-96898521D01*
X156713719Y-96941187D01*
X156659003Y-96949253D01*
X156608289Y-96945261D01*
X156025553Y-97527999D01*
X156025553Y-97528000D01*
X156608289Y-98110736D01*
X156659007Y-98106747D01*
X156664325Y-98107864D01*
X156669549Y-98106368D01*
X156698146Y-98114970D01*
X156727384Y-98121113D01*
X156732638Y-98125345D01*
X156736457Y-98126494D01*
X156749722Y-98139105D01*
X156762978Y-98149782D01*
X156766173Y-98153519D01*
X156832586Y-98244928D01*
X156913602Y-98325944D01*
X156916746Y-98329621D01*
X156929148Y-98357258D01*
X156943666Y-98383846D01*
X156944481Y-98391427D01*
X156945351Y-98393366D01*
X156944965Y-98395929D01*
X156946500Y-98410204D01*
X156946500Y-98596125D01*
X156926815Y-98663164D01*
X156910181Y-98683806D01*
X154880224Y-100713762D01*
X154818901Y-100747247D01*
X154773152Y-100748555D01*
X154766489Y-100747500D01*
X154766481Y-100747500D01*
X154577519Y-100747500D01*
X154577516Y-100747500D01*
X154570855Y-100748555D01*
X154501561Y-100739601D01*
X154463775Y-100713763D01*
X152214301Y-98464289D01*
X155089261Y-98464289D01*
X155089262Y-98464290D01*
X155095471Y-98468801D01*
X155249742Y-98547408D01*
X155414415Y-98600914D01*
X155585429Y-98628000D01*
X155758571Y-98628000D01*
X155929584Y-98600914D01*
X156094257Y-98547408D01*
X156248525Y-98468803D01*
X156254736Y-98464289D01*
X156254737Y-98464289D01*
X155672001Y-97881553D01*
X155672000Y-97881553D01*
X155089261Y-98464289D01*
X152214301Y-98464289D01*
X151308819Y-97558807D01*
X151294115Y-97531879D01*
X151277523Y-97506061D01*
X151276631Y-97499860D01*
X151275334Y-97497484D01*
X151272500Y-97471126D01*
X151272500Y-97441428D01*
X154572000Y-97441428D01*
X154572000Y-97614571D01*
X154599085Y-97785584D01*
X154652592Y-97950259D01*
X154731196Y-98104525D01*
X154735709Y-98110736D01*
X154735709Y-98110737D01*
X155318446Y-97528001D01*
X155318446Y-97527999D01*
X155278951Y-97488504D01*
X155372000Y-97488504D01*
X155372000Y-97567496D01*
X155392444Y-97643796D01*
X155431940Y-97712205D01*
X155487795Y-97768060D01*
X155556204Y-97807556D01*
X155632504Y-97828000D01*
X155711496Y-97828000D01*
X155787796Y-97807556D01*
X155856205Y-97768060D01*
X155912060Y-97712205D01*
X155951556Y-97643796D01*
X155972000Y-97567496D01*
X155972000Y-97488504D01*
X155951556Y-97412204D01*
X155912060Y-97343795D01*
X155856205Y-97287940D01*
X155787796Y-97248444D01*
X155711496Y-97228000D01*
X155632504Y-97228000D01*
X155556204Y-97248444D01*
X155487795Y-97287940D01*
X155431940Y-97343795D01*
X155392444Y-97412204D01*
X155372000Y-97488504D01*
X155278951Y-97488504D01*
X154735709Y-96945261D01*
X154735708Y-96945261D01*
X154731203Y-96951463D01*
X154731193Y-96951480D01*
X154652592Y-97105740D01*
X154599085Y-97270415D01*
X154572000Y-97441428D01*
X151272500Y-97441428D01*
X151272500Y-96591708D01*
X155089261Y-96591708D01*
X155089261Y-96591709D01*
X155672000Y-97174446D01*
X155672001Y-97174446D01*
X156254737Y-96591709D01*
X156248525Y-96587196D01*
X156094259Y-96508592D01*
X155929584Y-96455085D01*
X155758571Y-96428000D01*
X155585429Y-96428000D01*
X155414415Y-96455085D01*
X155249740Y-96508592D01*
X155095480Y-96587193D01*
X155095463Y-96587203D01*
X155089261Y-96591708D01*
X151272500Y-96591708D01*
X151272500Y-96547995D01*
X151272499Y-96547982D01*
X151271640Y-96539577D01*
X151261999Y-96445202D01*
X151206814Y-96278665D01*
X151114712Y-96129344D01*
X150990656Y-96005288D01*
X150845012Y-95915454D01*
X150841337Y-95913187D01*
X150841332Y-95913185D01*
X150839863Y-95912698D01*
X150674798Y-95858001D01*
X150674796Y-95858000D01*
X150572017Y-95847500D01*
X150572010Y-95847500D01*
X148771990Y-95847500D01*
X148771982Y-95847500D01*
X148669203Y-95858000D01*
X148669202Y-95858001D01*
X148586669Y-95885349D01*
X148502667Y-95913185D01*
X148502662Y-95913187D01*
X148353342Y-96005289D01*
X148229289Y-96129342D01*
X148137187Y-96278662D01*
X148137185Y-96278667D01*
X148129457Y-96301989D01*
X148082001Y-96445202D01*
X148082001Y-96445203D01*
X148082000Y-96445203D01*
X148071500Y-96547982D01*
X148071500Y-98348017D01*
X148082000Y-98450796D01*
X148137185Y-98617332D01*
X148137187Y-98617337D01*
X148165454Y-98663164D01*
X148229288Y-98766656D01*
X148353344Y-98890712D01*
X148502665Y-98982814D01*
X148669202Y-99037999D01*
X148771990Y-99048500D01*
X148771995Y-99048500D01*
X150572005Y-99048500D01*
X150572010Y-99048500D01*
X150671698Y-99038315D01*
X150740388Y-99051084D01*
X150771980Y-99073992D01*
X153437763Y-101739775D01*
X153471248Y-101801098D01*
X153472555Y-101846855D01*
X153471500Y-101853515D01*
X153471500Y-102042486D01*
X153501059Y-102229118D01*
X153559454Y-102408836D01*
X153639261Y-102565465D01*
X153645240Y-102577199D01*
X153756310Y-102730073D01*
X153889927Y-102863690D01*
X154042801Y-102974760D01*
X154122347Y-103015290D01*
X154211163Y-103060545D01*
X154211165Y-103060545D01*
X154211168Y-103060547D01*
X154307497Y-103091846D01*
X154390881Y-103118940D01*
X154577514Y-103148500D01*
X154577519Y-103148500D01*
X154766486Y-103148500D01*
X154953118Y-103118940D01*
X155132832Y-103060547D01*
X155301199Y-102974760D01*
X155454073Y-102863690D01*
X155587690Y-102730073D01*
X155698760Y-102577199D01*
X155784547Y-102408832D01*
X155842940Y-102229118D01*
X155849391Y-102188386D01*
X155872500Y-102042486D01*
X155872500Y-101853521D01*
X155871444Y-101846855D01*
X155880398Y-101777562D01*
X155906233Y-101739777D01*
X158235533Y-99410479D01*
X158314929Y-99291653D01*
X158369619Y-99159620D01*
X158387237Y-99071050D01*
X158397500Y-99019457D01*
X158397500Y-98410204D01*
X158417185Y-98343165D01*
X158433819Y-98322523D01*
X158465824Y-98290518D01*
X158511414Y-98244928D01*
X158613232Y-98104788D01*
X158691873Y-97950445D01*
X158745402Y-97785701D01*
X158772500Y-97614611D01*
X158772500Y-97441389D01*
X158745402Y-97270299D01*
X158713045Y-97170715D01*
X158711050Y-97100874D01*
X158743295Y-97044716D01*
X158854498Y-96933513D01*
X160431500Y-96933513D01*
X160431500Y-97122486D01*
X160461059Y-97309118D01*
X160519454Y-97488836D01*
X160559534Y-97567496D01*
X160605240Y-97657199D01*
X160716310Y-97810073D01*
X160849927Y-97943690D01*
X161002801Y-98054760D01*
X161048336Y-98077961D01*
X161171163Y-98140545D01*
X161171165Y-98140545D01*
X161171168Y-98140547D01*
X161238689Y-98162486D01*
X161350881Y-98198940D01*
X161537514Y-98228500D01*
X161537519Y-98228500D01*
X161726486Y-98228500D01*
X161913118Y-98198940D01*
X162092832Y-98140547D01*
X162261199Y-98054760D01*
X162414073Y-97943690D01*
X162547690Y-97810073D01*
X162658760Y-97657199D01*
X162744547Y-97488832D01*
X162802940Y-97309118D01*
X162824861Y-97170715D01*
X162832500Y-97122486D01*
X162832500Y-96933513D01*
X162802940Y-96746881D01*
X162752521Y-96591709D01*
X162744547Y-96567168D01*
X162744545Y-96567165D01*
X162744545Y-96567163D01*
X162691717Y-96463483D01*
X162658760Y-96398801D01*
X162547690Y-96245927D01*
X162414073Y-96112310D01*
X162261199Y-96001240D01*
X162092836Y-95915454D01*
X161913118Y-95857059D01*
X161726486Y-95827500D01*
X161726481Y-95827500D01*
X161537519Y-95827500D01*
X161537514Y-95827500D01*
X161350881Y-95857059D01*
X161171163Y-95915454D01*
X161002800Y-96001240D01*
X160915579Y-96064610D01*
X160849927Y-96112310D01*
X160849925Y-96112312D01*
X160849924Y-96112312D01*
X160716312Y-96245924D01*
X160716312Y-96245925D01*
X160716310Y-96245927D01*
X160692523Y-96278667D01*
X160605240Y-96398800D01*
X160519454Y-96567163D01*
X160461059Y-96746881D01*
X160431500Y-96933513D01*
X158854498Y-96933513D01*
X158947045Y-96840966D01*
X159872558Y-95915454D01*
X160920532Y-94867480D01*
X160999929Y-94748653D01*
X161054619Y-94616620D01*
X161067864Y-94550032D01*
X161082500Y-94476455D01*
X161082500Y-92481580D01*
X161102185Y-92414541D01*
X161133614Y-92381262D01*
X161204219Y-92329966D01*
X161348966Y-92185219D01*
X161355205Y-92176632D01*
X161400263Y-92114615D01*
X161455593Y-92071949D01*
X161500581Y-92063500D01*
X166604983Y-92063500D01*
X166672022Y-92083185D01*
X166717777Y-92135989D01*
X166722686Y-92148489D01*
X166742186Y-92207334D01*
X166834288Y-92356656D01*
X166958344Y-92480712D01*
X167107666Y-92572814D01*
X167274203Y-92627999D01*
X167376991Y-92638500D01*
X168200125Y-92638499D01*
X168267164Y-92658183D01*
X168287806Y-92674818D01*
X170394807Y-94781819D01*
X170428292Y-94843142D01*
X170423308Y-94912834D01*
X170381436Y-94968767D01*
X170315972Y-94993184D01*
X170307126Y-94993500D01*
X169317138Y-94993500D01*
X169176980Y-95021379D01*
X169176974Y-95021381D01*
X169044943Y-95076070D01*
X168926112Y-95155469D01*
X167982469Y-96099112D01*
X167950519Y-96146928D01*
X167950520Y-96146929D01*
X167903070Y-96217943D01*
X167880429Y-96272604D01*
X167836588Y-96327007D01*
X167770294Y-96349072D01*
X167702594Y-96331793D01*
X167665550Y-96298037D01*
X167651477Y-96278667D01*
X167627690Y-96245927D01*
X167494073Y-96112310D01*
X167341199Y-96001240D01*
X167172836Y-95915454D01*
X166993118Y-95857059D01*
X166806486Y-95827500D01*
X166806481Y-95827500D01*
X166617519Y-95827500D01*
X166617514Y-95827500D01*
X166430881Y-95857059D01*
X166251163Y-95915454D01*
X166082800Y-96001240D01*
X165995579Y-96064610D01*
X165929927Y-96112310D01*
X165929925Y-96112312D01*
X165929924Y-96112312D01*
X165796312Y-96245924D01*
X165796312Y-96245925D01*
X165796310Y-96245927D01*
X165772523Y-96278667D01*
X165685240Y-96398800D01*
X165599454Y-96567163D01*
X165541059Y-96746881D01*
X165511500Y-96933513D01*
X165511500Y-97122486D01*
X165541059Y-97309118D01*
X165599454Y-97488836D01*
X165639534Y-97567496D01*
X165685240Y-97657199D01*
X165796310Y-97810073D01*
X165929927Y-97943690D01*
X166082801Y-98054760D01*
X166128336Y-98077961D01*
X166188442Y-98108587D01*
X166239238Y-98156562D01*
X166256033Y-98224383D01*
X166233495Y-98290518D01*
X166219828Y-98306753D01*
X165648469Y-98878112D01*
X165621483Y-98918499D01*
X165621484Y-98918500D01*
X165569070Y-98996943D01*
X165514381Y-99128974D01*
X165514379Y-99128980D01*
X165486500Y-99269137D01*
X165486500Y-104148419D01*
X165466815Y-104215458D01*
X165435385Y-104248737D01*
X165265437Y-104372211D01*
X165265431Y-104372216D01*
X165103716Y-104533931D01*
X165103709Y-104533940D01*
X165042007Y-104618864D01*
X164986677Y-104661530D01*
X164917063Y-104667508D01*
X164855269Y-104634901D01*
X164841372Y-104618863D01*
X164779907Y-104534263D01*
X164779902Y-104534257D01*
X164618242Y-104372597D01*
X164433276Y-104238211D01*
X164229568Y-104134417D01*
X164012124Y-104063765D01*
X163922000Y-104049490D01*
X163922000Y-105037252D01*
X163884292Y-105015482D01*
X163744409Y-104978000D01*
X163599591Y-104978000D01*
X163459708Y-105015482D01*
X163422000Y-105037252D01*
X163422000Y-104049490D01*
X163421999Y-104049490D01*
X163331875Y-104063765D01*
X163114431Y-104134417D01*
X162910723Y-104238211D01*
X162725757Y-104372597D01*
X162564097Y-104534257D01*
X162429711Y-104719223D01*
X162325917Y-104922929D01*
X162255265Y-105140371D01*
X162233468Y-105278000D01*
X163181252Y-105278000D01*
X163159482Y-105315708D01*
X163122000Y-105455591D01*
X163122000Y-105600409D01*
X163159482Y-105740292D01*
X163181252Y-105778000D01*
X162233468Y-105778000D01*
X162255265Y-105915628D01*
X162325917Y-106133070D01*
X162429711Y-106336776D01*
X162564097Y-106521742D01*
X162725757Y-106683402D01*
X162910723Y-106817788D01*
X163114429Y-106921582D01*
X163331871Y-106992234D01*
X163422000Y-107006509D01*
X163422000Y-106018747D01*
X163459708Y-106040518D01*
X163599591Y-106078000D01*
X163744409Y-106078000D01*
X163884292Y-106040518D01*
X163922000Y-106018747D01*
X163922000Y-107006508D01*
X164012128Y-106992234D01*
X164229570Y-106921582D01*
X164433276Y-106817788D01*
X164618242Y-106683402D01*
X164779905Y-106521739D01*
X164841371Y-106437137D01*
X164896701Y-106394470D01*
X164966314Y-106388491D01*
X165028109Y-106421096D01*
X165042007Y-106437134D01*
X165103714Y-106522066D01*
X165265434Y-106683786D01*
X165450462Y-106818217D01*
X165582599Y-106885544D01*
X165654244Y-106922049D01*
X165871751Y-106992721D01*
X165871752Y-106992721D01*
X165871755Y-106992722D01*
X166097646Y-107028500D01*
X166097647Y-107028500D01*
X166326353Y-107028500D01*
X166326354Y-107028500D01*
X166552245Y-106992722D01*
X166552248Y-106992721D01*
X166552249Y-106992721D01*
X166769755Y-106922049D01*
X166769755Y-106922048D01*
X166769758Y-106922048D01*
X166973538Y-106818217D01*
X167156245Y-106685472D01*
X167222046Y-106661994D01*
X167290100Y-106677819D01*
X167338795Y-106727924D01*
X167345308Y-106742459D01*
X167355702Y-106770328D01*
X167355706Y-106770335D01*
X167441952Y-106885544D01*
X167441955Y-106885547D01*
X167557164Y-106971793D01*
X167557171Y-106971797D01*
X167692017Y-107022091D01*
X167692016Y-107022091D01*
X167698944Y-107022835D01*
X167751627Y-107028500D01*
X169752372Y-107028499D01*
X169811983Y-107022091D01*
X169946831Y-106971796D01*
X170062046Y-106885546D01*
X170148296Y-106770331D01*
X170198591Y-106635483D01*
X170205000Y-106575873D01*
X170204999Y-104480128D01*
X170198591Y-104420517D01*
X170197569Y-104417778D01*
X170148297Y-104285671D01*
X170148293Y-104285664D01*
X170062047Y-104170455D01*
X170062044Y-104170452D01*
X169946835Y-104084206D01*
X169946828Y-104084202D01*
X169811982Y-104033908D01*
X169811983Y-104033908D01*
X169752383Y-104027501D01*
X169752381Y-104027500D01*
X169752373Y-104027500D01*
X169752364Y-104027500D01*
X167751629Y-104027500D01*
X167751623Y-104027501D01*
X167692016Y-104033908D01*
X167557171Y-104084202D01*
X167557164Y-104084206D01*
X167441955Y-104170452D01*
X167441952Y-104170455D01*
X167355706Y-104285664D01*
X167355703Y-104285670D01*
X167345308Y-104313541D01*
X167329981Y-104334014D01*
X167318050Y-104356627D01*
X167309393Y-104361515D01*
X167303436Y-104369474D01*
X167279478Y-104378409D01*
X167257211Y-104390985D01*
X167247285Y-104390417D01*
X167237972Y-104393891D01*
X167212988Y-104388456D01*
X167187456Y-104386996D01*
X167174253Y-104380029D01*
X167169699Y-104379039D01*
X167156250Y-104370531D01*
X166988612Y-104248735D01*
X166945949Y-104193407D01*
X166937500Y-104148419D01*
X166937500Y-102767648D01*
X174975500Y-102767648D01*
X174975500Y-102972352D01*
X174979878Y-102999995D01*
X175007522Y-103174534D01*
X175070781Y-103369223D01*
X175116909Y-103459752D01*
X175160819Y-103545931D01*
X175163715Y-103551613D01*
X175284028Y-103717213D01*
X175428786Y-103861971D01*
X175583749Y-103974556D01*
X175594390Y-103982287D01*
X175710607Y-104041503D01*
X175776776Y-104075218D01*
X175776778Y-104075218D01*
X175776781Y-104075220D01*
X175881137Y-104109127D01*
X175971465Y-104138477D01*
X176034236Y-104148419D01*
X176173648Y-104170500D01*
X176173649Y-104170500D01*
X176378351Y-104170500D01*
X176378352Y-104170500D01*
X176580534Y-104138477D01*
X176775219Y-104075220D01*
X176957610Y-103982287D01*
X177079278Y-103893891D01*
X177123213Y-103861971D01*
X177123215Y-103861968D01*
X177123219Y-103861966D01*
X177267966Y-103717219D01*
X177267968Y-103717215D01*
X177267971Y-103717213D01*
X177343915Y-103612683D01*
X177388287Y-103551610D01*
X177481220Y-103369219D01*
X177544477Y-103174534D01*
X177576500Y-102972352D01*
X177576500Y-102767648D01*
X177570549Y-102730073D01*
X177544477Y-102565465D01*
X177493585Y-102408836D01*
X177481220Y-102370781D01*
X177481218Y-102370778D01*
X177481218Y-102370776D01*
X177447503Y-102304607D01*
X177388287Y-102188390D01*
X177380556Y-102177749D01*
X177267971Y-102022786D01*
X177123213Y-101878028D01*
X176957613Y-101757715D01*
X176957612Y-101757714D01*
X176957610Y-101757713D01*
X176900653Y-101728691D01*
X176775223Y-101664781D01*
X176580534Y-101601522D01*
X176405995Y-101573878D01*
X176378352Y-101569500D01*
X176173648Y-101569500D01*
X176149329Y-101573351D01*
X175971465Y-101601522D01*
X175776776Y-101664781D01*
X175594386Y-101757715D01*
X175428786Y-101878028D01*
X175284028Y-102022786D01*
X175163715Y-102188386D01*
X175070781Y-102370776D01*
X175007522Y-102565465D01*
X174981451Y-102730073D01*
X174975500Y-102767648D01*
X166937500Y-102767648D01*
X166937500Y-99692469D01*
X166957185Y-99625430D01*
X166973819Y-99604788D01*
X168674741Y-97903866D01*
X168736064Y-97870381D01*
X168805756Y-97875365D01*
X168850103Y-97903866D01*
X168889927Y-97943690D01*
X169042801Y-98054760D01*
X169088336Y-98077961D01*
X169211163Y-98140545D01*
X169211165Y-98140545D01*
X169211168Y-98140547D01*
X169278689Y-98162486D01*
X169390881Y-98198940D01*
X169577514Y-98228500D01*
X169577519Y-98228500D01*
X169766486Y-98228500D01*
X169953118Y-98198940D01*
X170132832Y-98140547D01*
X170301199Y-98054760D01*
X170454073Y-97943690D01*
X170587690Y-97810073D01*
X170698760Y-97657199D01*
X170784547Y-97488832D01*
X170842940Y-97309118D01*
X170864861Y-97170715D01*
X170872500Y-97122486D01*
X170872500Y-96933513D01*
X170842940Y-96746881D01*
X170811364Y-96649703D01*
X170797429Y-96606817D01*
X170795435Y-96536978D01*
X170831515Y-96477145D01*
X170894215Y-96446316D01*
X170915361Y-96444500D01*
X173508639Y-96444500D01*
X173575678Y-96464185D01*
X173621433Y-96516989D01*
X173631377Y-96586147D01*
X173626570Y-96606819D01*
X173581059Y-96746881D01*
X173551500Y-96933513D01*
X173551500Y-97122486D01*
X173581059Y-97309118D01*
X173639454Y-97488836D01*
X173679534Y-97567496D01*
X173725240Y-97657199D01*
X173836310Y-97810073D01*
X173969927Y-97943690D01*
X174122801Y-98054760D01*
X174168336Y-98077961D01*
X174291163Y-98140545D01*
X174291165Y-98140545D01*
X174291168Y-98140547D01*
X174358689Y-98162486D01*
X174470881Y-98198940D01*
X174657514Y-98228500D01*
X174657519Y-98228500D01*
X174846486Y-98228500D01*
X175033118Y-98198940D01*
X175212832Y-98140547D01*
X175381199Y-98054760D01*
X175493025Y-97973513D01*
X178971500Y-97973513D01*
X178971500Y-98162486D01*
X179001059Y-98349118D01*
X179059454Y-98528836D01*
X179104547Y-98617335D01*
X179145240Y-98697199D01*
X179256310Y-98850073D01*
X179389927Y-98983690D01*
X179542801Y-99094760D01*
X179588852Y-99118224D01*
X179711163Y-99180545D01*
X179711165Y-99180545D01*
X179711168Y-99180547D01*
X179807497Y-99211846D01*
X179890881Y-99238940D01*
X180077514Y-99268500D01*
X180077519Y-99268500D01*
X180266486Y-99268500D01*
X180453118Y-99238940D01*
X180632832Y-99180547D01*
X180801199Y-99094760D01*
X180954073Y-98983690D01*
X181087690Y-98850073D01*
X181198760Y-98697199D01*
X181284547Y-98528832D01*
X181342940Y-98349118D01*
X181370736Y-98173621D01*
X181372500Y-98162486D01*
X181372500Y-97973513D01*
X181342940Y-97786881D01*
X181284545Y-97607163D01*
X181239290Y-97518347D01*
X181198760Y-97438801D01*
X181087690Y-97285927D01*
X180954073Y-97152310D01*
X180801199Y-97041240D01*
X180783080Y-97032008D01*
X180632836Y-96955454D01*
X180453118Y-96897059D01*
X180266486Y-96867500D01*
X180266481Y-96867500D01*
X180077519Y-96867500D01*
X180077514Y-96867500D01*
X179890881Y-96897059D01*
X179711163Y-96955454D01*
X179542800Y-97041240D01*
X179462865Y-97099317D01*
X179389927Y-97152310D01*
X179389925Y-97152312D01*
X179389924Y-97152312D01*
X179256312Y-97285924D01*
X179256312Y-97285925D01*
X179256310Y-97285927D01*
X179239461Y-97309118D01*
X179145240Y-97438800D01*
X179059454Y-97607163D01*
X179001059Y-97786881D01*
X178971500Y-97973513D01*
X175493025Y-97973513D01*
X175534073Y-97943690D01*
X175667690Y-97810073D01*
X175778760Y-97657199D01*
X175864547Y-97488832D01*
X175922940Y-97309118D01*
X175944861Y-97170715D01*
X175952500Y-97122486D01*
X175952500Y-96933513D01*
X175922940Y-96746881D01*
X175891364Y-96649703D01*
X175877429Y-96606817D01*
X175875435Y-96536978D01*
X175911515Y-96477145D01*
X175974215Y-96446316D01*
X175995361Y-96444500D01*
X184496126Y-96444500D01*
X184563165Y-96464185D01*
X184608920Y-96516989D01*
X184618864Y-96586147D01*
X184589839Y-96649703D01*
X184583807Y-96656181D01*
X181229967Y-100010020D01*
X181229965Y-100010022D01*
X181211132Y-100038211D01*
X181211130Y-100038214D01*
X181150574Y-100128840D01*
X181150569Y-100128849D01*
X181095881Y-100260879D01*
X181095879Y-100260885D01*
X181068000Y-100401042D01*
X181068000Y-100401045D01*
X181068000Y-105717948D01*
X181068000Y-105717950D01*
X181067999Y-105717950D01*
X181089791Y-105827497D01*
X181089791Y-105827498D01*
X181095879Y-105858106D01*
X181095880Y-105858110D01*
X181095881Y-105858113D01*
X181150571Y-105990146D01*
X181184228Y-106040518D01*
X181229969Y-106108975D01*
X182138524Y-107017530D01*
X182138527Y-107017532D01*
X182257354Y-107096929D01*
X182389387Y-107151619D01*
X182389391Y-107151619D01*
X182389392Y-107151620D01*
X182529549Y-107179500D01*
X182529552Y-107179500D01*
X189701957Y-107179500D01*
X189796251Y-107160742D01*
X189842120Y-107151619D01*
X189974153Y-107096929D01*
X190092979Y-107017532D01*
X190194032Y-106916479D01*
X190273429Y-106797653D01*
X190328119Y-106665620D01*
X190348065Y-106565345D01*
X190356000Y-106525457D01*
X190356000Y-93915042D01*
X190328120Y-93774885D01*
X190328119Y-93774884D01*
X190328119Y-93774880D01*
X190275756Y-93648465D01*
X190274110Y-93643864D01*
X190194035Y-93524024D01*
X190194029Y-93524016D01*
X189667973Y-92997961D01*
X189634488Y-92936638D01*
X189635052Y-92884221D01*
X189634791Y-92884180D01*
X189635072Y-92882404D01*
X189635084Y-92881316D01*
X189635546Y-92879386D01*
X189635553Y-92879368D01*
X189649203Y-92793185D01*
X189672500Y-92646097D01*
X189672500Y-92409902D01*
X189635553Y-92176631D01*
X189580477Y-92007126D01*
X189562568Y-91952008D01*
X189562566Y-91952005D01*
X189562566Y-91952003D01*
X189504080Y-91837219D01*
X189455343Y-91741567D01*
X189316517Y-91550490D01*
X189149510Y-91383483D01*
X189114872Y-91358317D01*
X189072207Y-91302989D01*
X189066228Y-91233375D01*
X189098833Y-91171580D01*
X189114873Y-91157682D01*
X189133878Y-91143874D01*
X189149510Y-91132517D01*
X189316517Y-90965510D01*
X189455343Y-90774433D01*
X189562568Y-90563992D01*
X189635553Y-90339368D01*
X189652421Y-90232865D01*
X189682348Y-90169735D01*
X189741660Y-90132803D01*
X189811522Y-90133801D01*
X189862574Y-90164586D01*
X190754181Y-91056193D01*
X190787666Y-91117516D01*
X190790500Y-91143874D01*
X190790500Y-108614126D01*
X190770815Y-108681165D01*
X190754181Y-108701807D01*
X189981807Y-109474181D01*
X189920484Y-109507666D01*
X189894126Y-109510500D01*
X145131874Y-109510500D01*
X145064835Y-109490815D01*
X145044193Y-109474181D01*
X144473819Y-108903807D01*
X144440334Y-108842484D01*
X144437500Y-108816126D01*
X144437500Y-107482038D01*
X148071500Y-107482038D01*
X148071500Y-107733961D01*
X148110910Y-107982785D01*
X148188760Y-108222383D01*
X148303132Y-108446848D01*
X148451201Y-108650649D01*
X148451205Y-108650654D01*
X148629345Y-108828794D01*
X148629350Y-108828798D01*
X148682603Y-108867488D01*
X148833155Y-108976870D01*
X148952060Y-109037455D01*
X149057616Y-109091239D01*
X149057618Y-109091239D01*
X149057621Y-109091241D01*
X149297215Y-109169090D01*
X149546038Y-109208500D01*
X149546039Y-109208500D01*
X149797961Y-109208500D01*
X149797962Y-109208500D01*
X150046785Y-109169090D01*
X150286379Y-109091241D01*
X150510845Y-108976870D01*
X150714656Y-108828793D01*
X150892793Y-108650656D01*
X151040870Y-108446845D01*
X151155241Y-108222379D01*
X151233090Y-107982785D01*
X151272500Y-107733962D01*
X151272500Y-107482038D01*
X151233090Y-107233215D01*
X151155241Y-106993621D01*
X151124614Y-106933513D01*
X153471500Y-106933513D01*
X153471500Y-107122486D01*
X153501059Y-107309118D01*
X153559454Y-107488836D01*
X153626341Y-107620108D01*
X153645240Y-107657199D01*
X153756310Y-107810073D01*
X153889927Y-107943690D01*
X154042801Y-108054760D01*
X154122347Y-108095290D01*
X154211163Y-108140545D01*
X154211165Y-108140545D01*
X154211168Y-108140547D01*
X154242025Y-108150573D01*
X154390881Y-108198940D01*
X154577514Y-108228500D01*
X154577519Y-108228500D01*
X154766486Y-108228500D01*
X154953118Y-108198940D01*
X155132832Y-108140547D01*
X155301199Y-108054760D01*
X155454073Y-107943690D01*
X155587690Y-107810073D01*
X155698760Y-107657199D01*
X155784547Y-107488832D01*
X155842940Y-107309118D01*
X155860733Y-107196779D01*
X155872500Y-107122486D01*
X155872500Y-106933513D01*
X155842940Y-106746881D01*
X155806744Y-106635482D01*
X155784547Y-106567168D01*
X155784545Y-106567165D01*
X155784545Y-106567163D01*
X155718292Y-106437135D01*
X155698760Y-106398801D01*
X155587690Y-106245927D01*
X155454073Y-106112310D01*
X155301199Y-106001240D01*
X155132836Y-105915454D01*
X154958683Y-105858868D01*
X154958682Y-105858868D01*
X154953116Y-105857059D01*
X154766486Y-105827500D01*
X154766481Y-105827500D01*
X154577519Y-105827500D01*
X154577514Y-105827500D01*
X154390881Y-105857059D01*
X154211163Y-105915454D01*
X154042800Y-106001240D01*
X153979942Y-106046910D01*
X153889927Y-106112310D01*
X153889925Y-106112312D01*
X153889924Y-106112312D01*
X153756312Y-106245924D01*
X153756312Y-106245925D01*
X153756310Y-106245927D01*
X153708610Y-106311579D01*
X153645240Y-106398800D01*
X153559454Y-106567163D01*
X153501059Y-106746881D01*
X153471500Y-106933513D01*
X151124614Y-106933513D01*
X151040870Y-106769155D01*
X151010914Y-106727924D01*
X150892798Y-106565350D01*
X150892794Y-106565345D01*
X150714654Y-106387205D01*
X150714649Y-106387201D01*
X150510848Y-106239132D01*
X150510847Y-106239131D01*
X150510845Y-106239130D01*
X150440747Y-106203413D01*
X150286383Y-106124760D01*
X150046785Y-106046910D01*
X150006428Y-106040518D01*
X149797962Y-106007500D01*
X149546038Y-106007500D01*
X149421626Y-106027205D01*
X149297214Y-106046910D01*
X149057616Y-106124760D01*
X148833151Y-106239132D01*
X148629350Y-106387201D01*
X148629345Y-106387205D01*
X148451205Y-106565345D01*
X148451201Y-106565350D01*
X148303132Y-106769151D01*
X148188760Y-106993616D01*
X148110910Y-107233214D01*
X148071500Y-107482038D01*
X144437500Y-107482038D01*
X144437500Y-106052499D01*
X144457185Y-105985460D01*
X144509989Y-105939705D01*
X144561500Y-105928499D01*
X144659871Y-105928499D01*
X144659872Y-105928499D01*
X144719483Y-105922091D01*
X144854331Y-105871796D01*
X144969546Y-105785546D01*
X145055796Y-105670331D01*
X145106091Y-105535483D01*
X145112500Y-105475873D01*
X145112499Y-104515482D01*
X145112499Y-103580129D01*
X145112498Y-103580123D01*
X145109205Y-103549490D01*
X145106091Y-103520517D01*
X145104367Y-103515896D01*
X145055797Y-103385671D01*
X145055793Y-103385664D01*
X144969547Y-103270455D01*
X144969544Y-103270452D01*
X144854335Y-103184206D01*
X144854328Y-103184202D01*
X144719482Y-103133908D01*
X144719483Y-103133908D01*
X144659883Y-103127501D01*
X144659881Y-103127500D01*
X144659873Y-103127500D01*
X144659864Y-103127500D01*
X142764129Y-103127500D01*
X142764123Y-103127501D01*
X142704516Y-103133908D01*
X142569671Y-103184202D01*
X142569664Y-103184206D01*
X142454455Y-103270452D01*
X142454452Y-103270455D01*
X142368206Y-103385664D01*
X142368203Y-103385669D01*
X142338398Y-103465581D01*
X142296526Y-103521514D01*
X142231062Y-103545931D01*
X142162789Y-103531079D01*
X142134535Y-103509928D01*
X142084363Y-103459756D01*
X142084358Y-103459752D01*
X141906025Y-103330187D01*
X141906024Y-103330186D01*
X141906022Y-103330185D01*
X141788791Y-103270452D01*
X141709606Y-103230104D01*
X141709603Y-103230103D01*
X141499952Y-103161985D01*
X141391086Y-103144742D01*
X141282222Y-103127500D01*
X141061778Y-103127500D01*
X140989201Y-103138995D01*
X140844047Y-103161985D01*
X140634396Y-103230103D01*
X140634393Y-103230104D01*
X140437974Y-103330187D01*
X140259641Y-103459752D01*
X140259636Y-103459756D01*
X140103756Y-103615636D01*
X140103752Y-103615641D01*
X139974187Y-103793974D01*
X139874104Y-103990393D01*
X139874103Y-103990396D01*
X139805985Y-104200047D01*
X139784767Y-104334014D01*
X139771500Y-104417778D01*
X135964500Y-104417778D01*
X135964500Y-93925682D01*
X139872000Y-93925682D01*
X139872000Y-94130317D01*
X139904009Y-94332417D01*
X139967244Y-94527031D01*
X140060141Y-94709350D01*
X140060147Y-94709359D01*
X140092523Y-94753921D01*
X140092524Y-94753922D01*
X140772000Y-94074446D01*
X140772000Y-94080661D01*
X140799259Y-94182394D01*
X140851920Y-94273606D01*
X140926394Y-94348080D01*
X141017606Y-94400741D01*
X141119339Y-94428000D01*
X141125553Y-94428000D01*
X140446076Y-95107474D01*
X140490650Y-95139859D01*
X140672968Y-95232755D01*
X140867582Y-95295990D01*
X141069683Y-95328000D01*
X141274317Y-95328000D01*
X141476417Y-95295990D01*
X141671031Y-95232755D01*
X141853349Y-95139859D01*
X141897921Y-95107474D01*
X141218447Y-94428000D01*
X141224661Y-94428000D01*
X141326394Y-94400741D01*
X141417606Y-94348080D01*
X141492080Y-94273606D01*
X141544741Y-94182394D01*
X141572000Y-94080661D01*
X141572000Y-94074447D01*
X142251473Y-94753921D01*
X142289280Y-94750946D01*
X142357658Y-94765310D01*
X142407415Y-94814361D01*
X142416714Y-94835556D01*
X142437186Y-94897334D01*
X142529288Y-95046656D01*
X142653344Y-95170712D01*
X142802666Y-95262814D01*
X142969203Y-95317999D01*
X143071991Y-95328500D01*
X144272008Y-95328499D01*
X144374797Y-95317999D01*
X144541334Y-95262814D01*
X144690656Y-95170712D01*
X144814712Y-95046656D01*
X144906814Y-94897334D01*
X144961999Y-94730797D01*
X144972500Y-94628009D01*
X144972499Y-93427992D01*
X144961999Y-93325203D01*
X144906814Y-93158666D01*
X144814712Y-93009344D01*
X144690656Y-92885288D01*
X144568714Y-92810074D01*
X144541336Y-92793187D01*
X144541335Y-92793186D01*
X144541334Y-92793186D01*
X144374797Y-92738001D01*
X144374795Y-92738000D01*
X144272010Y-92727500D01*
X143071998Y-92727500D01*
X143071981Y-92727501D01*
X142969203Y-92738000D01*
X142969200Y-92738001D01*
X142802668Y-92793185D01*
X142802663Y-92793187D01*
X142653342Y-92885289D01*
X142529289Y-93009342D01*
X142437187Y-93158663D01*
X142437186Y-93158666D01*
X142423841Y-93198940D01*
X142416717Y-93220438D01*
X142376944Y-93277883D01*
X142312428Y-93304706D01*
X142289283Y-93305052D01*
X142251474Y-93302076D01*
X141572000Y-93981551D01*
X141572000Y-93975339D01*
X141544741Y-93873606D01*
X141492080Y-93782394D01*
X141417606Y-93707920D01*
X141326394Y-93655259D01*
X141224661Y-93628000D01*
X141218446Y-93628000D01*
X141897922Y-92948524D01*
X141897921Y-92948523D01*
X141853359Y-92916147D01*
X141853350Y-92916141D01*
X141671031Y-92823244D01*
X141476417Y-92760009D01*
X141274317Y-92728000D01*
X141069683Y-92728000D01*
X140867582Y-92760009D01*
X140672968Y-92823244D01*
X140490644Y-92916143D01*
X140446077Y-92948523D01*
X140446077Y-92948524D01*
X141125554Y-93628000D01*
X141119339Y-93628000D01*
X141017606Y-93655259D01*
X140926394Y-93707920D01*
X140851920Y-93782394D01*
X140799259Y-93873606D01*
X140772000Y-93975339D01*
X140772000Y-93981553D01*
X140092524Y-93302077D01*
X140092523Y-93302077D01*
X140060143Y-93346644D01*
X139967244Y-93528968D01*
X139904009Y-93723582D01*
X139872000Y-93925682D01*
X135964500Y-93925682D01*
X135964500Y-90175648D01*
X148871500Y-90175648D01*
X148871500Y-90380351D01*
X148903522Y-90582534D01*
X148966781Y-90777223D01*
X149059715Y-90959613D01*
X149180028Y-91125213D01*
X149324786Y-91269971D01*
X149490385Y-91390284D01*
X149490387Y-91390285D01*
X149490390Y-91390287D01*
X149544378Y-91417795D01*
X149595174Y-91465769D01*
X149611969Y-91533590D01*
X149589432Y-91599725D01*
X149544378Y-91638765D01*
X149490644Y-91666143D01*
X149446077Y-91698523D01*
X149446077Y-91698524D01*
X150125554Y-92378000D01*
X150119339Y-92378000D01*
X150017606Y-92405259D01*
X149926394Y-92457920D01*
X149851920Y-92532394D01*
X149799259Y-92623606D01*
X149772000Y-92725339D01*
X149772000Y-92731553D01*
X149092524Y-92052077D01*
X149092523Y-92052077D01*
X149060143Y-92096644D01*
X148967244Y-92278968D01*
X148904009Y-92473582D01*
X148872000Y-92675682D01*
X148872000Y-92880317D01*
X148904009Y-93082417D01*
X148967244Y-93277031D01*
X149060141Y-93459350D01*
X149060147Y-93459359D01*
X149092523Y-93503921D01*
X149092524Y-93503922D01*
X149772000Y-92824446D01*
X149772000Y-92830661D01*
X149799259Y-92932394D01*
X149851920Y-93023606D01*
X149926394Y-93098080D01*
X150017606Y-93150741D01*
X150119339Y-93178000D01*
X150125553Y-93178000D01*
X149446076Y-93857474D01*
X149490650Y-93889859D01*
X149672968Y-93982755D01*
X149867582Y-94045990D01*
X150069683Y-94078000D01*
X150274317Y-94078000D01*
X150476417Y-94045990D01*
X150671031Y-93982755D01*
X150853349Y-93889859D01*
X150897921Y-93857474D01*
X150218447Y-93178000D01*
X150224661Y-93178000D01*
X150326394Y-93150741D01*
X150417606Y-93098080D01*
X150492080Y-93023606D01*
X150544741Y-92932394D01*
X150572000Y-92830661D01*
X150572000Y-92824448D01*
X151251474Y-93503922D01*
X151251474Y-93503921D01*
X151283859Y-93459349D01*
X151376755Y-93277031D01*
X151439990Y-93082417D01*
X151472000Y-92880317D01*
X151472000Y-92675682D01*
X151439990Y-92473582D01*
X151376755Y-92278968D01*
X151283859Y-92096650D01*
X151251474Y-92052077D01*
X151251474Y-92052076D01*
X150572000Y-92731551D01*
X150572000Y-92725339D01*
X150544741Y-92623606D01*
X150492080Y-92532394D01*
X150417606Y-92457920D01*
X150326394Y-92405259D01*
X150224661Y-92378000D01*
X150218446Y-92378000D01*
X150897922Y-91698524D01*
X150897921Y-91698523D01*
X150853359Y-91666147D01*
X150853350Y-91666141D01*
X150799621Y-91638765D01*
X150748825Y-91590791D01*
X150732030Y-91522970D01*
X150754567Y-91456835D01*
X150799621Y-91417795D01*
X150853610Y-91390287D01*
X150953203Y-91317929D01*
X151019213Y-91269971D01*
X151019215Y-91269968D01*
X151019219Y-91269966D01*
X151163966Y-91125219D01*
X151163968Y-91125215D01*
X151163971Y-91125213D01*
X151230628Y-91033466D01*
X151284287Y-90959610D01*
X151377220Y-90777219D01*
X151440477Y-90582534D01*
X151472500Y-90380352D01*
X151472500Y-90175648D01*
X151461023Y-90103186D01*
X151440477Y-89973465D01*
X151402966Y-89858020D01*
X151377220Y-89778781D01*
X151377218Y-89778778D01*
X151377218Y-89778776D01*
X151284287Y-89596390D01*
X151209651Y-89493661D01*
X151209650Y-89493658D01*
X151163971Y-89430787D01*
X151163967Y-89430782D01*
X151158833Y-89425648D01*
X153121500Y-89425648D01*
X153121500Y-89630351D01*
X153153522Y-89832534D01*
X153216781Y-90027223D01*
X153280691Y-90152653D01*
X153309585Y-90209359D01*
X153309715Y-90209613D01*
X153430028Y-90375213D01*
X153574786Y-90519971D01*
X153695226Y-90607474D01*
X153740390Y-90640287D01*
X153856607Y-90699503D01*
X153922776Y-90733218D01*
X153922778Y-90733218D01*
X153922781Y-90733220D01*
X154027137Y-90767127D01*
X154117465Y-90796477D01*
X154218557Y-90812488D01*
X154319648Y-90828500D01*
X154319649Y-90828500D01*
X154524351Y-90828500D01*
X154524352Y-90828500D01*
X154726534Y-90796477D01*
X154921219Y-90733220D01*
X155103610Y-90640287D01*
X155196590Y-90572732D01*
X155269213Y-90519971D01*
X155269215Y-90519968D01*
X155269219Y-90519966D01*
X155413966Y-90375219D01*
X155413968Y-90375215D01*
X155413971Y-90375213D01*
X155522586Y-90225715D01*
X155534287Y-90209610D01*
X155561795Y-90155621D01*
X155609769Y-90104826D01*
X155677589Y-90088030D01*
X155743725Y-90110567D01*
X155782765Y-90155621D01*
X155810141Y-90209350D01*
X155810147Y-90209359D01*
X155842523Y-90253921D01*
X155842524Y-90253922D01*
X156522000Y-89574446D01*
X156522000Y-89580661D01*
X156549259Y-89682394D01*
X156601920Y-89773606D01*
X156676394Y-89848080D01*
X156767606Y-89900741D01*
X156869339Y-89928000D01*
X156875553Y-89928000D01*
X156196076Y-90607474D01*
X156240650Y-90639859D01*
X156422968Y-90732755D01*
X156617582Y-90795990D01*
X156819683Y-90828000D01*
X157024317Y-90828000D01*
X157226417Y-90795990D01*
X157421031Y-90732755D01*
X157603349Y-90639859D01*
X157647921Y-90607474D01*
X156968447Y-89928000D01*
X156974661Y-89928000D01*
X157076394Y-89900741D01*
X157167606Y-89848080D01*
X157242080Y-89773606D01*
X157294741Y-89682394D01*
X157322000Y-89580661D01*
X157322000Y-89574448D01*
X158001474Y-90253922D01*
X158001474Y-90253921D01*
X158033859Y-90209349D01*
X158126755Y-90027031D01*
X158189990Y-89832417D01*
X158222000Y-89630317D01*
X158222000Y-89425682D01*
X158189990Y-89223582D01*
X158126755Y-89028968D01*
X158033859Y-88846650D01*
X158001474Y-88802077D01*
X158001474Y-88802076D01*
X157322000Y-89481551D01*
X157322000Y-89475339D01*
X157294741Y-89373606D01*
X157242080Y-89282394D01*
X157167606Y-89207920D01*
X157076394Y-89155259D01*
X156974661Y-89128000D01*
X156968446Y-89128000D01*
X157647922Y-88448524D01*
X157647921Y-88448523D01*
X157603359Y-88416147D01*
X157603350Y-88416141D01*
X157421031Y-88323244D01*
X157226417Y-88260009D01*
X157024317Y-88228000D01*
X156819683Y-88228000D01*
X156617582Y-88260009D01*
X156422968Y-88323244D01*
X156240644Y-88416143D01*
X156196077Y-88448523D01*
X156196077Y-88448524D01*
X156875554Y-89128000D01*
X156869339Y-89128000D01*
X156767606Y-89155259D01*
X156676394Y-89207920D01*
X156601920Y-89282394D01*
X156549259Y-89373606D01*
X156522000Y-89475339D01*
X156522000Y-89481553D01*
X155842524Y-88802077D01*
X155842523Y-88802077D01*
X155810143Y-88846644D01*
X155782765Y-88900378D01*
X155734790Y-88951174D01*
X155666969Y-88967969D01*
X155600834Y-88945431D01*
X155561795Y-88900378D01*
X155561782Y-88900352D01*
X155534287Y-88846390D01*
X155534285Y-88846387D01*
X155534284Y-88846385D01*
X155413971Y-88680786D01*
X155269213Y-88536028D01*
X155103613Y-88415715D01*
X155103612Y-88415714D01*
X155103610Y-88415713D01*
X155046653Y-88386691D01*
X154921223Y-88322781D01*
X154726534Y-88259522D01*
X154551995Y-88231878D01*
X154524352Y-88227500D01*
X154319648Y-88227500D01*
X154295329Y-88231351D01*
X154117465Y-88259522D01*
X153922776Y-88322781D01*
X153740386Y-88415715D01*
X153574786Y-88536028D01*
X153430028Y-88680786D01*
X153309715Y-88846386D01*
X153216781Y-89028776D01*
X153153522Y-89223465D01*
X153121500Y-89425648D01*
X151158833Y-89425648D01*
X151019213Y-89286028D01*
X150853613Y-89165715D01*
X150853612Y-89165714D01*
X150853610Y-89165713D01*
X150779594Y-89128000D01*
X150671223Y-89072781D01*
X150476534Y-89009522D01*
X150301995Y-88981878D01*
X150274352Y-88977500D01*
X150069648Y-88977500D01*
X150045329Y-88981351D01*
X149867465Y-89009522D01*
X149672776Y-89072781D01*
X149490386Y-89165715D01*
X149324786Y-89286028D01*
X149180028Y-89430786D01*
X149059715Y-89596386D01*
X148966781Y-89778776D01*
X148903522Y-89973465D01*
X148871500Y-90175648D01*
X135964500Y-90175648D01*
X135964500Y-82727983D01*
X141211500Y-82727983D01*
X141211500Y-84328001D01*
X141211501Y-84328018D01*
X141222000Y-84430796D01*
X141222001Y-84430799D01*
X141254346Y-84528407D01*
X141277186Y-84597334D01*
X141369288Y-84746656D01*
X141493344Y-84870712D01*
X141642666Y-84962814D01*
X141809203Y-85017999D01*
X141911991Y-85028500D01*
X141974692Y-85028499D01*
X142041729Y-85048183D01*
X142062372Y-85064818D01*
X142500941Y-85503387D01*
X142480409Y-85508889D01*
X142343592Y-85587881D01*
X142231881Y-85699592D01*
X142152889Y-85836409D01*
X142147387Y-85856941D01*
X141489340Y-85198894D01*
X141429084Y-85281830D01*
X141321897Y-85492197D01*
X141248934Y-85716752D01*
X141212000Y-85949947D01*
X141212000Y-86186052D01*
X141248934Y-86419247D01*
X141321897Y-86643802D01*
X141429087Y-86854174D01*
X141489338Y-86937104D01*
X141489340Y-86937105D01*
X142147387Y-86279058D01*
X142152889Y-86299591D01*
X142231881Y-86436408D01*
X142343592Y-86548119D01*
X142480409Y-86627111D01*
X142500940Y-86632612D01*
X141842893Y-87290658D01*
X141925828Y-87350914D01*
X142136197Y-87458102D01*
X142360752Y-87531065D01*
X142360751Y-87531065D01*
X142593948Y-87568000D01*
X142830052Y-87568000D01*
X143063247Y-87531065D01*
X143287802Y-87458102D01*
X143498163Y-87350918D01*
X143498169Y-87350914D01*
X143581104Y-87290658D01*
X143581105Y-87290658D01*
X142923058Y-86632612D01*
X142943591Y-86627111D01*
X143080408Y-86548119D01*
X143192119Y-86436408D01*
X143271111Y-86299591D01*
X143276612Y-86279059D01*
X143934658Y-86937105D01*
X143934658Y-86937104D01*
X143994914Y-86854169D01*
X143994918Y-86854163D01*
X144102102Y-86643802D01*
X144175065Y-86419247D01*
X144212000Y-86186052D01*
X144212000Y-85949947D01*
X144175065Y-85716752D01*
X144102102Y-85492196D01*
X144093994Y-85476282D01*
X144067793Y-85424861D01*
X151861500Y-85424861D01*
X151861500Y-85631138D01*
X151893769Y-85834877D01*
X151893769Y-85834880D01*
X151957510Y-86031054D01*
X151986073Y-86087111D01*
X152051160Y-86214852D01*
X152172407Y-86381733D01*
X152318267Y-86527593D01*
X152485148Y-86648840D01*
X152563335Y-86688678D01*
X152668945Y-86742489D01*
X152865120Y-86806230D01*
X152865121Y-86806230D01*
X152865124Y-86806231D01*
X153068861Y-86838500D01*
X153068862Y-86838500D01*
X153275138Y-86838500D01*
X153275139Y-86838500D01*
X153478876Y-86806231D01*
X153478879Y-86806230D01*
X153478880Y-86806230D01*
X153675054Y-86742489D01*
X153675054Y-86742488D01*
X153675057Y-86742488D01*
X153858852Y-86648840D01*
X154025733Y-86527593D01*
X154171593Y-86381733D01*
X154292840Y-86214852D01*
X154357928Y-86087111D01*
X154386488Y-86031057D01*
X154386488Y-86031056D01*
X154410228Y-85957994D01*
X154450231Y-85834876D01*
X154482500Y-85631139D01*
X154482500Y-85424861D01*
X154450231Y-85221124D01*
X154450230Y-85221120D01*
X154450230Y-85221119D01*
X154386489Y-85024945D01*
X154335957Y-84925770D01*
X154292840Y-84841148D01*
X154171593Y-84674267D01*
X154025733Y-84528407D01*
X153858852Y-84407160D01*
X153818593Y-84386647D01*
X153675054Y-84313510D01*
X153478879Y-84249769D01*
X153326073Y-84225567D01*
X153275139Y-84217500D01*
X153068861Y-84217500D01*
X153000948Y-84228256D01*
X152865122Y-84249769D01*
X152865119Y-84249769D01*
X152668945Y-84313510D01*
X152485147Y-84407160D01*
X152318265Y-84528408D01*
X152172408Y-84674265D01*
X152051160Y-84841147D01*
X151957510Y-85024945D01*
X151893769Y-85221119D01*
X151893769Y-85221122D01*
X151861500Y-85424861D01*
X144067793Y-85424861D01*
X143994914Y-85281828D01*
X143934658Y-85198894D01*
X143934658Y-85198893D01*
X143276612Y-85856940D01*
X143271111Y-85836409D01*
X143192119Y-85699592D01*
X143080408Y-85587881D01*
X142943591Y-85508889D01*
X142923058Y-85503387D01*
X143361627Y-85064818D01*
X143422950Y-85031333D01*
X143449307Y-85028499D01*
X143512008Y-85028499D01*
X143614797Y-85017999D01*
X143781334Y-84962814D01*
X143930656Y-84870712D01*
X144054712Y-84746656D01*
X144146814Y-84597334D01*
X144201999Y-84430797D01*
X144212500Y-84328009D01*
X144212499Y-82924861D01*
X149361500Y-82924861D01*
X149361500Y-83131138D01*
X149393769Y-83334877D01*
X149393769Y-83334880D01*
X149457510Y-83531054D01*
X149481022Y-83577199D01*
X149551160Y-83714852D01*
X149672407Y-83881733D01*
X149818267Y-84027593D01*
X149985148Y-84148840D01*
X150057459Y-84185684D01*
X150168945Y-84242489D01*
X150365120Y-84306230D01*
X150365121Y-84306230D01*
X150365124Y-84306231D01*
X150568861Y-84338500D01*
X150568862Y-84338500D01*
X150775138Y-84338500D01*
X150775139Y-84338500D01*
X150978876Y-84306231D01*
X150978879Y-84306230D01*
X150978880Y-84306230D01*
X151175054Y-84242489D01*
X151175054Y-84242488D01*
X151175057Y-84242488D01*
X151358852Y-84148840D01*
X151525733Y-84027593D01*
X151671593Y-83881733D01*
X151792840Y-83714852D01*
X151886488Y-83531057D01*
X151940623Y-83364446D01*
X151950230Y-83334880D01*
X151950230Y-83334879D01*
X151950231Y-83334876D01*
X151982500Y-83131139D01*
X151982500Y-82924861D01*
X154361500Y-82924861D01*
X154361500Y-83131138D01*
X154393769Y-83334877D01*
X154393769Y-83334880D01*
X154457510Y-83531054D01*
X154481022Y-83577199D01*
X154551160Y-83714852D01*
X154672407Y-83881733D01*
X154818267Y-84027593D01*
X154985148Y-84148840D01*
X155057459Y-84185684D01*
X155168945Y-84242489D01*
X155365120Y-84306230D01*
X155365121Y-84306230D01*
X155365124Y-84306231D01*
X155568861Y-84338500D01*
X155568862Y-84338500D01*
X155775138Y-84338500D01*
X155775139Y-84338500D01*
X155978876Y-84306231D01*
X155978879Y-84306230D01*
X155978880Y-84306230D01*
X156175054Y-84242489D01*
X156175054Y-84242488D01*
X156175057Y-84242488D01*
X156358852Y-84148840D01*
X156525733Y-84027593D01*
X156671593Y-83881733D01*
X156792840Y-83714852D01*
X156867476Y-83568370D01*
X156874553Y-83554481D01*
X156876368Y-83550917D01*
X156886488Y-83531057D01*
X156940623Y-83364446D01*
X156950230Y-83334880D01*
X156950230Y-83334879D01*
X156950231Y-83334876D01*
X156982500Y-83131139D01*
X156982500Y-82924861D01*
X156950231Y-82721124D01*
X156950230Y-82721120D01*
X156950230Y-82721119D01*
X156886489Y-82524945D01*
X156848307Y-82450009D01*
X156792840Y-82341148D01*
X156671593Y-82174267D01*
X156525733Y-82028407D01*
X156358852Y-81907160D01*
X156218119Y-81835453D01*
X156175054Y-81813510D01*
X155978879Y-81749769D01*
X155826073Y-81725567D01*
X155775139Y-81717500D01*
X155568861Y-81717500D01*
X155500948Y-81728256D01*
X155365122Y-81749769D01*
X155365119Y-81749769D01*
X155168945Y-81813510D01*
X154985147Y-81907160D01*
X154818265Y-82028408D01*
X154672408Y-82174265D01*
X154551160Y-82341147D01*
X154457510Y-82524945D01*
X154393769Y-82721119D01*
X154393769Y-82721122D01*
X154361500Y-82924861D01*
X151982500Y-82924861D01*
X151950231Y-82721124D01*
X151950230Y-82721120D01*
X151950230Y-82721119D01*
X151886489Y-82524945D01*
X151848307Y-82450009D01*
X151792840Y-82341148D01*
X151671593Y-82174267D01*
X151525733Y-82028407D01*
X151358852Y-81907160D01*
X151218119Y-81835453D01*
X151175054Y-81813510D01*
X150978879Y-81749769D01*
X150826073Y-81725567D01*
X150775139Y-81717500D01*
X150568861Y-81717500D01*
X150500948Y-81728256D01*
X150365122Y-81749769D01*
X150365119Y-81749769D01*
X150168945Y-81813510D01*
X149985147Y-81907160D01*
X149818265Y-82028408D01*
X149672408Y-82174265D01*
X149551160Y-82341147D01*
X149457510Y-82524945D01*
X149393769Y-82721119D01*
X149393769Y-82721122D01*
X149361500Y-82924861D01*
X144212499Y-82924861D01*
X144212499Y-82727992D01*
X144211797Y-82721124D01*
X144201999Y-82625203D01*
X144201998Y-82625200D01*
X144195541Y-82605713D01*
X144146814Y-82458666D01*
X144054712Y-82309344D01*
X143930656Y-82185288D01*
X143781334Y-82093186D01*
X143614797Y-82038001D01*
X143614795Y-82038000D01*
X143512010Y-82027500D01*
X141911998Y-82027500D01*
X141911981Y-82027501D01*
X141809203Y-82038000D01*
X141809200Y-82038001D01*
X141642668Y-82093185D01*
X141642663Y-82093187D01*
X141493342Y-82185289D01*
X141369289Y-82309342D01*
X141277187Y-82458663D01*
X141277185Y-82458668D01*
X141255224Y-82524943D01*
X141222001Y-82625203D01*
X141222001Y-82625204D01*
X141222000Y-82625204D01*
X141211500Y-82727983D01*
X135964500Y-82727983D01*
X135964500Y-78850500D01*
X135984185Y-78783461D01*
X136036989Y-78737706D01*
X136088500Y-78726500D01*
X194837500Y-78726500D01*
X194904539Y-78746185D01*
G37*
%TD.AperFunction*%
%TD*%
M02*
