%TF.GenerationSoftware,KiCad,Pcbnew,9.0.5*%
%TF.CreationDate,2025-10-18T19:48:00+03:00*%
%TF.ProjectId,train,74726169-6e2e-46b6-9963-61645f706362,rev?*%
%TF.SameCoordinates,Original*%
%TF.FileFunction,Legend,Top*%
%TF.FilePolarity,Positive*%
%FSLAX46Y46*%
G04 Gerber Fmt 4.6, Leading zero omitted, Abs format (unit mm)*
G04 Created by KiCad (PCBNEW 9.0.5) date 2025-10-18 19:48:00*
%MOMM*%
%LPD*%
G01*
G04 APERTURE LIST*
%ADD10C,0.150000*%
%ADD11C,0.120000*%
G04 APERTURE END LIST*
D10*
X174942666Y-100274819D02*
X174609333Y-99798628D01*
X174371238Y-100274819D02*
X174371238Y-99274819D01*
X174371238Y-99274819D02*
X174752190Y-99274819D01*
X174752190Y-99274819D02*
X174847428Y-99322438D01*
X174847428Y-99322438D02*
X174895047Y-99370057D01*
X174895047Y-99370057D02*
X174942666Y-99465295D01*
X174942666Y-99465295D02*
X174942666Y-99608152D01*
X174942666Y-99608152D02*
X174895047Y-99703390D01*
X174895047Y-99703390D02*
X174847428Y-99751009D01*
X174847428Y-99751009D02*
X174752190Y-99798628D01*
X174752190Y-99798628D02*
X174371238Y-99798628D01*
X175371238Y-99751009D02*
X175704571Y-99751009D01*
X175847428Y-100274819D02*
X175371238Y-100274819D01*
X175371238Y-100274819D02*
X175371238Y-99274819D01*
X175371238Y-99274819D02*
X175847428Y-99274819D01*
X176609333Y-99751009D02*
X176276000Y-99751009D01*
X176276000Y-100274819D02*
X176276000Y-99274819D01*
X176276000Y-99274819D02*
X176752190Y-99274819D01*
X177276000Y-99274819D02*
X177276000Y-99512914D01*
X177037905Y-99417676D02*
X177276000Y-99512914D01*
X177276000Y-99512914D02*
X177514095Y-99417676D01*
X177133143Y-99703390D02*
X177276000Y-99512914D01*
X177276000Y-99512914D02*
X177418857Y-99703390D01*
X178037905Y-99274819D02*
X178037905Y-99512914D01*
X177799810Y-99417676D02*
X178037905Y-99512914D01*
X178037905Y-99512914D02*
X178276000Y-99417676D01*
X177895048Y-99703390D02*
X178037905Y-99512914D01*
X178037905Y-99512914D02*
X178180762Y-99703390D01*
X146863009Y-85583714D02*
X146910628Y-85440857D01*
X146910628Y-85440857D02*
X146958247Y-85393238D01*
X146958247Y-85393238D02*
X147053485Y-85345619D01*
X147053485Y-85345619D02*
X147196342Y-85345619D01*
X147196342Y-85345619D02*
X147291580Y-85393238D01*
X147291580Y-85393238D02*
X147339200Y-85440857D01*
X147339200Y-85440857D02*
X147386819Y-85536095D01*
X147386819Y-85536095D02*
X147386819Y-85917047D01*
X147386819Y-85917047D02*
X146386819Y-85917047D01*
X146386819Y-85917047D02*
X146386819Y-85583714D01*
X146386819Y-85583714D02*
X146434438Y-85488476D01*
X146434438Y-85488476D02*
X146482057Y-85440857D01*
X146482057Y-85440857D02*
X146577295Y-85393238D01*
X146577295Y-85393238D02*
X146672533Y-85393238D01*
X146672533Y-85393238D02*
X146767771Y-85440857D01*
X146767771Y-85440857D02*
X146815390Y-85488476D01*
X146815390Y-85488476D02*
X146863009Y-85583714D01*
X146863009Y-85583714D02*
X146863009Y-85917047D01*
X146386819Y-85059904D02*
X146386819Y-84488476D01*
X147386819Y-84774190D02*
X146386819Y-84774190D01*
X147386819Y-83631333D02*
X147386819Y-84202761D01*
X147386819Y-83917047D02*
X146386819Y-83917047D01*
X146386819Y-83917047D02*
X146529676Y-84012285D01*
X146529676Y-84012285D02*
X146624914Y-84107523D01*
X146624914Y-84107523D02*
X146672533Y-84202761D01*
X156505333Y-101637580D02*
X156457714Y-101685200D01*
X156457714Y-101685200D02*
X156314857Y-101732819D01*
X156314857Y-101732819D02*
X156219619Y-101732819D01*
X156219619Y-101732819D02*
X156076762Y-101685200D01*
X156076762Y-101685200D02*
X155981524Y-101589961D01*
X155981524Y-101589961D02*
X155933905Y-101494723D01*
X155933905Y-101494723D02*
X155886286Y-101304247D01*
X155886286Y-101304247D02*
X155886286Y-101161390D01*
X155886286Y-101161390D02*
X155933905Y-100970914D01*
X155933905Y-100970914D02*
X155981524Y-100875676D01*
X155981524Y-100875676D02*
X156076762Y-100780438D01*
X156076762Y-100780438D02*
X156219619Y-100732819D01*
X156219619Y-100732819D02*
X156314857Y-100732819D01*
X156314857Y-100732819D02*
X156457714Y-100780438D01*
X156457714Y-100780438D02*
X156505333Y-100828057D01*
X156838667Y-100732819D02*
X157457714Y-100732819D01*
X157457714Y-100732819D02*
X157124381Y-101113771D01*
X157124381Y-101113771D02*
X157267238Y-101113771D01*
X157267238Y-101113771D02*
X157362476Y-101161390D01*
X157362476Y-101161390D02*
X157410095Y-101209009D01*
X157410095Y-101209009D02*
X157457714Y-101304247D01*
X157457714Y-101304247D02*
X157457714Y-101542342D01*
X157457714Y-101542342D02*
X157410095Y-101637580D01*
X157410095Y-101637580D02*
X157362476Y-101685200D01*
X157362476Y-101685200D02*
X157267238Y-101732819D01*
X157267238Y-101732819D02*
X156981524Y-101732819D01*
X156981524Y-101732819D02*
X156886286Y-101685200D01*
X156886286Y-101685200D02*
X156838667Y-101637580D01*
X157046819Y-104654666D02*
X156570628Y-104987999D01*
X157046819Y-105226094D02*
X156046819Y-105226094D01*
X156046819Y-105226094D02*
X156046819Y-104845142D01*
X156046819Y-104845142D02*
X156094438Y-104749904D01*
X156094438Y-104749904D02*
X156142057Y-104702285D01*
X156142057Y-104702285D02*
X156237295Y-104654666D01*
X156237295Y-104654666D02*
X156380152Y-104654666D01*
X156380152Y-104654666D02*
X156475390Y-104702285D01*
X156475390Y-104702285D02*
X156523009Y-104749904D01*
X156523009Y-104749904D02*
X156570628Y-104845142D01*
X156570628Y-104845142D02*
X156570628Y-105226094D01*
X157046819Y-103702285D02*
X157046819Y-104273713D01*
X157046819Y-103987999D02*
X156046819Y-103987999D01*
X156046819Y-103987999D02*
X156189676Y-104083237D01*
X156189676Y-104083237D02*
X156284914Y-104178475D01*
X156284914Y-104178475D02*
X156332533Y-104273713D01*
X172045333Y-99402819D02*
X171712000Y-98926628D01*
X171473905Y-99402819D02*
X171473905Y-98402819D01*
X171473905Y-98402819D02*
X171854857Y-98402819D01*
X171854857Y-98402819D02*
X171950095Y-98450438D01*
X171950095Y-98450438D02*
X171997714Y-98498057D01*
X171997714Y-98498057D02*
X172045333Y-98593295D01*
X172045333Y-98593295D02*
X172045333Y-98736152D01*
X172045333Y-98736152D02*
X171997714Y-98831390D01*
X171997714Y-98831390D02*
X171950095Y-98879009D01*
X171950095Y-98879009D02*
X171854857Y-98926628D01*
X171854857Y-98926628D02*
X171473905Y-98926628D01*
X172378667Y-98402819D02*
X172997714Y-98402819D01*
X172997714Y-98402819D02*
X172664381Y-98783771D01*
X172664381Y-98783771D02*
X172807238Y-98783771D01*
X172807238Y-98783771D02*
X172902476Y-98831390D01*
X172902476Y-98831390D02*
X172950095Y-98879009D01*
X172950095Y-98879009D02*
X172997714Y-98974247D01*
X172997714Y-98974247D02*
X172997714Y-99212342D01*
X172997714Y-99212342D02*
X172950095Y-99307580D01*
X172950095Y-99307580D02*
X172902476Y-99355200D01*
X172902476Y-99355200D02*
X172807238Y-99402819D01*
X172807238Y-99402819D02*
X172521524Y-99402819D01*
X172521524Y-99402819D02*
X172426286Y-99355200D01*
X172426286Y-99355200D02*
X172378667Y-99307580D01*
X185616761Y-109678057D02*
X185521523Y-109630438D01*
X185521523Y-109630438D02*
X185426285Y-109535200D01*
X185426285Y-109535200D02*
X185283428Y-109392342D01*
X185283428Y-109392342D02*
X185188190Y-109344723D01*
X185188190Y-109344723D02*
X185092952Y-109344723D01*
X185140571Y-109582819D02*
X185045333Y-109535200D01*
X185045333Y-109535200D02*
X184950095Y-109439961D01*
X184950095Y-109439961D02*
X184902476Y-109249485D01*
X184902476Y-109249485D02*
X184902476Y-108916152D01*
X184902476Y-108916152D02*
X184950095Y-108725676D01*
X184950095Y-108725676D02*
X185045333Y-108630438D01*
X185045333Y-108630438D02*
X185140571Y-108582819D01*
X185140571Y-108582819D02*
X185331047Y-108582819D01*
X185331047Y-108582819D02*
X185426285Y-108630438D01*
X185426285Y-108630438D02*
X185521523Y-108725676D01*
X185521523Y-108725676D02*
X185569142Y-108916152D01*
X185569142Y-108916152D02*
X185569142Y-109249485D01*
X185569142Y-109249485D02*
X185521523Y-109439961D01*
X185521523Y-109439961D02*
X185426285Y-109535200D01*
X185426285Y-109535200D02*
X185331047Y-109582819D01*
X185331047Y-109582819D02*
X185140571Y-109582819D01*
X185950095Y-108678057D02*
X185997714Y-108630438D01*
X185997714Y-108630438D02*
X186092952Y-108582819D01*
X186092952Y-108582819D02*
X186331047Y-108582819D01*
X186331047Y-108582819D02*
X186426285Y-108630438D01*
X186426285Y-108630438D02*
X186473904Y-108678057D01*
X186473904Y-108678057D02*
X186521523Y-108773295D01*
X186521523Y-108773295D02*
X186521523Y-108868533D01*
X186521523Y-108868533D02*
X186473904Y-109011390D01*
X186473904Y-109011390D02*
X185902476Y-109582819D01*
X185902476Y-109582819D02*
X186521523Y-109582819D01*
X166116761Y-110178057D02*
X166021523Y-110130438D01*
X166021523Y-110130438D02*
X165926285Y-110035200D01*
X165926285Y-110035200D02*
X165783428Y-109892342D01*
X165783428Y-109892342D02*
X165688190Y-109844723D01*
X165688190Y-109844723D02*
X165592952Y-109844723D01*
X165640571Y-110082819D02*
X165545333Y-110035200D01*
X165545333Y-110035200D02*
X165450095Y-109939961D01*
X165450095Y-109939961D02*
X165402476Y-109749485D01*
X165402476Y-109749485D02*
X165402476Y-109416152D01*
X165402476Y-109416152D02*
X165450095Y-109225676D01*
X165450095Y-109225676D02*
X165545333Y-109130438D01*
X165545333Y-109130438D02*
X165640571Y-109082819D01*
X165640571Y-109082819D02*
X165831047Y-109082819D01*
X165831047Y-109082819D02*
X165926285Y-109130438D01*
X165926285Y-109130438D02*
X166021523Y-109225676D01*
X166021523Y-109225676D02*
X166069142Y-109416152D01*
X166069142Y-109416152D02*
X166069142Y-109749485D01*
X166069142Y-109749485D02*
X166021523Y-109939961D01*
X166021523Y-109939961D02*
X165926285Y-110035200D01*
X165926285Y-110035200D02*
X165831047Y-110082819D01*
X165831047Y-110082819D02*
X165640571Y-110082819D01*
X167021523Y-110082819D02*
X166450095Y-110082819D01*
X166735809Y-110082819D02*
X166735809Y-109082819D01*
X166735809Y-109082819D02*
X166640571Y-109225676D01*
X166640571Y-109225676D02*
X166545333Y-109320914D01*
X166545333Y-109320914D02*
X166450095Y-109368533D01*
X142255333Y-98787580D02*
X142207714Y-98835200D01*
X142207714Y-98835200D02*
X142064857Y-98882819D01*
X142064857Y-98882819D02*
X141969619Y-98882819D01*
X141969619Y-98882819D02*
X141826762Y-98835200D01*
X141826762Y-98835200D02*
X141731524Y-98739961D01*
X141731524Y-98739961D02*
X141683905Y-98644723D01*
X141683905Y-98644723D02*
X141636286Y-98454247D01*
X141636286Y-98454247D02*
X141636286Y-98311390D01*
X141636286Y-98311390D02*
X141683905Y-98120914D01*
X141683905Y-98120914D02*
X141731524Y-98025676D01*
X141731524Y-98025676D02*
X141826762Y-97930438D01*
X141826762Y-97930438D02*
X141969619Y-97882819D01*
X141969619Y-97882819D02*
X142064857Y-97882819D01*
X142064857Y-97882819D02*
X142207714Y-97930438D01*
X142207714Y-97930438D02*
X142255333Y-97978057D01*
X143207714Y-98882819D02*
X142636286Y-98882819D01*
X142922000Y-98882819D02*
X142922000Y-97882819D01*
X142922000Y-97882819D02*
X142826762Y-98025676D01*
X142826762Y-98025676D02*
X142731524Y-98120914D01*
X142731524Y-98120914D02*
X142636286Y-98168533D01*
X177703905Y-90202819D02*
X177703905Y-89202819D01*
X177703905Y-89202819D02*
X177942000Y-89202819D01*
X177942000Y-89202819D02*
X178084857Y-89250438D01*
X178084857Y-89250438D02*
X178180095Y-89345676D01*
X178180095Y-89345676D02*
X178227714Y-89440914D01*
X178227714Y-89440914D02*
X178275333Y-89631390D01*
X178275333Y-89631390D02*
X178275333Y-89774247D01*
X178275333Y-89774247D02*
X178227714Y-89964723D01*
X178227714Y-89964723D02*
X178180095Y-90059961D01*
X178180095Y-90059961D02*
X178084857Y-90155200D01*
X178084857Y-90155200D02*
X177942000Y-90202819D01*
X177942000Y-90202819D02*
X177703905Y-90202819D01*
X178656286Y-89298057D02*
X178703905Y-89250438D01*
X178703905Y-89250438D02*
X178799143Y-89202819D01*
X178799143Y-89202819D02*
X179037238Y-89202819D01*
X179037238Y-89202819D02*
X179132476Y-89250438D01*
X179132476Y-89250438D02*
X179180095Y-89298057D01*
X179180095Y-89298057D02*
X179227714Y-89393295D01*
X179227714Y-89393295D02*
X179227714Y-89488533D01*
X179227714Y-89488533D02*
X179180095Y-89631390D01*
X179180095Y-89631390D02*
X178608667Y-90202819D01*
X178608667Y-90202819D02*
X179227714Y-90202819D01*
X182546819Y-95694666D02*
X182070628Y-96027999D01*
X182546819Y-96266094D02*
X181546819Y-96266094D01*
X181546819Y-96266094D02*
X181546819Y-95885142D01*
X181546819Y-95885142D02*
X181594438Y-95789904D01*
X181594438Y-95789904D02*
X181642057Y-95742285D01*
X181642057Y-95742285D02*
X181737295Y-95694666D01*
X181737295Y-95694666D02*
X181880152Y-95694666D01*
X181880152Y-95694666D02*
X181975390Y-95742285D01*
X181975390Y-95742285D02*
X182023009Y-95789904D01*
X182023009Y-95789904D02*
X182070628Y-95885142D01*
X182070628Y-95885142D02*
X182070628Y-96266094D01*
X181880152Y-94837523D02*
X182546819Y-94837523D01*
X181499200Y-95075618D02*
X182213485Y-95313713D01*
X182213485Y-95313713D02*
X182213485Y-94694666D01*
X158186819Y-83623238D02*
X157710628Y-83956571D01*
X158186819Y-84194666D02*
X157186819Y-84194666D01*
X157186819Y-84194666D02*
X157186819Y-83813714D01*
X157186819Y-83813714D02*
X157234438Y-83718476D01*
X157234438Y-83718476D02*
X157282057Y-83670857D01*
X157282057Y-83670857D02*
X157377295Y-83623238D01*
X157377295Y-83623238D02*
X157520152Y-83623238D01*
X157520152Y-83623238D02*
X157615390Y-83670857D01*
X157615390Y-83670857D02*
X157663009Y-83718476D01*
X157663009Y-83718476D02*
X157710628Y-83813714D01*
X157710628Y-83813714D02*
X157710628Y-84194666D01*
X157186819Y-83337523D02*
X158186819Y-83004190D01*
X158186819Y-83004190D02*
X157186819Y-82670857D01*
X158186819Y-81813714D02*
X158186819Y-82385142D01*
X158186819Y-82099428D02*
X157186819Y-82099428D01*
X157186819Y-82099428D02*
X157329676Y-82194666D01*
X157329676Y-82194666D02*
X157424914Y-82289904D01*
X157424914Y-82289904D02*
X157472533Y-82385142D01*
X163405095Y-93122819D02*
X163405095Y-93932342D01*
X163405095Y-93932342D02*
X163452714Y-94027580D01*
X163452714Y-94027580D02*
X163500333Y-94075200D01*
X163500333Y-94075200D02*
X163595571Y-94122819D01*
X163595571Y-94122819D02*
X163786047Y-94122819D01*
X163786047Y-94122819D02*
X163881285Y-94075200D01*
X163881285Y-94075200D02*
X163928904Y-94027580D01*
X163928904Y-94027580D02*
X163976523Y-93932342D01*
X163976523Y-93932342D02*
X163976523Y-93122819D01*
X164976523Y-94122819D02*
X164405095Y-94122819D01*
X164690809Y-94122819D02*
X164690809Y-93122819D01*
X164690809Y-93122819D02*
X164595571Y-93265676D01*
X164595571Y-93265676D02*
X164500333Y-93360914D01*
X164500333Y-93360914D02*
X164405095Y-93408533D01*
X152581580Y-91694666D02*
X152629200Y-91742285D01*
X152629200Y-91742285D02*
X152676819Y-91885142D01*
X152676819Y-91885142D02*
X152676819Y-91980380D01*
X152676819Y-91980380D02*
X152629200Y-92123237D01*
X152629200Y-92123237D02*
X152533961Y-92218475D01*
X152533961Y-92218475D02*
X152438723Y-92266094D01*
X152438723Y-92266094D02*
X152248247Y-92313713D01*
X152248247Y-92313713D02*
X152105390Y-92313713D01*
X152105390Y-92313713D02*
X151914914Y-92266094D01*
X151914914Y-92266094D02*
X151819676Y-92218475D01*
X151819676Y-92218475D02*
X151724438Y-92123237D01*
X151724438Y-92123237D02*
X151676819Y-91980380D01*
X151676819Y-91980380D02*
X151676819Y-91885142D01*
X151676819Y-91885142D02*
X151724438Y-91742285D01*
X151724438Y-91742285D02*
X151772057Y-91694666D01*
X151772057Y-91313713D02*
X151724438Y-91266094D01*
X151724438Y-91266094D02*
X151676819Y-91170856D01*
X151676819Y-91170856D02*
X151676819Y-90932761D01*
X151676819Y-90932761D02*
X151724438Y-90837523D01*
X151724438Y-90837523D02*
X151772057Y-90789904D01*
X151772057Y-90789904D02*
X151867295Y-90742285D01*
X151867295Y-90742285D02*
X151962533Y-90742285D01*
X151962533Y-90742285D02*
X152105390Y-90789904D01*
X152105390Y-90789904D02*
X152676819Y-91361332D01*
X152676819Y-91361332D02*
X152676819Y-90742285D01*
X173545333Y-94402819D02*
X173212000Y-93926628D01*
X172973905Y-94402819D02*
X172973905Y-93402819D01*
X172973905Y-93402819D02*
X173354857Y-93402819D01*
X173354857Y-93402819D02*
X173450095Y-93450438D01*
X173450095Y-93450438D02*
X173497714Y-93498057D01*
X173497714Y-93498057D02*
X173545333Y-93593295D01*
X173545333Y-93593295D02*
X173545333Y-93736152D01*
X173545333Y-93736152D02*
X173497714Y-93831390D01*
X173497714Y-93831390D02*
X173450095Y-93879009D01*
X173450095Y-93879009D02*
X173354857Y-93926628D01*
X173354857Y-93926628D02*
X172973905Y-93926628D01*
X174402476Y-93402819D02*
X174212000Y-93402819D01*
X174212000Y-93402819D02*
X174116762Y-93450438D01*
X174116762Y-93450438D02*
X174069143Y-93498057D01*
X174069143Y-93498057D02*
X173973905Y-93640914D01*
X173973905Y-93640914D02*
X173926286Y-93831390D01*
X173926286Y-93831390D02*
X173926286Y-94212342D01*
X173926286Y-94212342D02*
X173973905Y-94307580D01*
X173973905Y-94307580D02*
X174021524Y-94355200D01*
X174021524Y-94355200D02*
X174116762Y-94402819D01*
X174116762Y-94402819D02*
X174307238Y-94402819D01*
X174307238Y-94402819D02*
X174402476Y-94355200D01*
X174402476Y-94355200D02*
X174450095Y-94307580D01*
X174450095Y-94307580D02*
X174497714Y-94212342D01*
X174497714Y-94212342D02*
X174497714Y-93974247D01*
X174497714Y-93974247D02*
X174450095Y-93879009D01*
X174450095Y-93879009D02*
X174402476Y-93831390D01*
X174402476Y-93831390D02*
X174307238Y-93783771D01*
X174307238Y-93783771D02*
X174116762Y-93783771D01*
X174116762Y-93783771D02*
X174021524Y-93831390D01*
X174021524Y-93831390D02*
X173973905Y-93879009D01*
X173973905Y-93879009D02*
X173926286Y-93974247D01*
X164005333Y-95562819D02*
X163672000Y-95086628D01*
X163433905Y-95562819D02*
X163433905Y-94562819D01*
X163433905Y-94562819D02*
X163814857Y-94562819D01*
X163814857Y-94562819D02*
X163910095Y-94610438D01*
X163910095Y-94610438D02*
X163957714Y-94658057D01*
X163957714Y-94658057D02*
X164005333Y-94753295D01*
X164005333Y-94753295D02*
X164005333Y-94896152D01*
X164005333Y-94896152D02*
X163957714Y-94991390D01*
X163957714Y-94991390D02*
X163910095Y-95039009D01*
X163910095Y-95039009D02*
X163814857Y-95086628D01*
X163814857Y-95086628D02*
X163433905Y-95086628D01*
X164386286Y-94658057D02*
X164433905Y-94610438D01*
X164433905Y-94610438D02*
X164529143Y-94562819D01*
X164529143Y-94562819D02*
X164767238Y-94562819D01*
X164767238Y-94562819D02*
X164862476Y-94610438D01*
X164862476Y-94610438D02*
X164910095Y-94658057D01*
X164910095Y-94658057D02*
X164957714Y-94753295D01*
X164957714Y-94753295D02*
X164957714Y-94848533D01*
X164957714Y-94848533D02*
X164910095Y-94991390D01*
X164910095Y-94991390D02*
X164338667Y-95562819D01*
X164338667Y-95562819D02*
X164957714Y-95562819D01*
X141703905Y-108942819D02*
X141703905Y-107942819D01*
X141703905Y-107942819D02*
X141942000Y-107942819D01*
X141942000Y-107942819D02*
X142084857Y-107990438D01*
X142084857Y-107990438D02*
X142180095Y-108085676D01*
X142180095Y-108085676D02*
X142227714Y-108180914D01*
X142227714Y-108180914D02*
X142275333Y-108371390D01*
X142275333Y-108371390D02*
X142275333Y-108514247D01*
X142275333Y-108514247D02*
X142227714Y-108704723D01*
X142227714Y-108704723D02*
X142180095Y-108799961D01*
X142180095Y-108799961D02*
X142084857Y-108895200D01*
X142084857Y-108895200D02*
X141942000Y-108942819D01*
X141942000Y-108942819D02*
X141703905Y-108942819D01*
X142608667Y-107942819D02*
X143227714Y-107942819D01*
X143227714Y-107942819D02*
X142894381Y-108323771D01*
X142894381Y-108323771D02*
X143037238Y-108323771D01*
X143037238Y-108323771D02*
X143132476Y-108371390D01*
X143132476Y-108371390D02*
X143180095Y-108419009D01*
X143180095Y-108419009D02*
X143227714Y-108514247D01*
X143227714Y-108514247D02*
X143227714Y-108752342D01*
X143227714Y-108752342D02*
X143180095Y-108847580D01*
X143180095Y-108847580D02*
X143132476Y-108895200D01*
X143132476Y-108895200D02*
X143037238Y-108942819D01*
X143037238Y-108942819D02*
X142751524Y-108942819D01*
X142751524Y-108942819D02*
X142656286Y-108895200D01*
X142656286Y-108895200D02*
X142608667Y-108847580D01*
X174046819Y-85654666D02*
X173570628Y-85987999D01*
X174046819Y-86226094D02*
X173046819Y-86226094D01*
X173046819Y-86226094D02*
X173046819Y-85845142D01*
X173046819Y-85845142D02*
X173094438Y-85749904D01*
X173094438Y-85749904D02*
X173142057Y-85702285D01*
X173142057Y-85702285D02*
X173237295Y-85654666D01*
X173237295Y-85654666D02*
X173380152Y-85654666D01*
X173380152Y-85654666D02*
X173475390Y-85702285D01*
X173475390Y-85702285D02*
X173523009Y-85749904D01*
X173523009Y-85749904D02*
X173570628Y-85845142D01*
X173570628Y-85845142D02*
X173570628Y-86226094D01*
X173046819Y-84749904D02*
X173046819Y-85226094D01*
X173046819Y-85226094D02*
X173523009Y-85273713D01*
X173523009Y-85273713D02*
X173475390Y-85226094D01*
X173475390Y-85226094D02*
X173427771Y-85130856D01*
X173427771Y-85130856D02*
X173427771Y-84892761D01*
X173427771Y-84892761D02*
X173475390Y-84797523D01*
X173475390Y-84797523D02*
X173523009Y-84749904D01*
X173523009Y-84749904D02*
X173618247Y-84702285D01*
X173618247Y-84702285D02*
X173856342Y-84702285D01*
X173856342Y-84702285D02*
X173951580Y-84749904D01*
X173951580Y-84749904D02*
X173999200Y-84797523D01*
X173999200Y-84797523D02*
X174046819Y-84892761D01*
X174046819Y-84892761D02*
X174046819Y-85130856D01*
X174046819Y-85130856D02*
X173999200Y-85226094D01*
X173999200Y-85226094D02*
X173951580Y-85273713D01*
X191846819Y-93289904D02*
X191846819Y-92718476D01*
X192846819Y-93004190D02*
X191846819Y-93004190D01*
X192846819Y-91861333D02*
X192846819Y-92432761D01*
X192846819Y-92147047D02*
X191846819Y-92147047D01*
X191846819Y-92147047D02*
X191989676Y-92242285D01*
X191989676Y-92242285D02*
X192084914Y-92337523D01*
X192084914Y-92337523D02*
X192132533Y-92432761D01*
X155505333Y-87837580D02*
X155457714Y-87885200D01*
X155457714Y-87885200D02*
X155314857Y-87932819D01*
X155314857Y-87932819D02*
X155219619Y-87932819D01*
X155219619Y-87932819D02*
X155076762Y-87885200D01*
X155076762Y-87885200D02*
X154981524Y-87789961D01*
X154981524Y-87789961D02*
X154933905Y-87694723D01*
X154933905Y-87694723D02*
X154886286Y-87504247D01*
X154886286Y-87504247D02*
X154886286Y-87361390D01*
X154886286Y-87361390D02*
X154933905Y-87170914D01*
X154933905Y-87170914D02*
X154981524Y-87075676D01*
X154981524Y-87075676D02*
X155076762Y-86980438D01*
X155076762Y-86980438D02*
X155219619Y-86932819D01*
X155219619Y-86932819D02*
X155314857Y-86932819D01*
X155314857Y-86932819D02*
X155457714Y-86980438D01*
X155457714Y-86980438D02*
X155505333Y-87028057D01*
X156362476Y-87266152D02*
X156362476Y-87932819D01*
X156124381Y-86885200D02*
X155886286Y-87599485D01*
X155886286Y-87599485D02*
X156505333Y-87599485D01*
X152596819Y-103266094D02*
X151596819Y-103266094D01*
X151596819Y-103266094D02*
X151596819Y-103027999D01*
X151596819Y-103027999D02*
X151644438Y-102885142D01*
X151644438Y-102885142D02*
X151739676Y-102789904D01*
X151739676Y-102789904D02*
X151834914Y-102742285D01*
X151834914Y-102742285D02*
X152025390Y-102694666D01*
X152025390Y-102694666D02*
X152168247Y-102694666D01*
X152168247Y-102694666D02*
X152358723Y-102742285D01*
X152358723Y-102742285D02*
X152453961Y-102789904D01*
X152453961Y-102789904D02*
X152549200Y-102885142D01*
X152549200Y-102885142D02*
X152596819Y-103027999D01*
X152596819Y-103027999D02*
X152596819Y-103266094D01*
X152596819Y-101742285D02*
X152596819Y-102313713D01*
X152596819Y-102027999D02*
X151596819Y-102027999D01*
X151596819Y-102027999D02*
X151739676Y-102123237D01*
X151739676Y-102123237D02*
X151834914Y-102218475D01*
X151834914Y-102218475D02*
X151882533Y-102313713D01*
X152226819Y-97709904D02*
X151226819Y-97709904D01*
X152226819Y-97138476D02*
X151655390Y-97567047D01*
X151226819Y-97138476D02*
X151798247Y-97709904D01*
D11*
%TO.C,BT1*%
X139192000Y-83528000D02*
X138582000Y-83968000D01*
X138582000Y-83088000D01*
X139192000Y-83528000D01*
G36*
X139192000Y-83528000D02*
G01*
X138582000Y-83968000D01*
X138582000Y-83088000D01*
X139192000Y-83528000D01*
G37*
X139192000Y-87708000D02*
X139192000Y-83828000D01*
X145932000Y-87708000D02*
X139192000Y-87708000D01*
X139192000Y-83228000D02*
X139192000Y-81888000D01*
X139192000Y-81888000D02*
X145932000Y-81888000D01*
X140112000Y-81888000D02*
X140112000Y-87708000D01*
X141112000Y-81888000D02*
X141112000Y-87708000D01*
X144212000Y-81888000D02*
X144212000Y-87708000D01*
X145932000Y-81888000D02*
X145932000Y-87708000D01*
%TO.C,C3*%
X159292000Y-97528000D02*
G75*
G02*
X154052000Y-97528000I-2620000J0D01*
G01*
X154052000Y-97528000D02*
G75*
G02*
X159292000Y-97528000I2620000J0D01*
G01*
%TO.C,R1*%
X153752000Y-102568000D02*
X153752000Y-106408000D01*
X155592000Y-102568000D02*
X155592000Y-106408000D01*
%TO.C,R3*%
X174132000Y-96108000D02*
X170292000Y-96108000D01*
X174132000Y-97948000D02*
X170292000Y-97948000D01*
%TO.C,Q2*%
X180602000Y-103668000D02*
X190822000Y-103668000D01*
X180602000Y-108288000D02*
X180602000Y-103668000D01*
X183862000Y-108288000D02*
X183862000Y-106908000D01*
X187562000Y-108288000D02*
X187562000Y-106908000D01*
X190822000Y-103668000D02*
X190822000Y-108288000D01*
X190822000Y-106908000D02*
X180602000Y-106908000D01*
X190822000Y-108288000D02*
X180602000Y-108288000D01*
%TO.C,Q1*%
X161102000Y-104168000D02*
X171322000Y-104168000D01*
X161102000Y-108788000D02*
X161102000Y-104168000D01*
X164362000Y-108788000D02*
X164362000Y-107408000D01*
X168062000Y-108788000D02*
X168062000Y-107408000D01*
X171322000Y-104168000D02*
X171322000Y-108788000D01*
X171322000Y-107408000D02*
X161102000Y-107408000D01*
X171322000Y-108788000D02*
X161102000Y-108788000D01*
%TO.C,C1*%
X145692000Y-94028000D02*
G75*
G02*
X139152000Y-94028000I-3270000J0D01*
G01*
X139152000Y-94028000D02*
G75*
G02*
X145692000Y-94028000I3270000J0D01*
G01*
X139182000Y-94430000D02*
X139182000Y-93626000D01*
X139222000Y-94661000D02*
X139222000Y-93395000D01*
X139262000Y-94829000D02*
X139262000Y-93227000D01*
X139302000Y-94967000D02*
X139302000Y-93089000D01*
X139342000Y-95086000D02*
X139342000Y-92970000D01*
X139382000Y-95193000D02*
X139382000Y-92863000D01*
X139422000Y-95289000D02*
X139422000Y-92767000D01*
X139462000Y-95378000D02*
X139462000Y-92678000D01*
X139502000Y-95460000D02*
X139502000Y-92596000D01*
X139542000Y-95537000D02*
X139542000Y-92519000D01*
X139582000Y-95609000D02*
X139582000Y-92447000D01*
X139622000Y-95677000D02*
X139622000Y-92379000D01*
X139662000Y-95742000D02*
X139662000Y-92314000D01*
X139702000Y-95803000D02*
X139702000Y-92253000D01*
X139742000Y-95862000D02*
X139742000Y-92194000D01*
X139782000Y-95918000D02*
X139782000Y-92138000D01*
X139822000Y-95971000D02*
X139822000Y-92085000D01*
X139862000Y-96023000D02*
X139862000Y-92033000D01*
X139902000Y-96072000D02*
X139902000Y-91984000D01*
X139942000Y-96119000D02*
X139942000Y-91937000D01*
X139982000Y-96165000D02*
X139982000Y-91891000D01*
X140022000Y-96209000D02*
X140022000Y-91847000D01*
X140062000Y-96251000D02*
X140062000Y-91805000D01*
X140102000Y-96292000D02*
X140102000Y-91764000D01*
X140142000Y-92988000D02*
X140142000Y-91724000D01*
X140142000Y-96332000D02*
X140142000Y-95068000D01*
X140182000Y-92988000D02*
X140182000Y-91686000D01*
X140182000Y-96370000D02*
X140182000Y-95068000D01*
X140222000Y-92988000D02*
X140222000Y-91649000D01*
X140222000Y-96407000D02*
X140222000Y-95068000D01*
X140262000Y-92988000D02*
X140262000Y-91613000D01*
X140262000Y-96443000D02*
X140262000Y-95068000D01*
X140302000Y-92988000D02*
X140302000Y-91578000D01*
X140302000Y-96478000D02*
X140302000Y-95068000D01*
X140342000Y-92988000D02*
X140342000Y-91545000D01*
X140342000Y-96511000D02*
X140342000Y-95068000D01*
X140382000Y-92988000D02*
X140382000Y-91512000D01*
X140382000Y-96544000D02*
X140382000Y-95068000D01*
X140422000Y-92988000D02*
X140422000Y-91481000D01*
X140422000Y-96575000D02*
X140422000Y-95068000D01*
X140462000Y-92988000D02*
X140462000Y-91451000D01*
X140462000Y-96605000D02*
X140462000Y-95068000D01*
X140502000Y-92988000D02*
X140502000Y-91421000D01*
X140502000Y-96635000D02*
X140502000Y-95068000D01*
X140542000Y-92988000D02*
X140542000Y-91392000D01*
X140542000Y-96664000D02*
X140542000Y-95068000D01*
X140582000Y-92988000D02*
X140582000Y-91365000D01*
X140582000Y-96691000D02*
X140582000Y-95068000D01*
X140622000Y-92988000D02*
X140622000Y-91338000D01*
X140622000Y-96718000D02*
X140622000Y-95068000D01*
X140662000Y-92988000D02*
X140662000Y-91312000D01*
X140662000Y-96744000D02*
X140662000Y-95068000D01*
X140702000Y-92988000D02*
X140702000Y-91287000D01*
X140702000Y-96769000D02*
X140702000Y-95068000D01*
X140742000Y-92988000D02*
X140742000Y-91263000D01*
X140742000Y-96793000D02*
X140742000Y-95068000D01*
X140782000Y-92988000D02*
X140782000Y-91239000D01*
X140782000Y-96817000D02*
X140782000Y-95068000D01*
X140822000Y-92988000D02*
X140822000Y-91216000D01*
X140822000Y-96840000D02*
X140822000Y-95068000D01*
X140862000Y-92988000D02*
X140862000Y-91194000D01*
X140862000Y-96862000D02*
X140862000Y-95068000D01*
X140902000Y-92988000D02*
X140902000Y-91173000D01*
X140902000Y-96883000D02*
X140902000Y-95068000D01*
X140942000Y-92988000D02*
X140942000Y-91152000D01*
X140942000Y-96904000D02*
X140942000Y-95068000D01*
X140982000Y-92988000D02*
X140982000Y-91132000D01*
X140982000Y-96924000D02*
X140982000Y-95068000D01*
X141022000Y-92988000D02*
X141022000Y-91113000D01*
X141022000Y-96943000D02*
X141022000Y-95068000D01*
X141062000Y-92988000D02*
X141062000Y-91094000D01*
X141062000Y-96962000D02*
X141062000Y-95068000D01*
X141102000Y-92988000D02*
X141102000Y-91076000D01*
X141102000Y-96980000D02*
X141102000Y-95068000D01*
X141142000Y-92988000D02*
X141142000Y-91059000D01*
X141142000Y-96997000D02*
X141142000Y-95068000D01*
X141182000Y-92988000D02*
X141182000Y-91042000D01*
X141182000Y-97014000D02*
X141182000Y-95068000D01*
X141222000Y-92988000D02*
X141222000Y-91026000D01*
X141222000Y-97030000D02*
X141222000Y-95068000D01*
X141262000Y-92988000D02*
X141262000Y-91011000D01*
X141262000Y-97045000D02*
X141262000Y-95068000D01*
X141302000Y-92988000D02*
X141302000Y-90996000D01*
X141302000Y-97060000D02*
X141302000Y-95068000D01*
X141342000Y-92988000D02*
X141342000Y-90981000D01*
X141342000Y-97075000D02*
X141342000Y-95068000D01*
X141382000Y-92988000D02*
X141382000Y-90968000D01*
X141382000Y-97088000D02*
X141382000Y-95068000D01*
X141422000Y-92988000D02*
X141422000Y-90955000D01*
X141422000Y-97101000D02*
X141422000Y-95068000D01*
X141462000Y-92988000D02*
X141462000Y-90942000D01*
X141462000Y-97114000D02*
X141462000Y-95068000D01*
X141502000Y-92988000D02*
X141502000Y-90930000D01*
X141502000Y-97126000D02*
X141502000Y-95068000D01*
X141542000Y-92988000D02*
X141542000Y-90919000D01*
X141542000Y-97137000D02*
X141542000Y-95068000D01*
X141582000Y-92988000D02*
X141582000Y-90908000D01*
X141582000Y-97148000D02*
X141582000Y-95068000D01*
X141622000Y-92988000D02*
X141622000Y-90897000D01*
X141622000Y-97159000D02*
X141622000Y-95068000D01*
X141662000Y-92988000D02*
X141662000Y-90888000D01*
X141662000Y-97168000D02*
X141662000Y-95068000D01*
X141702000Y-92988000D02*
X141702000Y-90878000D01*
X141702000Y-97178000D02*
X141702000Y-95068000D01*
X141742000Y-92988000D02*
X141742000Y-90869000D01*
X141742000Y-97187000D02*
X141742000Y-95068000D01*
X141782000Y-92988000D02*
X141782000Y-90861000D01*
X141782000Y-97195000D02*
X141782000Y-95068000D01*
X141822000Y-92988000D02*
X141822000Y-90854000D01*
X141822000Y-97202000D02*
X141822000Y-95068000D01*
X141862000Y-92988000D02*
X141862000Y-90846000D01*
X141862000Y-97210000D02*
X141862000Y-95068000D01*
X141902000Y-92988000D02*
X141902000Y-90840000D01*
X141902000Y-97216000D02*
X141902000Y-95068000D01*
X141942000Y-92988000D02*
X141942000Y-90833000D01*
X141942000Y-97223000D02*
X141942000Y-95068000D01*
X141982000Y-92988000D02*
X141982000Y-90828000D01*
X141982000Y-97228000D02*
X141982000Y-95068000D01*
X142022000Y-92988000D02*
X142022000Y-90823000D01*
X142022000Y-97233000D02*
X142022000Y-95068000D01*
X142062000Y-92988000D02*
X142062000Y-90818000D01*
X142062000Y-97238000D02*
X142062000Y-95068000D01*
X142102000Y-92988000D02*
X142102000Y-90814000D01*
X142102000Y-97242000D02*
X142102000Y-95068000D01*
X142142000Y-92988000D02*
X142142000Y-90810000D01*
X142142000Y-97246000D02*
X142142000Y-95068000D01*
X142182000Y-92988000D02*
X142182000Y-90807000D01*
X142182000Y-97249000D02*
X142182000Y-95068000D01*
X142222000Y-97252000D02*
X142222000Y-90804000D01*
X142262000Y-97254000D02*
X142262000Y-90802000D01*
X142302000Y-97256000D02*
X142302000Y-90800000D01*
X142342000Y-97257000D02*
X142342000Y-90799000D01*
X142382000Y-97258000D02*
X142382000Y-90798000D01*
X142422000Y-97258000D02*
X142422000Y-90798000D01*
X145607241Y-96182000D02*
X145607241Y-95552000D01*
X145922241Y-95867000D02*
X145292241Y-95867000D01*
%TO.C,D2*%
X179712000Y-82008000D02*
X179272000Y-81398000D01*
X180152000Y-81398000D01*
X179712000Y-82008000D01*
G36*
X179712000Y-82008000D02*
G01*
X179272000Y-81398000D01*
X180152000Y-81398000D01*
X179712000Y-82008000D01*
G37*
X175532000Y-82008000D02*
X179412000Y-82008000D01*
X175532000Y-88748000D02*
X175532000Y-82008000D01*
X180012000Y-82008000D02*
X181352000Y-82008000D01*
X181352000Y-82008000D02*
X181352000Y-88748000D01*
X181352000Y-82928000D02*
X175532000Y-82928000D01*
X181352000Y-83928000D02*
X175532000Y-83928000D01*
X181352000Y-87028000D02*
X175532000Y-87028000D01*
X181352000Y-88748000D02*
X175532000Y-88748000D01*
%TO.C,R4*%
X179252000Y-93608000D02*
X179252000Y-97448000D01*
X181092000Y-93608000D02*
X181092000Y-97448000D01*
%TO.C,RV1*%
X149912000Y-86638000D02*
X149912000Y-83738000D01*
X152062000Y-86638000D02*
X152062000Y-82918000D01*
X154282000Y-86638000D02*
X152062000Y-86638000D01*
X156432000Y-86638000D02*
X149912000Y-86638000D01*
X156432000Y-83738000D02*
X156432000Y-86638000D01*
X151706000Y-82918000D02*
X154638000Y-82918000D01*
X152062000Y-82918000D02*
X154282000Y-82918000D01*
X154282000Y-82918000D02*
X154282000Y-86638000D01*
%TO.C,U1*%
X163167000Y-92668000D02*
G75*
G02*
X165167000Y-92668000I1000000J0D01*
G01*
X161517000Y-82388000D02*
X161517000Y-92668000D01*
X161517000Y-92668000D02*
X163167000Y-92668000D01*
X165167000Y-92668000D02*
X166817000Y-92668000D01*
X166817000Y-82388000D02*
X161517000Y-82388000D01*
X166817000Y-92668000D02*
X166817000Y-82388000D01*
%TO.C,C2*%
X149252000Y-92293000D02*
X149252000Y-90763000D01*
X151092000Y-90763000D02*
X151092000Y-92293000D01*
%TO.C,R6*%
X175632000Y-91108000D02*
X171792000Y-91108000D01*
X175632000Y-92948000D02*
X171792000Y-92948000D01*
%TO.C,R2*%
X162252000Y-97948000D02*
X166092000Y-97948000D01*
X162252000Y-96108000D02*
X166092000Y-96108000D01*
%TO.C,D3*%
X144942000Y-104528000D02*
G75*
G02*
X139942000Y-104528000I-2500000J0D01*
G01*
X139942000Y-104528000D02*
G75*
G02*
X144942000Y-104528000I2500000J0D01*
G01*
X139452000Y-104528000D02*
G75*
G02*
X145002000Y-102983170I2990000J0D01*
G01*
X145002000Y-106072830D02*
G75*
G02*
X139452000Y-104528000I-2560000J1544830D01*
G01*
X145002000Y-106073000D02*
X145002000Y-102983000D01*
%TO.C,R5*%
X170752000Y-83568000D02*
X170752000Y-87408000D01*
X172592000Y-83568000D02*
X172592000Y-87408000D01*
%TO.C,T1*%
X184652000Y-87448000D02*
X184042000Y-87888000D01*
X184042000Y-87008000D01*
X184652000Y-87448000D01*
G36*
X184652000Y-87448000D02*
G01*
X184042000Y-87888000D01*
X184042000Y-87008000D01*
X184652000Y-87448000D01*
G37*
X184652000Y-99248000D02*
X184652000Y-87748000D01*
X191392000Y-99248000D02*
X184652000Y-99248000D01*
X184652000Y-87148000D02*
X184652000Y-85808000D01*
X184652000Y-85808000D02*
X191392000Y-85808000D01*
X185572000Y-85808000D02*
X185572000Y-99248000D01*
X186572000Y-85808000D02*
X186572000Y-99248000D01*
X189672000Y-85808000D02*
X189672000Y-99248000D01*
X191392000Y-85808000D02*
X191392000Y-99248000D01*
%TO.C,C4*%
X156437000Y-90448000D02*
X154907000Y-90448000D01*
X154907000Y-88608000D02*
X156437000Y-88608000D01*
%TO.C,D1*%
X151142000Y-99808000D02*
X148202000Y-99808000D01*
X148202000Y-105248000D01*
X151142000Y-105248000D01*
X151142000Y-99808000D01*
X149672000Y-106268000D02*
X149672000Y-105248000D01*
X151142000Y-100828000D02*
X148202000Y-100828000D01*
X151142000Y-100708000D02*
X148202000Y-100708000D01*
X151142000Y-100588000D02*
X148202000Y-100588000D01*
X149672000Y-98788000D02*
X149672000Y-99808000D01*
%TD*%
M02*
